<?xml version="1.0" encoding="UTF-8"?>
<svg width="139px" height="34px" viewBox="0 0 139 34" version="1.1" xmlns="http://www.w3.org/2000/svg" xmlns:xlink="http://www.w3.org/1999/xlink">
    <!-- Generator: Sketch 53.2 (72643) - https://sketchapp.com -->
    <title>algolia</title>
    <desc>Created with Sketch.</desc>
    <g id="Page-1" stroke="none" stroke-width="1" fill="none" fill-rule="evenodd">
        <g id="Artboard" transform="translate(-182.000000, -857.000000)" fill-rule="nonzero">
            <g id="algolia" transform="translate(182.000000, 857.000000)">
                <path d="M4.51893004,0.0140402438 L29.8020577,0.0140402438 C32.2903293,0.0140402438 34.3209876,2.0066445 34.3209876,4.47025358 L34.3209876,29.4038955 C34.3209876,31.8576332 32.3003395,33.8586987 29.8020577,33.8586987 L4.51893004,33.8586987 C2.03065844,33.8586987 1.42108547e-14,31.8675045 1.42108547e-14,29.4038955 L1.42108547e-14,4.45897203 C1.42108547e-14,2.0066445 2.01921811,0.0140402438 4.51893004,0.0140402438" id="Path" fill="#CCCDE5"></path>
                <path d="M20.7370267,7.56957817 L20.7370267,6.40898843 C20.7363952,5.59793517 20.0693921,4.94082043 19.2469239,4.94097638 L15.7733539,4.94097638 C14.9508857,4.94082043 14.2838826,5.59793517 14.283251,6.40898843 L14.283251,7.60060244 C14.283251,7.73316068 14.4076646,7.82623351 14.5435185,7.79520923 C15.5261232,7.51543539 16.5438826,7.3739581 17.5666255,7.37497138 C18.557644,7.37497138 19.5386523,7.50752964 20.4867695,7.76418496 C20.6126132,7.79520923 20.7370267,7.7035466 20.7370267,7.56957817 M11.2172428,9.0883572 L10.6237757,8.50312666 C10.3445115,8.22754338 9.96562938,8.07270591 9.57055041,8.07270591 C9.17547145,8.07270591 8.79658926,8.22754338 8.5173251,8.50312666 L7.80802468,9.20117274 C7.52796083,9.47567222 7.3704788,9.84898164 7.3704788,10.2383705 C7.3704788,10.6277594 7.52796083,11.0010688 7.80802468,11.2755683 L8.39148147,11.8509275 C8.48586421,11.9425901 8.62171811,11.9214372 8.7046605,11.8297745 C9.04889031,11.363579 9.42897215,10.9241828 9.84154321,10.5154736 C10.2575857,10.1038069 10.7071729,9.72648979 11.1857819,9.38731837 C11.2898889,9.32526982 11.3001852,9.18143003 11.2172428,9.0883572 M17.5563292,12.7731944 L17.5563292,17.7934854 C17.5563292,17.9373252 17.7136338,18.0402693 17.8480576,17.9683494 L22.3741379,15.6584515 C22.4771008,15.6076845 22.5085617,15.4835874 22.4570802,15.3820535 C21.5189733,13.7589201 19.7771831,12.6505075 17.7651152,12.5785876 C17.6607222,12.5785876 17.5563292,12.6603789 17.5563292,12.7731944 M17.5563292,24.8670189 C13.7824506,24.8670189 10.7164424,21.8477934 10.7164424,18.131932 C10.7164424,14.4160705 13.7824506,11.3982551 17.5563292,11.3982551 C21.3316379,11.3982551 24.3965021,14.4160705 24.3965021,18.131932 C24.3965021,21.8477934 21.3419342,24.8670189 17.5563292,24.8670189 M17.5563292,8.56517522 C12.196535,8.56517522 7.84920987,12.8465245 7.84920987,18.131932 C7.84920987,23.4187496 12.196535,27.6902275 17.5563292,27.6902275 C22.9161234,27.6902275 27.2634486,23.4088783 27.2634486,18.1220606 C27.2634486,12.8352429 22.9261338,8.56517522 17.5563292,8.56517522" id="Shape" fill="#FFFFFF"></path>
                <path d="M68.4171729,26.8583309 C61.7345904,26.8889551 61.7345904,21.540089 61.7345904,20.6883318 L61.7231501,0.650883899 L65.7999115,0.0134761677 L65.7999115,19.9282372 C65.7999115,20.4119338 65.7999115,23.4706448 68.4168868,23.4805161 L68.4168868,26.8579311 L68.4171729,26.8583309 Z M51.8916174,23.5834603 C53.1426174,23.5834603 54.071,23.5115404 54.7173785,23.3888535 L54.7173785,19.3035212 C54.3946449,19.2188968 54.0670537,19.1534403 53.7363703,19.1075042 C53.267093,19.0388793 52.7933229,19.0044712 52.3189137,19.0045601 C51.8698807,19.0045601 51.4108375,19.0355843 50.9532243,19.1075042 C50.4941811,19.1695528 50.0766091,19.2922397 49.7119486,19.4671037 C49.3472881,19.6419678 49.0441193,19.8887517 48.825323,20.2060454 C48.5965165,20.5247493 48.4921234,20.7094847 48.4921234,21.1917711 C48.4921234,22.135191 48.825323,22.6809361 49.4302303,23.0391254 C50.035138,23.3987249 50.8588417,23.5834603 51.8916174,23.5834603 Z M51.536967,9.00628391 C52.8812059,9.00628391 54.0178024,9.17127662 54.9358889,9.49985184 C55.8528312,9.82842706 56.5935926,10.2895606 57.1352922,10.8747911 C57.688718,11.469893 58.0633889,12.2610119 58.2924816,13.1028978 C58.5327284,13.9447836 58.6471317,14.8684608 58.6471317,15.8838005 L58.6471317,26.2120621 C58.0222037,26.3446203 57.0723703,26.4983315 55.8013499,26.6830669 C54.5297573,26.8678023 53.1014321,26.9608751 51.5152303,26.9608751 C50.4627202,26.9608751 49.4931523,26.8579311 48.6279775,26.6633242 C47.751362,26.4687174 47.0120308,26.1500136 46.3856729,25.7086228 C45.7707551,25.267232 45.2916913,24.7017442 44.9370412,24.0051083 C44.5924013,23.305652 44.4150761,22.3213366 44.4150761,21.2947153 C44.4150761,20.3089896 44.6124219,19.6828634 44.9999629,19.0045601 C45.3946542,18.3276669 45.9266297,17.7734606 46.5944588,17.3419412 C47.2722982,16.9104218 48.0430904,16.6029995 48.9297161,16.4182641 C49.8163417,16.2335287 50.7444382,16.1404559 51.702566,16.1404559 C52.1515987,16.1404559 52.6206523,16.1714801 53.1211666,16.2222471 C53.6116707,16.2744243 54.143646,16.3674971 54.7070822,16.5000554 L54.7070822,15.8429049 C54.7070822,15.3817714 54.6541707,14.9403807 54.5397675,14.5300142 C54.4298062,14.1256018 54.2300217,13.7503644 53.9548807,13.431473 C53.6731625,13.1127691 53.3099321,12.8659852 52.8508889,12.6925313 C52.3918458,12.5176672 51.8069588,12.3836988 51.1090987,12.3836988 C50.1709918,12.3836988 49.3158271,12.4965143 48.5335946,12.6304827 C47.751362,12.763041 47.1049835,12.9181623 46.6144794,13.0916162 L46.1254054,9.79740281 C46.6359299,9.62253873 47.3967119,9.44767466 48.3777202,9.2742208 C49.3572982,9.08807516 50.4112386,9.00628391 51.5366811,9.00628391 L51.536967,9.00628391 Z M132.051144,23.4706448 C133.30243,23.4706448 134.229097,23.3987249 134.875475,23.2746278 L134.875475,19.1907057 C134.646669,19.1286571 134.323479,19.0567372 133.895897,18.9946887 C133.426234,18.9260806 132.952085,18.8916729 132.477296,18.8917445 C132.029694,18.8917445 131.57065,18.9227688 131.111607,18.9946887 C130.653994,19.0567372 130.236422,19.1794241 129.871761,19.3542882 C129.505671,19.5291523 129.203932,19.7759362 128.985136,20.0932299 C128.754899,20.4119338 128.651936,20.5966692 128.651936,21.0789556 C128.651936,22.0223754 128.985136,22.5681205 129.590043,22.9263098 C130.204961,23.2957807 131.018654,23.4706448 132.051144,23.4706448 Z M131.706504,8.90474995 C133.050743,8.90474995 134.187339,9.06833246 135.105426,9.39690769 C136.022082,9.72548291 136.762844,10.1866164 137.304829,10.7718469 C137.846815,11.3570775 138.232926,12.1580677 138.461733,12.9999536 C138.701979,13.8418395 138.816383,14.7655166 138.816383,15.7822665 L138.816383,26.1091179 C138.191455,26.2416762 137.241907,26.3953873 135.970601,26.581533 C134.699294,26.7662684 133.270683,26.8579311 131.684767,26.8579311 C130.632257,26.8579311 129.662689,26.7549869 128.7978,26.56038 C127.921185,26.3657732 127.181854,26.0470694 126.555496,25.6056786 C125.940578,25.1642879 125.461514,24.5988 125.106864,23.9021642 C124.762224,23.2041181 124.584899,22.2183924 124.584899,21.1917711 C124.584899,20.2060454 124.783675,19.5799193 125.169786,18.9016159 C125.564477,18.2247227 126.096453,17.6705164 126.764282,17.2389971 C127.442121,16.8088878 128.212914,16.5000554 129.099539,16.3153199 C129.986165,16.1305845 130.914261,16.0389219 131.873819,16.0389219 C132.321422,16.0389219 132.790475,16.0699461 133.29099,16.1207131 C133.791504,16.1714801 134.313469,16.2645529 134.875475,16.3985214 L134.875475,15.7413709 C134.875475,15.2788273 134.823994,14.8374365 134.70959,14.42707 C134.599944,14.0225365 134.400124,13.6472338 134.124704,13.3285288 C133.842986,13.0098249 133.479755,12.763041 133.020712,12.5895871 C132.561383,12.4147231 131.976782,12.2821648 131.278922,12.2821648 C130.340815,12.2821648 129.48565,12.3949803 128.703418,12.5275386 C127.921185,12.661507 127.274806,12.8152182 126.784302,12.9900822 L126.295228,9.69445863 C126.805753,9.51959457 127.566535,9.34614071 128.547543,9.17127662 C129.527121,8.99641256 130.579632,8.90474995 131.706504,8.90474995 Z M119.465352,6.99534713 C120.830755,6.99534713 121.947903,5.90667731 121.947903,4.56135214 C121.947903,3.21743716 120.842195,2.12876731 119.465352,2.12876731 C118.089652,2.12876731 116.98423,3.21743716 116.98423,4.56135214 C116.98423,5.90667731 118.099662,6.99534713 119.465352,6.99534713 Z M121.518891,26.8579311 L117.421537,26.8579311 L117.421537,9.52946592 L121.518605,8.8934684 L121.518605,26.8579311 L121.518891,26.8579311 Z M114.335508,26.8583309 C107.652926,26.8889551 107.652926,21.540089 107.652926,20.6883318 L107.641486,0.650883899 L111.718533,0.0134761677 L111.718533,19.9282372 C111.718533,20.4119338 111.718533,23.4706448 114.335508,23.4805161 L114.335508,26.8583309 Z M101.083317,17.9892203 C101.083317,16.2532714 100.697206,14.8064122 99.9467202,13.8009439 C99.1959486,12.7841939 98.1434382,12.2821648 96.7977697,12.2821648 C95.4535308,12.2821648 94.3993046,12.7841939 93.6499629,13.8009439 C92.8991913,14.8162836 92.5333868,16.2532714 92.5333868,17.9892203 C92.5333868,19.744912 92.9094876,20.9238342 93.6602592,21.9405842 C94.4110308,22.9672055 95.4635412,23.4706448 96.80921,23.4706448 C98.1534486,23.4706448 99.2073889,22.9573341 99.9581605,21.9405842 C100.708646,20.9139629 101.083317,19.744912 101.083317,17.9892203 Z M105.253317,17.979349 C105.253317,19.3345455 105.055971,20.3597566 104.648695,21.4794507 C104.242564,22.5977346 103.669117,23.552436 102.929786,24.3435549 C102.189025,25.1332636 101.302399,25.7495184 100.259613,26.1810378 C99.2173991,26.611147 97.611177,26.8579311 96.8089239,26.8579311 C96.0052408,26.8480596 94.4107449,26.6224286 93.3782551,26.1810378 C92.3457655,25.7396471 91.4591399,25.1332636 90.7198087,24.3435549 C89.9790473,23.552436 89.4058868,22.5977346 88.9883147,21.4794507 C88.5718868,20.3597566 88.3633868,19.3345455 88.3633868,17.979349 C88.3633868,16.6241524 88.5504362,15.3197229 88.9680082,14.2113103 C89.3855803,13.1028978 89.9690371,12.1580677 90.7198087,11.368359 C91.4705803,10.5772401 92.3672161,9.97085668 93.3882655,9.54074747 C94.4207551,9.10922809 95.557638,8.90474995 96.7874733,8.90474995 C98.0187386,8.90474995 99.1541913,9.11909944 100.196691,9.54074747 C101.240621,9.97085668 102.137543,10.5772401 102.866864,11.368359 C103.60591,12.1580677 104.179642,13.1028978 104.597214,14.2113103 C105.034806,15.3197229 105.253603,16.6241524 105.253603,17.979349 L105.253317,17.979349 Z M74.56921,17.979349 C74.56921,19.6617105 74.9438807,21.5302177 75.6946523,22.310055 C76.4454239,23.0913026 77.4147059,23.4805161 78.6047859,23.4805161 C79.2511647,23.4805161 79.8660822,23.3888535 80.4392427,23.2139894 C81.0126894,23.0391254 81.4705885,22.833237 81.8366789,22.5878633 L81.8366789,12.6206114 C81.5449505,12.5585628 80.3248395,12.3117789 79.1453417,12.2821648 C77.665249,12.239859 76.5398065,12.8363711 75.7475638,13.7896623 C74.9650454,14.7457739 74.56921,16.4182641 74.56921,17.979349 Z M85.9022859,25.9032296 C85.9022859,28.6446469 85.1929857,30.6457123 83.7640885,31.9191175 C82.3369074,33.1911127 80.1575247,33.8285203 77.2173601,33.8285203 C76.1433991,33.8285203 73.9125349,33.6226321 72.1292738,33.2334186 L72.7856625,30.0506103 C74.2771954,30.3580327 76.2477922,30.4412342 77.280282,30.4412342 C78.916249,30.4412342 80.0845926,30.112659 80.7824527,29.4555086 C81.4817427,28.7983579 81.8249527,27.8239139 81.8249527,26.5293559 L81.8249527,25.8722053 C81.4188211,26.0668121 80.8868458,26.2628291 80.2304568,26.4687174 C79.5740679,26.6633242 78.8132859,26.7662684 77.9566913,26.7662684 C76.831249,26.7662684 75.8087697,26.5914043 74.8821028,26.2416762 C73.954006,25.8933582 73.150323,25.3800476 72.493934,24.7017442 C71.8375454,24.024851 71.3155803,23.1730938 70.9509197,22.1563439 C70.5862592,21.1395939 70.397494,19.3232639 70.397494,17.9892203 C70.397494,16.7369679 70.5962697,15.1660117 70.9826666,14.1182375 C71.3785019,13.0718735 71.9407941,12.1679391 72.7027202,11.419126 C73.4537779,10.670313 74.3715781,10.0949538 75.445539,9.67330573 C76.5195,9.25306787 77.7793661,8.9865412 79.1450555,8.9865412 C80.4707037,8.9865412 81.6905289,9.15012372 82.8788931,9.34614071 C84.0672573,9.54074747 85.0782963,9.74522564 85.902,9.97085668 L85.902,25.9032296 L85.9022859,25.9032296 Z" id="Shape" fill="#CCCDE5"></path>
            </g>
        </g>
    </g>
</svg>