<?xml version="1.0" encoding="UTF-8"?>
<svg width="177px" height="34px" viewBox="0 0 177 34" version="1.1" xmlns="http://www.w3.org/2000/svg" xmlns:xlink="http://www.w3.org/1999/xlink">
    <!-- Generator: Sketch 53.2 (72643) - https://sketchapp.com -->
    <title>bloomberg-quint-seeklogo.com</title>
    <desc>Created with Sketch.</desc>
    <g id="Page-1" stroke="none" stroke-width="1" fill="none" fill-rule="evenodd">
        <g id="Artboard" transform="translate(-672.000000, -5661.000000)" fill="#CCCEE6" fill-rule="nonzero">
            <g id="bloomberg-quint-seeklogo.com" transform="translate(672.000000, 5661.000000)">
                <path d="M12.3791411,20.8459016 C13.953681,20.8459016 15.0395706,19.842623 15.0395706,18.2262295 C15.0395706,16.4983607 13.845092,15.6065574 12.3248466,15.6065574 L7.11257669,15.6065574 L7.11257669,20.8459016 L12.3791411,20.8459016 L12.3791411,20.8459016 Z M11.6733129,10.4786885 C13.0849693,10.4786885 14.0079755,9.75409836 14.0079755,8.30491803 C14.0079755,6.91147541 13.0306748,6.07540984 11.6190184,6.07540984 L7.11257669,6.07540984 L7.11257669,10.4786885 L11.6733129,10.4786885 Z M2.84217094e-14,0.0557377049 L12.9763804,0.0557377049 C15.3653374,0.0557377049 17.2656442,0.668852459 18.5687117,1.78360656 C20.0889571,3.00983607 20.9576687,4.90491803 20.9576687,7.13442623 C20.9576687,9.69836066 19.9803681,11.3147541 17.8628834,12.3180328 L17.8628834,12.3737705 C20.5776074,13.3213115 22.1521472,15.7737705 22.1521472,18.895082 C22.1521472,21.8491803 21.1205521,24.0229508 19.2745399,25.304918 C17.7542945,26.4754098 15.7996933,27.0327869 13.2478528,27.0327869 L2.84217094e-14,27.0327869 L2.84217094e-14,0.0557377049 Z M23.4552147,0.0557377049 L30.2420245,0.0557377049 L30.2420245,27.0327869 L23.4552147,27.0327869 L23.4552147,0.0557377049 Z M44.1957055,17.4459016 C44.1957055,14.2131148 43.1641104,12.0393443 41.1009202,12.0393443 C39.0377301,12.0393443 38.0604294,14.2131148 38.0604294,17.4459016 C38.0604294,20.6786885 39.0377301,22.852459 41.1009202,22.852459 C43.1641104,22.852459 44.1957055,20.6786885 44.1957055,17.4459016 L44.1957055,17.4459016 Z M31.3822086,17.4459016 C31.3822086,11.5377049 35.2371166,7.24590164 41.2095092,7.24590164 C47.1819018,7.24590164 50.9282209,11.6491803 50.9282209,17.4459016 C50.9282209,23.242623 47.1819018,27.6459016 41.2095092,27.6459016 C35.2371166,27.6459016 31.3822086,23.242623 31.3822086,17.4459016 L31.3822086,17.4459016 Z M64.3932515,17.4459016 C64.3932515,14.2131148 63.3616564,12.0393443 61.2984663,12.0393443 C59.2352761,12.0393443 58.2579755,14.2131148 58.2579755,17.4459016 C58.2579755,20.6786885 59.2352761,22.852459 61.2984663,22.852459 C63.3616564,22.852459 64.3932515,20.6786885 64.3932515,17.4459016 L64.3932515,17.4459016 Z M51.6340491,17.4459016 C51.6340491,11.5377049 55.4889571,7.24590164 61.4613497,7.24590164 C67.4337423,7.24590164 71.1800613,11.6491803 71.1800613,17.4459016 C71.1800613,23.242623 67.4337423,27.6459016 61.4613497,27.6459016 C55.4889571,27.6459016 51.6340491,23.242623 51.6340491,17.4459016 L51.6340491,17.4459016 Z M72.5917178,7.80327869 L78.8355828,7.80327869 L78.8355828,10.6459016 L78.8898773,10.6459016 C80.1929448,8.41639344 81.8217791,7.19016393 84.5365031,7.19016393 C86.9254601,7.19016393 88.6628834,8.41639344 89.5858896,10.5344262 L89.640184,10.5344262 C91.1604294,7.9704918 93.1693252,7.19016393 95.4496933,7.19016393 C99.847546,7.19016393 101.693558,10.5344262 101.693558,14.9377049 L101.693558,27.0327869 L95.0696319,27.0327869 L95.0696319,16.2196721 C95.0696319,14.2688525 94.4723926,12.9868852 92.7892638,12.9868852 C91.106135,12.9868852 90.2917178,14.547541 90.2917178,16.6098361 L90.2917178,27.0327869 L83.6677914,27.0327869 L83.6677914,16.2196721 C83.6677914,14.2688525 83.0705521,12.9868852 81.3874233,12.9868852 C79.7042945,12.9868852 78.8898773,14.547541 78.8898773,16.6098361 L78.8898773,27.0327869 L72.2659509,27.0327869 L72.2659509,7.74754098 L72.5917178,7.74754098 L72.5917178,7.80327869 Z M116.570245,17.2786885 C116.570245,14.2688525 115.53865,12.3180328 113.47546,12.3180328 C111.41227,12.3180328 110.109202,14.4918033 110.109202,17.2786885 C110.109202,20.1213115 111.466564,22.2393443 113.47546,22.2393443 C115.484356,22.2393443 116.570245,20.3442623 116.570245,17.2786885 L116.570245,17.2786885 Z M110.163497,24.5803279 L110.109202,27.0327869 L103.865337,27.0327869 L103.865337,1.27897692e-13 L110.489264,1.27897692e-13 L110.489264,9.75409836 L110.543558,9.75409836 C111.846626,8.02622951 113.421166,7.13442623 115.810123,7.13442623 C120.642331,7.13442623 123.357055,11.7606557 123.357055,17.3344262 C123.357055,23.9114754 120.479448,27.6459016 115.755828,27.6459016 C113.421166,27.6459016 111.303681,26.7540984 110.163497,24.5803279 L110.163497,24.5803279 Z M130.903988,15.3836066 L137.093558,15.3836066 C136.767791,13.2098361 135.681902,11.9836066 134.161656,11.9836066 C132.26135,11.8721311 131.284049,13.2655738 130.903988,15.3836066 L130.903988,15.3836066 Z M124.442945,17.3901639 C124.442945,11.5934426 128.297853,7.19016393 133.944479,7.19016393 C136.713497,7.19016393 138.830982,8.19344262 140.51411,9.80983607 C142.68589,11.9836066 143.66319,15.3836066 143.608896,19.2295082 L130.849693,19.2295082 C131.229755,21.4590164 132.369939,22.7967213 134.32454,22.7967213 C135.464724,22.7967213 136.279141,22.3508197 136.822086,21.347541 L143.228834,21.347541 C142.848773,23.0754098 141.545706,24.747541 139.808282,25.9737705 C138.125153,27.1442623 136.442025,27.5901639 134.053067,27.5901639 C128.352147,27.5901639 124.442945,23.242623 124.442945,17.3901639 L124.442945,17.3901639 Z M150.721472,10.6459016 L150.775767,10.6459016 C152.187423,8.24918033 153.924847,7.30163934 156.205215,7.30163934 C156.74816,7.30163934 157.128221,7.35737705 157.23681,7.46885246 L157.23681,13.6 L157.073926,13.6 C153.219018,12.9311475 150.884356,14.7704918 150.884356,19.1180328 L150.884356,27.0327869 L144.260429,27.0327869 L144.260429,7.74754098 L150.504294,7.74754098 L150.504294,10.5901639 C150.612883,10.6459016 150.721472,10.6459016 150.721472,10.6459016 Z M170.484663,16.6655738 C170.484663,14.2688525 169.344479,12.3180328 167.444172,12.3180328 C165.543865,12.3180328 164.403681,14.0459016 164.403681,16.6655738 C164.403681,19.2295082 165.59816,21.0688525 167.444172,21.0688525 C169.344479,21.0688525 170.484663,19.2295082 170.484663,16.6655738 L170.484663,16.6655738 Z M158.376994,27.3672131 L164.729448,27.3672131 C164.946626,28.147541 165.761043,28.9836066 167.389877,28.9836066 C169.507362,28.9836066 170.267485,27.5901639 170.267485,25.6393443 L170.267485,23.9114754 L170.104601,23.9114754 C169.073006,25.2491803 167.715644,26.0852459 165.59816,26.0852459 C161.526074,26.0852459 157.996933,22.9639344 157.996933,16.9442623 C157.996933,11.4262295 160.87454,7.13442623 165.326687,7.13442623 C167.824233,7.13442623 169.398773,8.19344262 170.376074,9.86557377 L170.430368,9.86557377 L170.430368,7.74754098 L176.674233,7.74754098 L176.674233,24.6918033 C176.674233,27.757377 175.642638,30.2098361 174.013804,31.6032787 C172.330675,33.1639344 169.996012,33.7213115 167.389877,33.7213115 C162.44908,33.7770492 158.974233,31.6032787 158.376994,27.3672131 L158.376994,27.3672131 Z" id="Shape"></path>
            </g>
        </g>
    </g>
</svg>