<?xml version="1.0" encoding="UTF-8"?>
<svg width="84px" height="26px" viewBox="0 0 84 26" version="1.1" xmlns="http://www.w3.org/2000/svg" xmlns:xlink="http://www.w3.org/1999/xlink">
    <!-- Generator: Sketch 53.2 (72643) - https://sketchapp.com -->
    <title>Group 32</title>
    <desc>Created with Sketch.</desc>
    <defs>
        <polygon id="path-1" points="0.0195360597 6.05359185e-06 7.15907406 6.05359185e-06 7.15907406 10.5377909 0.0195360597 10.5377909"></polygon>
        <polygon id="path-3" points="0.00298324838 0.0184155574 7.14226684 0.0184155574 7.14226684 10.38191 0.00298324838 10.38191"></polygon>
    </defs>
    <g id="Page-1" stroke="none" stroke-width="1" fill="none" fill-rule="evenodd">
        <g id="Artboard" transform="translate(-900.000000, -5832.000000)">
            <g id="Group-32" transform="translate(900.000000, 5832.000000)">
                <g id="Group-3" transform="translate(76.676659, 0.000000)">
                    <mask id="mask-2" fill="white">
                        <use xlink:href="#path-1"></use>
                    </mask>
                    <g id="Clip-2"></g>
                    <path d="M3.81671957,6.05359185e-06 C4.04395679,0.0297291896 4.27172153,0.0564557976 4.49843123,0.0898110887 C5.20602243,0.193811797 5.87398753,0.409773686 6.48482526,0.77813475 C6.53714288,0.809643696 6.59790084,0.879623218 6.59870763,0.93253161 C6.60693075,1.46709404 6.60357944,2.00180781 6.60295883,2.53649131 C6.6029278,2.55480342 6.59765259,2.57314581 6.59094998,2.61618684 C6.525103,2.57129946 6.47585741,2.53900355 6.42791511,2.50492183 C5.71396263,1.99732815 4.93462864,1.64394972 4.04526007,1.55974426 C3.53769224,1.51170901 3.0325448,1.51637028 2.54632603,1.69737267 C1.8524814,1.9556189 1.55530116,2.59754178 1.83066687,3.23713403 C1.93582964,3.48139646 2.11807246,3.66427547 2.35548773,3.7727861 C2.72853783,3.94328552 3.11378296,4.08914681 3.49713522,4.23727821 C4.15436373,4.49128692 4.82716961,4.71100204 5.46922414,4.99691318 C6.16229301,5.30552529 6.71224867,5.7912655 6.95770086,6.52005743 C7.2685656,7.44316965 7.25305029,8.35111762 6.67305699,9.18524204 C6.25358509,9.78848247 5.64218881,10.1460984 4.93407009,10.3258296 C3.30089759,10.7404098 1.73952994,10.5473607 0.261665693,9.74196062 C0.13915681,9.6751895 0.0918661469,9.59464646 0.0947519945,9.45417286 C0.104464578,8.97515214 0.0984756687,8.49582873 0.0984756687,8.01665667 L0.0984756687,7.82272986 C0.180458564,7.88099568 0.233055462,7.91783178 0.28506278,7.95539432 C1.31127637,8.69620263 2.45593384,9.06435181 3.7374984,8.98762254 C4.19138326,8.96044191 4.63170774,8.87100009 4.99852068,8.58339394 C5.55552029,8.14671809 5.58102746,7.25959447 5.05148995,6.78977521 C4.72666143,6.50165451 4.32189804,6.35597482 3.92082729,6.20726834 C3.22598968,5.94956693 2.52299101,5.7115397 1.83588001,5.43564725 C1.3491027,5.24017677 0.9219352,4.94385345 0.587332037,4.53744556 C0.147379924,4.00309501 0.0054458736,3.37899995 0.0206198462,2.7103202 C0.0504092402,1.3982647 0.956720523,0.521492724 2.23325812,0.187122578 C2.53577562,0.10788106 2.85284648,0.0818203475 3.16299752,0.0300016012 C3.19551761,0.0245836365 3.22648617,0.0102063559 3.25816843,6.05359185e-06 L3.81671957,6.05359185e-06 Z" id="Fill-1" fill="#CCCEE5" mask="url(#mask-2)"></path>
                </g>
                <path d="M69.8498764,6.05359185e-06 C70.0768343,0.0299713333 70.3043198,0.0567887452 70.5306881,0.0904769838 C71.2380931,0.195748946 71.9059031,0.412437266 72.5167098,0.780828599 C72.5692136,0.812488884 72.6309956,0.881863047 72.6318024,0.934559564 C72.6400875,1.46915226 72.6366742,2.0038963 72.6359915,2.53864033 C72.6359605,2.55689191 72.630468,2.57511322 72.6235792,2.61815426 C72.5570496,2.57356956 72.5072455,2.54190927 72.4592721,2.50782755 C71.7409443,1.99702547 70.9569868,1.64043864 70.0618155,1.5590481 C69.4962204,1.5076531 68.9376693,1.52151583 68.4076973,1.76838131 C67.5609338,2.16289389 67.5794901,3.29325083 68.2611397,3.69645031 C68.523938,3.85190655 68.8105058,3.97515768 69.0979424,4.08366831 C69.7141174,4.31633812 70.3395085,4.52570159 70.9581039,4.75255994 C71.4251457,4.92384633 71.8630808,5.14970584 72.2427405,5.47075808 C72.9305962,6.05247799 73.1823786,6.80996394 73.1723557,7.67326667 C73.1585161,8.86724686 72.4820486,9.78118789 71.2738094,10.22761 C70.4326314,10.5384014 69.5607951,10.5867091 68.6770741,10.4920612 C67.8523423,10.4037393 67.0679814,10.1848717 66.3432613,9.77682931 C66.18184,9.68593463 66.114938,9.5869584 66.1208028,9.3982074 C66.1368456,8.88522603 66.1263262,8.37145769 66.1263262,7.82799648 C66.1876427,7.86991761 66.2279515,7.89579671 66.2664605,7.92400645 C67.3050243,8.6847008 68.4655074,9.06671271 69.7707172,8.98759227 C70.1765046,8.96298442 70.5708418,8.88334942 70.9181675,8.65954813 C71.6009342,8.2195428 71.6500556,7.2383161 71.0138349,6.73577717 C70.6954607,6.48434123 70.3176009,6.34420058 69.9402065,6.2048469 C69.2402178,5.94635853 68.5356055,5.69891796 67.8414816,5.42617338 C67.4711622,5.28064503 67.1419584,5.05835714 66.8500223,4.78782212 C66.3177851,4.29457545 66.0817352,3.6783198 66.0494634,2.97519511 C65.9904431,1.68841336 66.6839775,0.693989824 67.9719654,0.279621461 C68.3653095,0.153101392 68.787388,0.11145268 69.1961233,0.0300318692 C69.2286123,0.0235847939 69.2596119,0.0101760879 69.2913252,6.05359185e-06 L69.8498764,6.05359185e-06 Z" id="Fill-4" fill="#CCCEE5"></path>
                <g id="Group-8" transform="translate(26.934577, 15.466927)">
                    <mask id="mask-4" fill="white">
                        <use xlink:href="#path-3"></use>
                    </mask>
                    <g id="Clip-7"></g>
                    <path d="M3.0719723,10.3819161 C2.84476611,10.3519811 2.61728065,10.3241043 2.39044682,10.2917478 C1.63128273,10.1836307 0.910813826,9.9664278 0.250854625,9.57451827 C0.157018034,9.51879495 0.114785362,9.45946975 0.116274832,9.34775072 C0.122760231,8.85350521 0.118881404,8.35907809 0.119439955,7.86474178 C0.119502016,7.82139807 0.124653099,7.77808462 0.128811202,7.71364413 C0.190003582,7.75492963 0.235680653,7.78401714 0.279464856,7.81555635 C1.23703872,8.50493939 2.30331284,8.87432957 3.50084648,8.85350521 C3.89608348,8.84663438 4.28421446,8.79699493 4.64928969,8.63621153 C5.08334598,8.44509964 5.35576378,8.13327912 5.39467618,7.65819323 C5.43383682,7.17950545 5.2591965,6.78544689 4.83119117,6.54245572 C4.51626142,6.36369315 4.17660027,6.22176669 3.83734251,6.0893141 C3.11867338,5.80873012 2.38287535,5.56791823 1.67351541,5.26726659 C1.10410355,5.02594015 0.637651289,4.63863135 0.340781359,4.09011539 C-0.447706665,2.63325797 0.191617174,0.952357124 1.76474542,0.33243905 C2.61380522,-0.00214297152 3.49401975,-0.0359220141 4.38729817,0.0761602391 C5.11791409,0.167841888 5.805956,0.387859684 6.44344903,0.753920383 C6.54069899,0.809764768 6.57684966,0.872691855 6.57551535,0.982382939 C6.56968159,1.461555 6.57315702,1.94081787 6.57275362,2.4200202 C6.57269156,2.46430222 6.56896789,2.50855398 6.5654304,2.58540433 C6.48642644,2.53098254 6.42579261,2.48972731 6.3656863,2.44774565 C5.72226642,1.99847833 5.02451193,1.67173571 4.2341931,1.5598048 C3.69758061,1.48377168 3.16124739,1.47214879 2.63769879,1.63701836 C2.18918223,1.77824866 1.83689161,2.02777772 1.7550949,2.51554588 C1.6800939,2.96296685 1.79987208,3.35853881 2.20255642,3.61421227 C2.44664327,3.76921448 2.71893695,3.88937828 2.99147888,3.99283417 C3.75638363,4.28325524 4.5359969,4.53802065 5.29444728,4.84318222 C5.89240731,5.08375196 6.3973065,5.46228305 6.73060638,6.02021235 C7.68101217,7.61115682 6.92439259,9.51570762 5.09222074,10.0994252 C4.67451758,10.2325134 4.22463567,10.269622 3.78964845,10.3514665 C3.74654692,10.3595783 3.70422116,10.3716552 3.66155406,10.3819161 L3.0719723,10.3819161 Z" id="Fill-6" fill="#CCCEE5" mask="url(#mask-4)"></path>
                </g>
                <path d="M1.72133669,4.44289451 C1.74439244,4.451309 1.75866653,4.46114609 1.77290958,4.46105528 C2.53734887,4.45630321 3.3022226,4.46305297 4.06610334,4.4395953 C4.39772756,4.429395 4.72013569,4.33087279 4.98917116,4.12499013 C5.4520549,3.7707642 5.5175295,3.28329872 5.44001502,2.7597841 C5.37153044,2.29731995 5.09545103,1.98207915 4.64404861,1.84563119 C4.3714136,1.76324181 4.08016021,1.71151386 3.79520604,1.7014649 C3.1604437,1.67909688 2.52434704,1.69138567 1.88880894,1.69035656 C1.83425711,1.69026576 1.77967426,1.6960772 1.72133669,1.69934614 L1.72133669,4.44289451 Z M1.7205299,8.86271272 C1.76633109,8.86731345 1.7967411,8.87300383 1.8271511,8.87300383 C2.55593621,8.87348812 3.28475236,8.87551607 4.0135685,8.87233793 C4.33650415,8.87094561 4.65245791,8.82206285 4.94790043,8.68727963 C5.53593066,8.41895417 5.78640981,7.95019429 5.77027389,7.33433212 C5.75491374,6.74728505 5.49552879,6.29511201 4.9220209,6.08090566 C4.64352109,5.97690495 4.33253223,5.92015253 4.0338315,5.91004303 C3.32136849,5.88591947 2.6075091,5.90226416 1.89420827,5.90226416 L1.7205299,5.90226416 L1.7205299,8.86271272 Z M0.00785695268,10.3761712 C0.00521935008,10.3158472 0.000285481693,10.2555231 0.000285481693,10.1951991 C-8.68857326e-05,6.91954001 -8.68857326e-05,3.64394145 0.000285481693,0.368312635 C0.000285481693,0.307958325 0.0052503807,0.247634282 0.00791901392,0.187279971 C1.2232332,0.187158899 2.43860945,0.180530216 3.6538926,0.189307924 C4.41432894,0.194786425 5.16073945,0.289373798 5.84307172,0.652468237 C6.70668488,1.11193586 7.11858531,1.84348217 7.16634143,2.78411954 C7.19876843,3.42237999 7.0638473,4.01690325 6.64757155,4.53073213 C6.44168339,4.78489218 6.18208124,4.96988995 5.86001444,5.11024247 C5.90218505,5.13385148 5.92520977,5.14962109 5.95040664,5.16039648 C7.03210298,5.62331465 7.61917125,6.65318196 7.49905173,7.80057976 C7.34991857,9.22459644 6.40534654,10.0468861 4.99708396,10.28567 C4.65261307,10.3440872 4.2985537,10.3700571 3.94859039,10.3726601 C2.63509532,10.3824064 1.32144511,10.3763226 0.00785695268,10.3761712 L0.00785695268,10.3761712 Z" id="Fill-9" fill="#CCCEE5"></path>
                <path d="M47.2123138,24.1538375 L47.3930982,24.1538375 C48.0288225,24.1538375 48.6646399,24.1596793 49.30024,24.1510226 C49.5678791,24.1473905 49.8387764,24.1337094 50.101854,24.0890944 C51.1941939,23.9039755 51.976755,23.3243139 52.3799048,22.3054641 C52.7385257,21.3991203 52.7584474,20.4626599 52.5411089,19.5250493 C52.2184525,18.133268 51.2495215,17.2957233 49.7893447,17.1951429 C48.9508973,17.1373614 48.1058715,17.1710193 47.2637936,17.1641485 C47.2495816,17.1640274 47.2353385,17.1722301 47.2123138,17.1791917 L47.2123138,24.1538375 Z M45.4615663,25.6721086 L45.4615663,15.6614654 C45.5224174,15.6587413 45.5773726,15.6541708 45.6323588,15.6541708 C46.9250324,15.6537471 48.217861,15.6413675 49.5103173,15.657349 C50.80116,15.6733305 51.9796409,16.017568 52.9450034,16.8980326 C53.6217192,17.5151963 54.0415634,18.2812481 54.2535336,19.1549933 C54.5269754,20.2818997 54.5181627,21.4085336 54.1533978,22.5138892 C53.6094621,24.1621007 52.4454105,25.1669969 50.7193323,25.5388086 C50.3141035,25.6261316 49.8904424,25.6610306 49.474508,25.6662972 C48.2079312,25.682309 46.9409821,25.6721086 45.6741881,25.6721086 L45.4615663,25.6721086 Z" id="Fill-11" fill="#CCCEE5"></path>
                <path d="M51.0036845,10.5316305 C48.6209053,8.27412501 46.2597545,6.03711095 43.8609015,3.76435042 L43.8609015,3.97680123 C43.8608705,6.04004694 43.8609015,8.10329265 43.8608394,10.1665686 C43.8608394,10.3764467 43.8604981,10.3765677 43.6397463,10.376598 C43.2053176,10.3766888 42.7707959,10.3709076 42.3365534,10.3798064 C42.1935643,10.3827424 42.1525728,10.3418504 42.1530383,10.2027086 C42.1576929,8.76498051 42.1558621,7.32728271 42.1558621,5.88955465 L42.1558621,0.274878472 L42.1558621,0.0821321075 C42.167933,0.0759271758 42.1800349,0.0696919762 42.1921058,0.0634870446 C44.5522327,2.26048687 46.9122974,4.45748669 49.3024308,6.68242384 L49.3024308,0.195909366 L51.0036845,0.195909366 L51.0036845,10.5316305 Z" id="Fill-13" fill="#CCCEE5"></path>
                <path d="M71.399772,17.1610521 L71.399772,20.1887258 C71.7962812,20.1887258 72.1785785,20.1927514 72.5607205,20.1876362 C72.968587,20.1821879 73.3799289,20.1980483 73.7833269,20.1516778 C74.7042846,20.04574 75.2493995,19.3580822 75.1507222,18.4715337 C75.0703218,17.7492191 74.5435771,17.2182585 73.7511171,17.1711011 C72.9743587,17.1249122 72.1924802,17.1610521 71.399772,17.1610521 L71.399772,17.1610521 Z M69.6436872,15.6613958 C69.7033281,15.6585809 69.753908,15.6541618 69.8044568,15.6541315 C71.0246118,15.653738 72.2448288,15.6491675 73.4649838,15.6560081 C73.994211,15.6589744 74.5149048,15.7316477 75.0163285,15.9103498 C76.1774012,16.3240522 76.8771417,17.2616931 76.8876921,18.4675383 C76.8911365,18.8579647 76.8684531,19.2576834 76.7851048,19.6380003 C76.5589537,20.6702285 75.8585306,21.2540672 74.8261419,21.4890676 C74.7311882,21.5106789 74.6353656,21.5283251 74.5086986,21.5542042 C75.744493,22.9270681 76.9649583,24.2829516 78.2052832,25.6609004 C78.1276135,25.6658946 78.0792989,25.6716455 78.0309221,25.6717061 C77.4777083,25.6723114 76.9244634,25.6687398 76.3713115,25.6748237 C76.2557225,25.6760949 76.1817765,25.6391378 76.1079857,25.5554771 C74.9784712,24.2754149 73.8450468,22.9986821 72.7160908,21.7181961 C72.6442239,21.6366844 72.5721708,21.6071732 72.464929,21.608959 C72.1139106,21.6148612 71.762644,21.6111685 71.3894388,21.6111685 L71.3894388,25.6607491 L69.6436872,25.6607491 L69.6436872,15.6613958 Z" id="Fill-15" fill="#CCCEE5"></path>
                <path d="M22.5425809,25.8295717 C20.1733311,23.6047858 17.8298367,21.4041841 15.4607421,19.1795497 L15.4607421,25.6584971 L13.7656635,25.6584971 L13.7656635,15.502144 C16.1292967,17.6831018 18.4755839,19.8481386 20.8489918,22.0381163 L20.8489918,15.6678308 L22.5425809,15.6678308 L22.5425809,25.8295717 Z" id="Fill-17" fill="#CCCEE5"></path>
                <path d="M11.2901028,0.195597606 L13.0496009,0.195597606 C13.0525178,0.258373354 13.0580412,0.321239905 13.0580412,0.384136725 C13.0585067,2.29561889 13.0496009,4.20716159 13.0653024,6.11852268 C13.0687778,6.53800633 13.1160685,6.96726652 13.2187488,7.37382575 C13.4725482,8.378722 14.1645931,8.91494917 15.2218994,8.98392985 C15.6170433,9.00971815 16.0083084,8.98141761 16.3853614,8.85613852 C17.1183356,8.61263279 17.5341459,8.08182359 17.7078864,7.37473379 C17.8022195,6.99087553 17.85854,6.58891703 17.8616431,6.19458606 C17.8769412,4.26306651 17.8685939,2.33136535 17.8685939,0.399664188 L17.8685939,0.1970202 L19.6288679,0.1970202 C19.6317227,0.256920492 19.6365635,0.310706655 19.6365945,0.364462551 C19.6369669,2.40706551 19.6426455,4.44969874 19.6337397,6.49227144 C19.6306676,7.1938222 19.4978876,7.8753053 19.1829889,8.51450407 C18.7397475,9.41421915 18.0222576,10.0124956 17.0525197,10.3086676 C15.9984096,10.6306279 14.9295599,10.6381646 13.8784598,10.3079109 C12.5158743,9.87974037 11.7267036,8.92917511 11.4269168,7.58594361 C11.3429169,7.20953127 11.298419,6.81740986 11.2959986,6.43215927 C11.2834002,4.40977531 11.2901028,2.38730054 11.2901028,0.364886302 L11.2901028,0.195597606 Z" id="Fill-19" fill="#CCCEE5"></path>
                <path d="M57.4615379,1.7197528 C57.4577832,1.78821893 57.4527252,1.83761624 57.4526942,1.88701355 C57.4521667,2.5931953 57.4554559,3.29940733 57.4494981,4.00555882 C57.448412,4.13383443 57.4908308,4.16549471 57.6170634,4.16507096 C58.8633461,4.16101506 60.1095978,4.16255872 61.3558806,4.16274033 C61.5588829,4.1627706 61.5591311,4.16322462 61.5592242,4.35972421 C61.5594104,4.74306791 61.552863,5.12659322 61.5626376,5.50969479 C61.5661751,5.64859445 61.5155331,5.67722794 61.384708,5.67680419 C60.1384563,5.67280882 58.8921736,5.67731874 57.6458908,5.67081113 C57.4881932,5.67002417 57.447419,5.71130966 57.4486292,5.86395098 C57.4560145,6.79202715 57.4549594,7.72019412 57.449405,8.64827028 C57.4485982,8.78417342 57.4840351,8.82757768 57.6290722,8.82703285 C59.025326,8.82182676 60.4215797,8.82391525 61.8178024,8.82391525 L62.0162432,8.82391525 L62.0162432,10.3694578 C61.9635842,10.3717884 61.908598,10.3762983 61.8536427,10.3762983 C59.8678693,10.3766918 57.8820959,10.3751482 55.8963535,10.3796884 C55.752899,10.3800213 55.713397,10.3405216 55.7135211,10.2022273 C55.7170586,6.92354143 55.7166552,3.64482528 55.7147623,0.366109128 C55.7147003,0.251242223 55.7217753,0.18319985 55.8758733,0.183593334 C57.8823442,0.188617815 59.888784,0.186922809 61.8952238,0.187195221 C61.93094,0.187225489 61.9667183,0.190978716 62.016088,0.1937331 L62.016088,1.7197528 L57.4615379,1.7197528 Z" id="Fill-21" fill="#CCCEE5"></path>
                <path d="M58.1379713,15.6538243 L58.3306404,15.6538318 C60.2851039,15.6538318 62.2395674,15.6538016 64.1939999,15.6538621 C64.4027429,15.6538621 64.4029601,15.6541042 64.4030843,15.8603198 C64.4032704,16.2335541 64.4031463,16.606758 64.4031463,16.9799619 L64.4031463,17.1585732 L59.8683007,17.1585732 L59.8683007,19.5644522 L63.916338,19.5644522 L63.916338,21.0496404 L59.8658182,21.0496404 L59.8658182,24.1527418 L64.3864208,24.1527418 C64.3933096,24.2013825 64.4020913,24.2348891 64.4021844,24.2683957 C64.4031463,24.6920563 64.4010983,25.115717 64.4043255,25.5393473 C64.4050702,25.6320581 64.3823248,25.6740095 64.2752691,25.6738581 C62.2587754,25.6711643 60.2422817,25.6717999 58.2257879,25.6712551 C58.200467,25.6712551 58.1751149,25.6655344 58.1379713,25.6610245 L58.1379713,15.6538243 Z" id="Fill-23" fill="#CCCEE5"></path>
                <path d="M30.2856729,2.62743744 C30.0711893,2.48735733 29.8866812,2.35893038 29.6943845,2.24267115 C28.7955516,1.69933101 27.823052,1.44105451 26.7662422,1.58022659 C26.4960896,1.61582171 26.2162866,1.70114709 25.9787472,1.82996752 C25.2566957,2.22157438 25.2061468,3.21354621 25.8819006,3.67818965 C26.1147544,3.83830716 26.3865826,3.9533254 26.6541596,4.05502574 C27.3899887,4.33473195 28.1386024,4.58292922 28.8714215,4.8696576 C29.4549522,5.09796882 29.9682607,5.43718184 30.3351047,5.95040535 C31.4115879,7.4564482 30.7758016,9.49423856 29.0104386,10.2015402 C28.2681862,10.4989532 27.4903417,10.5720201 26.698099,10.5278894 C25.8006624,10.477917 24.9411143,10.2809936 24.1441549,9.8612981 C23.7851307,9.67221416 23.7857513,9.67115478 23.7857513,9.27531041 L23.7857513,8.03453596 L23.7857513,7.8350701 C23.8550426,7.88434634 23.8947929,7.91201126 23.9338915,7.94049341 C24.9004021,8.64507096 25.9787782,9.02466144 27.1934407,9.00486619 C27.5780653,8.99863099 27.9563285,8.95080762 28.3139254,8.80176819 C28.7610766,8.61540836 29.0515232,8.30386026 29.100024,7.81802924 C29.1498902,7.31860791 28.9762429,6.90454223 28.5262368,6.64656842 C28.2253329,6.47410158 27.9016215,6.3339004 27.5760483,6.20922667 C26.9657381,5.97546722 26.3359717,5.78753346 25.7350947,5.53373663 C25.3505944,5.37131876 24.9784131,5.15690053 24.6450201,4.90912702 C24.0784631,4.48806944 23.7942847,3.8939094 23.7197492,3.20700833 C23.6301948,2.38163135 23.800677,1.62998712 24.4117009,1.01527513 C24.8569282,0.567339602 25.4086526,0.294019929 26.0253552,0.163897973 C27.4778364,-0.142595383 28.8586058,0.0522394709 30.1556857,0.7733736 C30.2527805,0.82737164 30.289831,0.88833131 30.2884967,0.999142308 C30.2821975,1.53306911 30.2856729,2.06708672 30.2856729,2.62743744" id="Fill-25" fill="#CCCEE5"></path>
                <path d="M35.3601783,5.28194353 C35.3601783,3.65267981 35.3601473,2.02338584 35.3602093,0.394122124 C35.3602404,0.187180087 35.3605817,0.186998479 35.568673,0.186937943 C36.0289192,0.186816871 36.4892894,0.192870463 36.9493183,0.183457128 C37.0966517,0.180430332 37.1301027,0.228495851 37.1298235,0.36349095 C37.1260377,2.30548322 37.1272479,4.24750575 37.1272479,6.18949802 C37.1272479,7.52116715 37.1249516,8.85286656 37.1304441,10.1845357 C37.1310647,10.3334238 37.0964035,10.3845464 36.9341754,10.3805813 C36.4690264,10.3692913 36.0033189,10.3707139 35.5381079,10.3800667 C35.3907745,10.3830027 35.3572614,10.335028 35.3575717,10.2000329 C35.3616057,8.56068994 35.3601783,6.92131674 35.3601783,5.28194353" id="Fill-27" fill="#CCCEE5"></path>
                <polygon id="Fill-29" fill="#CCCEE5" points="6.98884009 25.6609035 8.72987502 25.6609035 8.72987502 15.6625793 6.98884009 15.6625793"></polygon>
                <polygon id="Fill-31" fill="#CCCEE5" points="38.5834093 25.6579675 40.3260268 25.6579675 40.3260268 15.667634 38.5834093 15.667634"></polygon>
            </g>
        </g>
    </g>
</svg>