<?xml version="1.0" encoding="UTF-8"?>
<svg width="111px" height="39px" viewBox="0 0 111 39" version="1.1" xmlns="http://www.w3.org/2000/svg" xmlns:xlink="http://www.w3.org/1999/xlink">
    <!-- Generator: Sketch 53.2 (72643) - https://sketchapp.com -->
    <title>Group 13</title>
    <desc>Created with Sketch.</desc>
    <defs>
        <polygon id="path-1" points="0.0345404191 0.013782072 24.2993056 0.013782072 24.2993056 24.3824322 0.0345404191 24.3824322"></polygon>
        <polygon id="path-3" points="0.0502135089 0.0445972125 14.4553709 0.0445972125 14.4553709 24.465692 0.0502135089 24.465692"></polygon>
    </defs>
    <g id="Page-1" stroke="none" stroke-width="1" fill="none" fill-rule="evenodd">
        <g id="Artboard" transform="translate(-543.000000, -850.000000)">
            <g id="Group-13" transform="translate(543.000000, 850.000000)">
                <g id="Group-3" transform="translate(26.115403, 14.421371)">
                    <mask id="mask-2" fill="white">
                        <use xlink:href="#path-1"></use>
                    </mask>
                    <g id="Clip-2"></g>
                    <path d="M12.1780191,3.90588774 C7.62825717,3.90562613 3.94025139,7.58407706 3.90329366,12.0942515 C3.86550191,16.7129957 7.55064073,20.4848952 12.1286553,20.4912263 C16.737216,20.4976096 20.4330408,16.8201528 20.4345003,12.2353138 C20.4359599,7.59872745 16.7757375,3.90614936 12.1780191,3.90588774 M24.2988502,12.1958101 C24.3569192,18.8848635 18.8537626,24.381009 12.1751522,24.3824741 C5.50165017,24.3838345 0.0211164668,18.8885261 0.0345651176,12.1738868 C0.0479616418,5.47211892 5.53417714,0.0015068971 12.1975145,0.0138027588 C18.8542838,0.0260986206 24.3559809,5.51240748 24.2988502,12.1958101" id="Fill-1" fill="#CCCDE5" mask="url(#mask-2)"></path>
                </g>
                <path d="M5.21265534e-06,26.5120545 C0.0517147537,23.7591419 0.817922963,21.2569079 2.49848305,19.074 C4.51213181,16.4582778 7.18695377,14.9729377 10.4451761,14.5684823 C12.5009431,14.3133039 14.5203779,14.5143282 16.4700674,15.2496731 C18.0795269,15.8567224 19.4335662,16.8405483 20.5851982,18.1131438 C20.7660773,18.313017 20.9446108,18.5163434 21.1091222,18.7298205 C21.7147285,19.5158139 21.5651253,20.6181509 20.7735314,21.2490595 C20.03813,21.8351796 18.9105805,21.7184474 18.3175367,20.9603945 C17.5883905,20.0283682 16.7501434,19.2354682 15.6796725,18.7134958 C14.2744449,18.0282762 12.7834691,17.8264671 11.2406273,17.9400599 C9.83409653,18.0436068 8.53234011,18.4645962 7.37278493,19.2826634 C5.78641753,20.4019007 4.82238905,21.9554698 4.35325007,23.815232 C3.77313366,26.1149244 3.86836887,28.3932691 4.8481917,30.5720434 C6.04168126,33.2260136 8.12632639,34.7053889 11.0075174,35.016762 C12.8181332,35.212397 14.5595771,34.9483238 16.1809736,34.0661611 C17.0944393,33.569199 17.8630453,32.8959613 18.5336534,32.1063577 C19.445399,31.0327982 21.0643976,31.2315725 21.6013011,32.5026507 C21.8804909,33.1635402 21.794847,33.8064306 21.3291484,34.3675928 C19.5918225,36.4609764 17.3838459,37.7451352 14.7104835,38.2175056 C12.3049473,38.6425762 9.92245104,38.5821433 7.62956033,37.6776911 C3.4816941,36.041609 1.03539494,32.9695272 0.217789953,28.5881192 C0.090549036,27.9063529 0.0699069208,27.204547 5.21265534e-06,26.5120545" id="Fill-4" fill="#CCCDE5"></path>
                <path d="M60.2137119,19.2431911 C60.2136598,24.9288498 60.2158491,30.6144563 60.2077695,36.3000105 C60.2073525,36.6076163 60.176233,36.9368315 60.065047,37.2184329 C59.7314371,38.0636556 58.8622268,38.5379096 58.010531,38.3909872 C57.0517673,38.2255424 56.4192637,37.5077257 56.3567119,36.511447 C56.3496227,36.398482 56.3510301,36.2848368 56.3510301,36.1715056 C56.3508737,24.8526155 56.3511865,13.5336731 56.3494663,2.21473062 C56.3494142,1.79023561 56.3916367,1.3778795 56.6027492,1.00073664 C57.0462419,0.20841224 57.9299955,-0.163916918 58.8082237,0.0682394165 C59.6488686,0.290402093 60.2110535,1.03239195 60.2115748,1.95091898 C60.2147023,7.4969805 60.2135034,13.0430943 60.2137641,18.5891559 C60.2137641,18.807185 60.2137641,19.0251619 60.2137119,19.2431911" id="Fill-6" fill="#CCCDE5"></path>
                <g id="Group-10" transform="translate(96.329871, 13.950466)">
                    <mask id="mask-4" fill="white">
                        <use xlink:href="#path-3"></use>
                    </mask>
                    <g id="Clip-9"></g>
                    <path d="M3.89173199,4.75649453 C3.95365834,4.6553022 4.01579319,4.5541622 4.0774589,4.45281291 C4.99457348,2.94764246 6.19546502,1.75541478 7.85178626,1.09682749 C9.64744177,0.382830347 11.4674925,0.39868416 13.2776392,1.04063279 C14.1877688,1.36341224 14.6602439,2.40416537 14.3703681,3.33577311 C14.0775212,4.27674663 13.1383571,4.79254495 12.169168,4.57169034 C11.5522503,4.43115126 10.9302763,4.29830363 10.3034544,4.21908689 C8.93966743,4.04684018 7.79575021,4.55928984 6.81639653,5.47033471 C5.5864705,6.61453005 4.88594175,8.07292389 4.43421303,9.66599667 C4.08022161,10.9145237 3.91591871,12.1922469 3.91341664,13.4888062 C3.90768272,16.4880547 3.91378152,19.4873555 3.90898588,22.4866563 C3.90736996,23.5049106 3.25578804,24.265632 2.25933684,24.4396577 C1.18860531,24.6267117 0.123607696,23.781332 0.0559474298,22.6895118 C0.0495358637,22.5851801 0.0504741417,22.4803252 0.0504741417,22.3757319 C0.0502656355,15.6098686 0.0498486231,8.84400523 0.0508911541,2.07814191 C0.0510475338,1.17201538 0.490213747,0.492028064 1.26330266,0.184265261 C2.51819731,-0.315260663 3.89157561,0.584377834 3.90304345,1.9405329 C3.91018479,2.78497083 3.85409662,3.62993198 3.82714719,4.47463152 C3.82438448,4.55960377 3.82678231,4.64478532 3.82678231,4.72980989 C3.84841483,4.73870477 3.87009947,4.74759965 3.89173199,4.75649453" id="Fill-8" fill="#CCCDE5" mask="url(#mask-4)"></path>
                </g>
                <path d="M86.0912357,29.4088131 C85.6752658,30.5633683 85.0411463,31.5789542 84.1832996,32.453844 C82.9718264,33.6762096 81.5226039,34.4495408 79.8358408,34.7750934 C75.1928765,35.6710693 70.6999325,32.4232875 70.1112152,27.7141294 C69.7851115,25.1059417 70.5276021,22.8213182 72.3198694,20.8914435 C72.3671482,20.8404811 72.4111951,20.7864839 72.4567537,20.7338995 C73.3240875,19.8990366 74.3059432,19.2465188 75.4401128,18.8315989 C76.3610847,18.4946399 77.3107784,18.3276255 78.2895066,18.3187306 C80.2533745,18.3362588 82.0060777,18.9509472 83.5356272,20.1922014 C83.751379,20.3672735 83.9568097,20.5552694 84.166984,20.7373005 C84.3359261,20.9348714 84.5086214,21.12946 84.6732892,21.3305889 C85.8765785,22.800703 86.4873454,24.4952297 86.5704351,26.3889494 C86.5742925,26.4758053 86.5822157,26.5624519 86.5881581,26.6491508 C86.537439,27.5898627 86.4127002,28.5165521 86.0912357,29.4088131 M90.1754554,24.062834 C89.6758745,21.7527817 88.6085833,19.7470388 86.9451208,18.0668486 C85.9506504,17.0358275 84.8029801,16.2171324 83.5112841,15.6071007 C81.8623648,14.8283802 80.1301473,14.4122045 78.2995149,14.4506618 C78.265789,14.44454 78.232011,14.4329244 78.198233,14.4330813 C76.8155761,14.4393078 75.4736302,14.6804636 74.173646,15.1503225 C72.49147,15.7583659 71.0217619,16.70656 69.7458081,17.9608949 C69.4892933,18.2446415 69.2195384,18.517662 68.9782446,18.8139661 C66.8419942,21.4372751 65.8951674,24.4446336 66.2239817,27.814066 C66.5411718,31.0644116 67.9583364,33.780489 70.4414369,35.8972085 C73.1649972,38.2188765 76.3380448,39.1227531 79.8707656,38.6965315 C82.6314921,38.3634444 84.9787508,37.1408695 86.951376,35.1826358 C88.0432187,34.0490097 88.9147226,32.7679902 89.5132397,31.306457 C90.123798,29.815466 90.4540197,28.2678094 90.4320223,26.6506681 C90.4701268,25.7756737 90.3595143,24.9138646 90.1754554,24.062834" id="Fill-11" fill="#CCCDE5"></path>
            </g>
        </g>
    </g>
</svg>