<?xml version="1.0" encoding="UTF-8"?>
<svg width="171px" height="25px" viewBox="0 0 171 25" version="1.1" xmlns="http://www.w3.org/2000/svg" xmlns:xlink="http://www.w3.org/1999/xlink">
    <!-- Generator: Sketch 53.2 (72643) - https://sketchapp.com -->
    <title>expensify-logo_one-color-reversed</title>
    <desc>Created with Sketch.</desc>
    <g id="Page-1" stroke="none" stroke-width="1" fill="none" fill-rule="evenodd">
        <g id="Artboard" transform="translate(-959.000000, -4146.000000)" fill="#FFFFFF" fill-rule="nonzero">
            <g id="expensify-logo_one-color-reversed" transform="translate(959.000000, 4146.000000)">
                <g id="Group" transform="translate(58.042683, 0.000000)">
                    <polygon id="Path" points="0.104268293 19.9657534 12.3384146 19.9657534 12.3384146 16.369863 4.58780488 16.369863 4.58780488 12.9794521 11.1914634 12.9794521 11.1914634 9.28082192 4.58780488 9.28082192 4.58780488 6.06164384 12.3384146 6.06164384 12.3384146 2.5 0.104268293 2.5"></polygon>
                    <path d="M36.4939024,6.13013699 C34.6518293,6.13013699 33.2963415,6.67808219 32.2536585,8.18493151 L32.1841463,8.18493151 L31.6280488,6.54109589 L28.3609756,6.54109589 L28.3609756,24.7945205 L32.6012195,24.7945205 L32.6012195,19.0410959 L32.6707317,19.0410959 C33.470122,19.9315068 34.6518293,20.3424658 36.2853659,20.3424658 C40.0042683,20.3424658 42.7152439,17.1917808 42.7152439,13.4246575 L42.7152439,12.9109589 C42.75,8.69863014 39.6567073,6.13013699 36.4939024,6.13013699 Z M35.4164634,16.8835616 C33.470122,16.8835616 32.5664634,15.239726 32.5664634,13.2191781 C32.5664634,11.1986301 33.470122,9.62328767 35.4164634,9.62328767 C37.3628049,9.62328767 38.2664634,11.2671233 38.2664634,13.2876712 C38.2317073,15.3082192 37.3280488,16.8835616 35.4164634,16.8835616 L35.4164634,16.8835616 Z" id="Shape"></path>
                    <path d="M57.2085366,12.7739726 C57.2085366,8.25342466 53.9762195,6.09589041 50.4658537,6.09589041 C46.5384146,6.09589041 43.445122,8.83561644 43.445122,13.0479452 L43.445122,13.4931507 C43.445122,17.7739726 46.7817073,20.3767123 50.6396341,20.3767123 C53.7676829,20.3767123 56.5481707,18.869863 57.2085366,15.7534247 L53.2115854,15.7534247 C52.7945122,16.8150685 51.8560976,17.1575342 50.7439024,17.1575342 C48.9713415,17.1575342 47.9981707,15.9589041 47.7896341,14.2465753 L57.1737805,14.2465753 C57.1737805,13.9726027 57.2085366,13.3219178 57.2085366,12.7739726 Z M47.8591463,11.5753425 C48.0676829,10.1712329 48.9018293,9.10958904 50.570122,9.10958904 C52.029878,9.10958904 52.9682927,10.1027397 52.9682927,11.5753425 L47.8591463,11.5753425 Z" id="Shape"></path>
                    <path d="M66.1756098,6.13013699 C64.4378049,6.13013699 63.0823171,6.78082192 62.1439024,8.28767123 L62.0743902,8.28767123 L61.5182927,6.54109589 L58.1817073,6.54109589 L58.1817073,19.9657534 L62.4567073,19.9657534 L62.4567073,12.1575342 C62.4567073,10.4452055 63.2908537,9.62328767 64.6810976,9.62328767 C65.8628049,9.62328767 66.7664634,10.3767123 66.7664634,12.1575342 L66.7664634,19.9315068 L71.1109756,19.9315068 L71.1109756,10.890411 C71.1109756,8.28767123 69.5121951,6.13013699 66.1756098,6.13013699 Z" id="Path"></path>
                    <path d="M77.5756098,11.2671233 C76.8457317,11.130137 76.3591463,10.7876712 76.3591463,10.0684932 C76.3591463,9.45205479 76.8109756,8.97260274 77.7841463,8.97260274 C78.8615854,8.97260274 79.3829268,9.52054795 79.3829268,10.4109589 L83.2756098,10.4109589 L83.2756098,10.1027397 C83.2756098,7.29452055 80.6341463,6.09589041 77.7146341,6.09589041 C75.1079268,6.09589041 72.1189024,7.19178082 72.1189024,10.3424658 L72.1189024,10.5479452 C72.1189024,11.4726027 72.4664634,12.3630137 73.1268293,13.0479452 C74.4823171,14.3835616 76.5676829,14.5205479 77.9579268,14.8630137 C79.1396341,15.1712329 79.4176829,15.6849315 79.4176829,16.3013699 C79.4176829,17.1232877 78.7573171,17.5 77.7841463,17.5 C76.602439,17.5 75.9073171,16.8493151 75.8378049,15.5821918 L71.979878,15.5821918 L71.979878,15.890411 C72.1189024,19.1780822 74.6908537,20.3767123 77.8189024,20.3767123 C80.5993902,20.3767123 83.6579268,19.109589 83.6579268,15.9589041 L83.6579268,15.6849315 C83.6579268,14.760274 83.345122,13.8356164 82.7542683,13.2191781 C81.3640244,11.7808219 79.2786585,11.5410959 77.5756098,11.2671233 Z" id="Path"></path>
                    <rect id="Rectangle" x="84.4920732" y="6.54109589" width="4.3097561" height="13.4246575"></rect>
                    <polygon id="Path" points="27.4920732 6.54109589 22.7652439 6.54109589 20.4713415 9.93150685 18.177439 6.54109589 13.2420732 6.54109589 17.9341463 12.8767123 12.6164634 19.9657534 17.4128049 19.9657534 20.297561 15.9246575 23.1823171 19.9657534 28.0829268 19.9657534 22.8695122 12.739726"></polygon>
                    <path d="M86.6121951,0 C85.1871951,0 84.0402439,1.13013699 84.0402439,2.53424658 C84.0402439,3.93835616 85.1871951,5.06849315 86.6121951,5.06849315 C88.0371951,5.06849315 89.1841463,3.93835616 89.1841463,2.53424658 L89.1841463,2.53424658 C89.1841463,1.13013699 88.0371951,0 86.6121951,0 L86.6121951,0 Z" id="Path"></path>
                    <path d="M96.552439,6.54109589 L96.552439,6.09589041 C96.552439,4.96575342 97.3518293,3.80136986 98.6378049,3.76712329 C98.8463415,3.76712329 99.8890244,3.73287671 99.8890244,3.73287671 L99.9237805,0 L98.3597561,0 C94.6756098,0.0684931507 92.277439,2.84246575 92.277439,6.30136986 L92.277439,6.54109589 L89.7402439,6.54109589 L89.7402439,9.76027397 L92.277439,9.76027397 L92.277439,19.9657534 L96.5871951,19.9657534 L96.5871951,9.7260274 L99.402439,9.7260274 L103.017073,19.0068493 L100.514634,24.760274 L105.032927,24.760274 L112.679268,6.50684932 L108.195732,6.50684932 L105.241463,14.5547945 L102.495732,6.50684932 L96.552439,6.54109589 Z" id="Path"></path>
                    <polygon id="Path" points="0.104268293 19.9657534 12.3384146 19.9657534 12.3384146 16.369863 4.58780488 16.369863 4.58780488 12.9794521 11.1914634 12.9794521 11.1914634 9.28082192 4.58780488 9.28082192 4.58780488 6.06164384 12.3384146 6.06164384 12.3384146 2.5 0.104268293 2.5"></polygon>
                    <path d="M36.4939024,6.13013699 C34.6518293,6.13013699 33.2963415,6.67808219 32.2536585,8.18493151 L32.1841463,8.18493151 L31.6280488,6.54109589 L28.3609756,6.54109589 L28.3609756,24.7945205 L32.6012195,24.7945205 L32.6012195,19.0410959 L32.6707317,19.0410959 C33.470122,19.9315068 34.6518293,20.3424658 36.2853659,20.3424658 C40.0042683,20.3424658 42.7152439,17.1917808 42.7152439,13.4246575 L42.7152439,12.9109589 C42.75,8.69863014 39.6567073,6.13013699 36.4939024,6.13013699 Z M35.4164634,16.8835616 C33.470122,16.8835616 32.5664634,15.239726 32.5664634,13.2191781 C32.5664634,11.1986301 33.470122,9.62328767 35.4164634,9.62328767 C37.3628049,9.62328767 38.2664634,11.2671233 38.2664634,13.2876712 C38.2317073,15.3082192 37.3280488,16.8835616 35.4164634,16.8835616 L35.4164634,16.8835616 Z" id="Shape"></path>
                    <path d="M57.2085366,12.7739726 C57.2085366,8.25342466 53.9762195,6.09589041 50.4658537,6.09589041 C46.5384146,6.09589041 43.445122,8.83561644 43.445122,13.0479452 L43.445122,13.4931507 C43.445122,17.7739726 46.7817073,20.3767123 50.6396341,20.3767123 C53.7676829,20.3767123 56.5481707,18.869863 57.2085366,15.7534247 L53.2115854,15.7534247 C52.7945122,16.8150685 51.8560976,17.1575342 50.7439024,17.1575342 C48.9713415,17.1575342 47.9981707,15.9589041 47.7896341,14.2465753 L57.1737805,14.2465753 C57.1737805,13.9726027 57.2085366,13.3219178 57.2085366,12.7739726 Z M47.8591463,11.5753425 C48.0676829,10.1712329 48.9018293,9.10958904 50.570122,9.10958904 C52.029878,9.10958904 52.9682927,10.1027397 52.9682927,11.5753425 L47.8591463,11.5753425 Z" id="Shape"></path>
                    <path d="M66.1756098,6.13013699 C64.4378049,6.13013699 63.0823171,6.78082192 62.1439024,8.28767123 L62.0743902,8.28767123 L61.5182927,6.54109589 L58.1817073,6.54109589 L58.1817073,19.9657534 L62.4567073,19.9657534 L62.4567073,12.1575342 C62.4567073,10.4452055 63.2908537,9.62328767 64.6810976,9.62328767 C65.8628049,9.62328767 66.7664634,10.3767123 66.7664634,12.1575342 L66.7664634,19.9315068 L71.1109756,19.9315068 L71.1109756,10.890411 C71.1109756,8.28767123 69.5121951,6.13013699 66.1756098,6.13013699 Z" id="Path"></path>
                    <path d="M77.5756098,11.2671233 C76.8457317,11.130137 76.3591463,10.7876712 76.3591463,10.0684932 C76.3591463,9.45205479 76.8109756,8.97260274 77.7841463,8.97260274 C78.8615854,8.97260274 79.3829268,9.52054795 79.3829268,10.4109589 L83.2756098,10.4109589 L83.2756098,10.1027397 C83.2756098,7.29452055 80.6341463,6.09589041 77.7146341,6.09589041 C75.1079268,6.09589041 72.1189024,7.19178082 72.1189024,10.3424658 L72.1189024,10.5479452 C72.1189024,11.4726027 72.4664634,12.3630137 73.1268293,13.0479452 C74.4823171,14.3835616 76.5676829,14.5205479 77.9579268,14.8630137 C79.1396341,15.1712329 79.4176829,15.6849315 79.4176829,16.3013699 C79.4176829,17.1232877 78.7573171,17.5 77.7841463,17.5 C76.602439,17.5 75.9073171,16.8493151 75.8378049,15.5821918 L71.979878,15.5821918 L71.979878,15.890411 C72.1189024,19.1780822 74.6908537,20.3767123 77.8189024,20.3767123 C80.5993902,20.3767123 83.6579268,19.109589 83.6579268,15.9589041 L83.6579268,15.6849315 C83.6579268,14.760274 83.345122,13.8356164 82.7542683,13.2191781 C81.3640244,11.7808219 79.2786585,11.5410959 77.5756098,11.2671233 Z" id="Path"></path>
                    <rect id="Rectangle" x="84.4920732" y="6.54109589" width="4.3097561" height="13.4246575"></rect>
                    <polygon id="Path" points="27.4920732 6.54109589 22.7652439 6.54109589 20.4713415 9.93150685 18.177439 6.54109589 13.2420732 6.54109589 17.9341463 12.8767123 12.6164634 19.9657534 17.4128049 19.9657534 20.297561 15.9246575 23.1823171 19.9657534 28.0829268 19.9657534 22.8695122 12.739726"></polygon>
                    <path d="M86.6121951,0 C85.1871951,0 84.0402439,1.13013699 84.0402439,2.53424658 C84.0402439,3.93835616 85.1871951,5.06849315 86.6121951,5.06849315 C88.0371951,5.06849315 89.1841463,3.93835616 89.1841463,2.53424658 L89.1841463,2.53424658 C89.1841463,1.13013699 88.0371951,0 86.6121951,0 L86.6121951,0 Z" id="Path"></path>
                    <path d="M96.552439,6.54109589 L96.552439,6.09589041 C96.552439,4.96575342 97.3518293,3.80136986 98.6378049,3.76712329 C98.8463415,3.76712329 99.8890244,3.73287671 99.8890244,3.73287671 L99.9237805,0 L98.3597561,0 C94.6756098,0.0684931507 92.277439,2.84246575 92.277439,6.30136986 L92.277439,6.54109589 L89.7402439,6.54109589 L89.7402439,9.76027397 L92.277439,9.76027397 L92.277439,19.9657534 L96.5871951,19.9657534 L96.5871951,9.7260274 L99.402439,9.7260274 L103.017073,19.0068493 L100.514634,24.760274 L105.032927,24.760274 L112.679268,6.50684932 L108.195732,6.50684932 L105.241463,14.5547945 L102.495732,6.50684932 L96.552439,6.54109589 Z" id="Path"></path>
                </g>
                <g id="Group" transform="translate(0.000000, 2.397260)">
                    <path d="M12.9640244,7.19178082 C12.7902439,6.64383562 12.5817073,6.13013699 12.4079268,5.58219178 C12.1993902,4.93150685 11.9213415,4.7260274 11.3304878,4.7260274 L6.39512195,4.7260274 C5.80426829,4.7260274 5.52621951,4.96575342 5.31768293,5.58219178 C5.10914634,6.13013699 4.93536585,6.64383562 4.76158537,7.19178082 C4.58780488,7.73972603 4.58780488,7.73972603 5.10914634,7.73972603 L12.6164634,7.73972603 C13.1378049,7.73972603 13.1378049,7.73972603 12.9640244,7.19178082 Z" id="Path"></path>
                    <path d="M16.022561,0.102739726 L1.66829268,0.102739726 C0.764634146,0.102739726 0,0.856164384 0,1.74657534 L0,15.890411 C0,16.7808219 0.729878049,17.5342466 1.66829268,17.5342466 L16.022561,17.5342466 C16.9262195,17.5342466 17.6908537,16.8150685 17.6908537,15.890411 L17.6908537,1.74657534 C17.6908537,0.856164384 16.9609756,0.102739726 16.022561,0.102739726 Z M15.3969512,7.46575342 C15.2231707,7.67123288 15.0146341,7.70547945 14.8060976,7.73972603 C14.5628049,7.7739726 14.5280488,7.87671233 14.597561,8.04794521 C14.8408537,8.52739726 14.9103659,10 14.9103659,10.7191781 C14.9103659,11.5410959 14.9103659,12.5684932 14.9103659,13.4246575 C14.8756098,13.9041096 14.7018293,14.0410959 14.3195122,14.0410959 C13.9371951,14.0410959 13.2073171,14.0753425 12.7554878,14.0410959 C12.4426829,14.0068493 12.2689024,13.8013699 12.2689024,13.4589041 C12.2689024,13.1849315 12.2689024,12.7739726 12.2689024,12.5 C12.2689024,12.1917808 12.2341463,12.1232877 11.9560976,12.1232877 L5.90853659,12.1232877 C5.6304878,12.1232877 5.59573171,12.2260274 5.59573171,12.5 C5.59573171,12.7739726 5.59573171,13.1849315 5.59573171,13.4589041 C5.59573171,13.8013699 5.42195122,14.0410959 5.10914634,14.0410959 C4.65731707,14.0753425 3.96219512,14.0410959 3.54512195,14.0410959 C3.12804878,14.0410959 2.95426829,13.9041096 2.95426829,13.4246575 C2.95426829,12.6027397 2.95426829,11.5753425 2.95426829,10.7191781 C2.95426829,10 3.05853659,8.56164384 3.26707317,8.04794521 C3.33658537,7.87671233 3.30182927,7.7739726 3.05853659,7.73972603 C2.8152439,7.70547945 2.64146341,7.67123288 2.46768293,7.46575342 C2.32865854,7.29452055 2.32865854,7.05479452 2.39817073,6.84931507 C2.46768293,6.64383562 2.64146341,6.64383562 2.8152439,6.64383562 C3.05853659,6.64383562 3.30182927,6.64383562 3.54512195,6.64383562 C3.71890244,6.64383562 3.78841463,6.57534247 3.85792683,6.40410959 C4.06646341,5.89041096 4.3445122,5.20547945 4.58780488,4.69178082 C4.86585366,4.10958904 5.35243902,3.63013699 5.97804878,3.63013699 C6.95121951,3.63013699 10.8439024,3.63013699 11.7823171,3.63013699 C12.4079268,3.66438356 12.8945122,4.14383562 13.172561,4.69178082 C13.4158537,5.20547945 13.6939024,5.89041096 13.902439,6.40410959 C13.9719512,6.57534247 14.0414634,6.64383562 14.2152439,6.64383562 C14.4585366,6.64383562 14.7018293,6.64383562 14.945122,6.64383562 C15.1189024,6.64383562 15.2926829,6.64383562 15.3621951,6.84931507 C15.4317073,7.05479452 15.4317073,7.29452055 15.3969512,7.46575342 Z" id="Shape"></path>
                    <path d="M4.97012195,8.80136986 C4.41402439,8.80136986 4.10121951,9.17808219 4.10121951,9.69178082 C4.10121951,9.7260274 4.10121951,9.7260274 4.10121951,9.76027397 C4.10121951,10.2054795 4.51829268,10.5821918 4.97012195,10.5479452 C5.00487805,10.5479452 5.03963415,10.5479452 5.07439024,10.5479452 C5.52621951,10.5479452 5.87378049,10.1369863 5.87378049,9.69178082 C5.87378049,9.17808219 5.56097561,8.80136986 4.97012195,8.80136986 Z" id="Path"></path>
                    <path d="M12.7207317,8.80136986 C12.1646341,8.80136986 11.8518293,9.17808219 11.8518293,9.69178082 C11.8518293,9.7260274 11.8518293,9.7260274 11.8518293,9.76027397 C11.8518293,10.2054795 12.2689024,10.5821918 12.7207317,10.5479452 C12.7554878,10.5479452 12.7902439,10.5479452 12.7902439,10.5479452 C13.2420732,10.5479452 13.5896341,10.1369863 13.5896341,9.69178082 C13.6243902,9.17808219 13.2768293,8.80136986 12.7207317,8.80136986 Z" id="Path"></path>
                    <path d="M35.4164634,0.102739726 L21.0621951,0.102739726 C20.1237805,0.102739726 19.3939024,0.856164384 19.3939024,1.74657534 L19.3939024,15.890411 C19.3939024,16.7808219 20.1237805,17.5342466 21.0621951,17.5342466 L35.4164634,17.5342466 C36.320122,17.5342466 37.0847561,16.8150685 37.0847561,15.890411 L37.0847561,1.74657534 C37.0847561,0.856164384 36.354878,0.102739726 35.4164634,0.102739726 Z M27.3530488,7.87671233 L26.9707317,8.08219178 C26.727439,8.21917808 26.5884146,8.49315068 26.5884146,8.76712329 L26.5884146,14.109589 C26.5884146,14.4863014 26.2756098,14.7945205 25.8932927,14.7945205 L25.65,14.7945205 C25.2676829,14.7945205 24.954878,14.4863014 24.954878,14.109589 L24.954878,8.76712329 C24.954878,8.49315068 24.7810976,8.25342466 24.572561,8.08219178 L24.225,7.87671233 C23.877439,7.67123288 23.7036585,7.29452055 23.7036585,6.91780822 L24.0164634,3.08219178 C24.0164634,2.94520548 24.1207317,2.84246575 24.2597561,2.84246575 L24.4682927,2.84246575 C24.6073171,2.84246575 24.7115854,2.94520548 24.7115854,3.08219178 L24.7463415,5.99315068 C24.7463415,6.06164384 24.8158537,6.13013699 24.8853659,6.13013699 L25.0591463,6.13013699 C25.1286585,6.13013699 25.1981707,6.06164384 25.1981707,5.99315068 L25.4067073,3.08219178 C25.4067073,2.94520548 25.5109756,2.84246575 25.65,2.84246575 L25.8585366,2.84246575 C25.997561,2.84246575 26.1018293,2.94520548 26.1018293,3.08219178 L26.3103659,5.99315068 C26.3103659,6.06164384 26.379878,6.13013699 26.4493902,6.13013699 L26.6579268,6.13013699 C26.727439,6.13013699 26.7969512,6.06164384 26.7969512,5.99315068 L26.8317073,3.08219178 C26.8317073,2.94520548 26.9359756,2.84246575 27.075,2.84246575 L27.2835366,2.84246575 C27.422561,2.84246575 27.5268293,2.94520548 27.5268293,3.08219178 L27.8743902,6.91780822 C27.8743902,7.29452055 27.7006098,7.67123288 27.3530488,7.87671233 Z M32.7054878,14.109589 C32.7054878,14.4863014 32.3926829,14.7945205 32.0103659,14.7945205 L31.7323171,14.7945205 C31.35,14.7945205 31.0371951,14.4863014 31.0371951,14.109589 L31.0371951,10.2739726 C31.002439,10.0684932 30.8981707,9.89726027 30.7243902,9.82876712 C30.2378049,9.62328767 29.925,9.10958904 29.925,8.59589041 L29.925,4.24657534 C29.925,3.56164384 30.4463415,2.9109589 31.1762195,2.84246575 C31.2109756,2.84246575 31.2457317,2.84246575 31.3152439,2.84246575 C32.079878,2.84246575 32.7054878,3.45890411 32.7054878,4.21232877 L32.7054878,14.109589 Z" id="Shape"></path>
                    <path d="M54.845122,0.102739726 L40.4560976,0.102739726 C39.5176829,0.102739726 38.7878049,0.856164384 38.7878049,1.74657534 L38.7878049,15.9246575 C38.7878049,16.8150685 39.5176829,17.5684932 40.4560976,17.5684932 L54.845122,17.5684932 C55.7487805,17.5684932 56.5134146,16.8493151 56.5134146,15.9246575 L56.5134146,1.74657534 C56.5134146,0.856164384 55.7835366,0.102739726 54.845122,0.102739726 Z M53.3158537,4.79452055 C52.8292683,5.34246575 51.1957317,6.88356164 50.7439024,7.32876712 C50.6396341,7.43150685 50.604878,7.60273973 50.6396341,7.73972603 C50.952439,8.86986301 51.7518293,12.6712329 51.9603659,13.4589041 C51.995122,13.5958904 51.9603659,13.7671233 51.8560976,13.869863 C51.647561,14.0753425 51.4390244,14.2808219 51.2304878,14.5205479 C51.0219512,14.7260274 50.8134146,14.6917808 50.6743902,14.4178082 C50.1530488,13.3561644 48.797561,10.5479452 48.5890244,10.1369863 C48.45,9.8630137 48.3109756,9.82876712 48.0676829,10.0342466 C47.4768293,10.4794521 46.5731707,11.2328767 46.0170732,11.6780822 C45.8780488,11.8150685 45.6695122,11.9520548 45.7390244,12.1575342 C45.7737805,12.5684932 45.8085366,12.9452055 45.8780488,13.3219178 C45.9128049,13.4931507 45.8780488,13.6643836 45.7390244,13.7671233 C45.6,13.9041096 45.4609756,14.0410959 45.3219512,14.1780822 C45.1134146,14.3493151 44.9396341,14.3150685 44.8006098,14.109589 C44.5573171,13.6643836 44.3140244,13.2191781 44.0707317,12.7739726 C44.0359756,12.7054795 43.9664634,12.6369863 43.9317073,12.6027397 C43.8621951,12.5342466 43.827439,12.5 43.7579268,12.4657534 C43.3060976,12.2260274 42.8542683,11.9863014 42.402439,11.7465753 C42.1939024,11.609589 42.1591463,11.4041096 42.3329268,11.2328767 C42.4719512,11.0958904 42.6109756,10.9589041 42.75,10.8219178 C42.8890244,10.7191781 43.0280488,10.6506849 43.2018293,10.6849315 C43.5841463,10.7191781 43.9664634,10.7876712 44.3835366,10.8219178 C44.5920732,10.890411 44.7310976,10.7191781 44.870122,10.5479452 C45.3219512,9.96575342 46.0865854,9.07534247 46.5384146,8.52739726 C46.7469512,8.28767123 46.7121951,8.15068493 46.4341463,8.01369863 C46.0170732,7.80821918 43.1323171,6.47260274 42.0896341,5.95890411 C41.8115854,5.85616438 41.7768293,5.61643836 41.9853659,5.4109589 C42.1939024,5.20547945 42.402439,5 42.6109756,4.79452055 C42.7152439,4.69178082 42.8890244,4.65753425 43.0280488,4.69178082 C43.827439,4.89726027 47.6853659,5.71917808 48.8323171,5.99315068 C49.0060976,6.02739726 49.145122,5.95890411 49.2493902,5.85616438 C49.7012195,5.4109589 51.2652439,3.80136986 51.8213415,3.32191781 C52.2384146,2.94520548 52.8292683,2.94520548 53.2463415,3.32191781 C53.6981707,3.73287671 53.6981707,4.38356164 53.3158537,4.79452055 Z" id="Shape"></path>
                </g>
            </g>
        </g>
    </g>
</svg>