<?xml version="1.0" encoding="UTF-8"?>
<svg width="189px" height="25px" viewBox="0 0 189 25" version="1.1" xmlns="http://www.w3.org/2000/svg" xmlns:xlink="http://www.w3.org/1999/xlink">
    <!-- Generator: Sketch 53.2 (72643) - https://sketchapp.com -->
    <title>flexport</title>
    <desc>Created with Sketch.</desc>
    <g id="Page-1" stroke="none" stroke-width="1" fill="none" fill-rule="evenodd">
        <g id="Artboard" transform="translate(-699.000000, -862.000000)">
            <g id="flexport" transform="translate(699.000000, 862.000000)">
                <path d="M0.468249135,24.484375 L0.424432526,24.504375 L0.392387543,24.46875 C0.392387543,16.489375 0.392387543,8.51125 0.392387543,0.531875 C0.426394464,0.533125 0.460401384,0.534375 0.494408304,0.535625 C0.672290657,0.714375 0.649401384,0.941875 0.650055363,1.158125 C0.653979239,8.715 0.653979239,16.271875 0.649401384,23.82875 C0.649401384,24.0575 0.688640138,24.306875 0.468249135,24.484375 Z" id="Path" fill="#868686"></path>
                <path d="M188.635734,0.535625 C188.66974,0.534375 188.703747,0.533125 188.737754,0.531875 C188.737754,1.694375 188.737754,2.85625 188.737754,4.01875 C188.707017,4.01875 188.67628,4.020625 188.645543,4.024375 C188.494474,3.895625 188.487934,3.72 188.485972,3.54875 C188.474201,2.704375 188.474855,1.860625 188.484664,1.01625 C188.487934,0.845 188.49382,0.669375 188.635734,0.535625 Z" id="Path" fill="#878787"></path>
                <path d="M63.2587578,20.96875 C63.2587578,21.8975 63.2600657,22.774375 63.2587578,23.65 C63.2567958,24.81375 63.3588166,24.650625 62.2071592,24.65125 C56.7032699,24.655 51.1993806,24.653125 45.6954913,24.653125 C45.516955,24.653125 45.3384187,24.653125 45.1795017,24.653125 C44.9852699,24.326875 44.9133322,1.176875 45.0957924,0.4825 C51.1038997,0.4825 57.1218166,0.4825 63.1998997,0.4825 C63.1998997,1.675625 63.1998997,2.86875 63.1998997,4.06125 C63.0226713,4.1575 62.8382491,4.11375 62.6616747,4.11375 C58.3898824,4.11625 54.11809,4.115625 49.8462976,4.11625 C49.2152076,4.11625 49.2073599,4.12375 49.2073599,4.721875 C49.2067059,6.4175 49.2060519,8.113125 49.2086678,9.809375 C49.2086678,9.976875 49.1589654,10.159375 49.3525433,10.338125 C49.4885709,10.338125 49.6671073,10.338125 49.8456436,10.338125 C53.5752872,10.338125 57.3042768,10.338125 61.0339204,10.338125 C61.6584706,10.338125 61.6793979,10.358125 61.6807059,10.938125 C61.6813599,11.785625 61.6820138,12.633125 61.6793979,13.481875 C61.6787439,13.650625 61.7140588,13.8275 61.5656055,14.021875 C61.4178062,14.021875 61.2399239,14.021875 61.0613875,14.021875 C57.3480934,14.021875 53.6354533,14.021875 49.9221592,14.021875 C49.2158616,14.021875 49.2067059,14.031875 49.2067059,14.708125 C49.2067059,16.608125 49.2184775,18.508125 49.1975502,20.4075 C49.1929723,20.846875 49.3473114,20.976875 49.7965952,20.975625 C54.0683875,20.963125 58.339526,20.968125 62.6113183,20.968125 C62.7918166,20.96875 62.9710069,20.96875 63.2587578,20.96875 Z" id="Path" fill="#CCCDE5"></path>
                <path d="M89.6291626,0.4425 C89.6291626,1.384375 89.6337405,2.243125 89.6258927,3.101875 C89.6239308,3.27 89.4676298,3.369375 89.3629931,3.486875 C86.8105121,6.3525 84.2606471,9.22125 81.6977024,12.078125 C81.397526,12.413125 81.3765986,12.6525 81.6885467,12.999375 C84.1919792,15.78125 86.6731765,18.581875 89.177263,21.36375 C89.5062145,21.729375 89.681481,22.089375 89.648782,22.5825 C89.6049654,23.23625 89.6376644,23.894375 89.6376644,24.49 C89.4558581,24.686875 89.2832076,24.65125 89.1223287,24.6525 C88.547481,24.654375 87.9674014,24.61 87.3984394,24.665 C86.7660415,24.726875 86.374308,24.473125 85.9838824,24.03 C83.6393668,21.365 81.2647682,18.725 78.9117509,16.066875 C78.6272699,15.745 78.4441557,15.72375 78.1479031,16.0575 C75.7386436,18.7725 73.3097647,21.47125 70.9031211,24.188125 C70.6134083,24.515 70.3276194,24.68625 69.8646021,24.66375 C69.1151419,24.62625 68.3624118,24.653125 67.6809654,24.653125 C67.4625363,24.48 67.4965433,24.315 67.4952353,24.16125 C67.4926194,23.76875 67.5403599,23.37 67.4847716,22.985 C67.3592076,22.11875 67.7195502,21.49 68.3087855,20.8475 C70.6977716,18.24 73.0278997,15.584375 75.3900727,12.954375 C75.6523183,12.6625 75.6758616,12.441875 75.4057682,12.14125 C72.8729066,9.320625 70.3537785,6.489375 67.820263,3.669375 C67.5907163,3.41375 67.4775779,3.16 67.4886955,2.823125 C67.5089689,2.21125 67.4913114,1.59875 67.4965433,0.98625 C67.4978512,0.81875 67.4488028,0.6375 67.6443426,0.443125 C68.4938616,0.443125 69.393737,0.440625 70.2936125,0.445 C70.5140035,0.44625 70.6395675,0.605625 70.7670934,0.74875 C73.1403841,3.410625 75.5130208,6.073125 77.8869654,8.734375 C78.5729896,9.50375 78.5010519,9.46375 79.1164464,8.77125 C81.4943149,6.091875 83.8924567,3.43 86.2722872,0.753125 C86.4737128,0.5275 86.6790623,0.4325 86.9851246,0.4375 C87.8352976,0.4525 88.6861246,0.4425 89.6291626,0.4425 Z" id="Path" fill="#CCCDE5"></path>
                <path d="M0.468249135,24.484375 C0.476096886,24.28125 0.490484429,24.078125 0.490484429,23.874375 C0.492446367,16.095 0.493754325,8.315 0.495062284,0.53625 C0.623242215,0.389375 0.799816609,0.445 0.956771626,0.445 C6.69216955,0.4425 12.4269135,0.4425 18.1616574,0.444375 C18.3061869,0.444375 18.458564,0.409375 18.6397163,0.5275 C18.6397163,1.679375 18.6397163,2.861875 18.6397163,4.045 C18.4526782,4.17 18.2499446,4.1125 18.0609446,4.1125 C13.8048478,4.11625 9.54875087,4.115 5.29265398,4.115625 C4.64063668,4.115625 4.63540484,4.12125 4.63540484,4.75125 C4.63475087,6.41625 4.63344291,8.080625 4.63736678,9.745625 C4.63736678,9.928125 4.57916263,10.125 4.73088581,10.2925 C4.89634256,10.378125 5.08076471,10.335 5.2573391,10.335 C8.98763668,10.338125 12.7179343,10.336875 16.4482318,10.3375 C17.0989412,10.3375 17.1087509,10.3475 17.1094048,10.97125 C17.1100588,11.803125 17.1107128,12.635625 17.1087509,13.4675 C17.1087509,13.638125 17.136872,13.815 17.0335433,13.976875 C16.8484671,14.0575 16.6483495,14.01875 16.4541176,14.01875 C12.756519,14.02125 9.05892042,14.020625 5.36197578,14.020625 C4.65110035,14.020625 4.63540484,14.035 4.63540484,14.696875 C4.63540484,17.80625 4.63540484,20.915625 4.63540484,24.025625 C4.63540484,24.195625 4.63540484,24.36625 4.63540484,24.479375 C4.48629758,24.669375 4.33326644,24.65125 4.18612111,24.65125 C3.08482007,24.65125 1.98417301,24.650625 0.882871972,24.651875 C0.718069204,24.653125 0.547380623,24.67375 0.468249135,24.484375 Z" id="Path" fill="#CCCDE5"></path>
                <path d="M22.5760173,24.6525 C22.5760173,16.55625 22.5760173,8.5325 22.5760173,0.48375 C23.9617993,0.48375 25.3109585,0.48375 26.6404983,0.48375 C26.77391,0.6975 26.7215917,0.89 26.7215917,1.073125 C26.7248616,7.494375 26.7242076,13.914375 26.7242076,20.33625 C26.7242076,20.96125 26.7307474,20.968125 27.3866886,20.96875 C31.625128,20.96875 35.8629135,20.96875 40.1013529,20.96875 C40.2962388,20.96875 40.4911246,20.96875 40.6559273,20.96875 C40.8102664,21.15875 40.7736436,21.335625 40.7742976,21.50375 C40.7769135,22.3675 40.7566401,23.23125 40.7834533,24.094375 C40.7971869,24.5225 40.6565813,24.66375 40.195526,24.661875 C36.6803875,24.645625 33.1645952,24.6525 29.6494567,24.6525 C27.4972111,24.6525 25.3456194,24.6525 23.1933737,24.6525 C23.0161453,24.6525 22.838917,24.6525 22.5760173,24.6525 Z" id="Path" fill="#CCCDE5"></path>
                <path d="M188.635734,0.535625 C188.639003,1.69875 188.642273,2.861875 188.646197,4.024375 C188.505592,4.19375 188.309398,4.11125 188.141979,4.11125 C185.759533,4.1175 183.378394,4.115625 180.995948,4.115625 C180.276571,4.115625 180.271993,4.12 180.271993,4.7925 C180.271993,11.198125 180.271993,17.6025 180.271993,24.008125 C180.271993,24.193125 180.271993,24.378125 180.271993,24.606875 C178.8679,24.606875 177.520702,24.606875 176.188547,24.606875 C176.048595,24.386875 176.104183,24.1775 176.104183,23.979375 C176.100913,17.59 176.101567,11.200625 176.101567,4.81125 C176.101567,4.1225 176.095028,4.11625 175.394616,4.11625 C173.029827,4.11625 170.664384,4.11625 168.298287,4.11625 C168.120405,4.11625 167.941215,4.11625 167.722785,4.11625 C167.722785,2.8925 167.722785,1.710625 167.722785,0.54875 C167.901322,0.386875 168.09163,0.445625 168.264934,0.445625 C174.884512,0.4425 181.504744,0.4425 188.124322,0.445625 C188.297626,0.445625 188.491204,0.379375 188.635734,0.535625 Z" id="Path" fill="#CCCDE5"></path>
                <path d="M129.490505,0.046875 C122.59691,0.003125 116.386723,5.1925 116.383453,12.496875 C116.380837,19.78 122.552439,24.95875 129.412682,24.95375 C136.9511,24.948125 142.575976,18.900625 142.408557,12.503125 C142.57663,6.116875 136.985107,0.094375 129.490505,0.046875 Z M129.408758,21.16625 C124.634055,21.17 120.339374,17.56625 120.341336,12.4975 C120.343952,7.415 124.665446,3.803125 129.462384,3.83375 C134.678522,3.866875 138.569699,8.058125 138.451983,12.501875 C138.569045,16.954375 134.654325,21.1625 129.408758,21.16625 Z" id="Shape" fill="#CCCDE5"></path>
                <path d="M112.786567,4.6475 C111.219633,1.89625 108.695927,0.51125 105.444343,0.456875 C101.814104,0.39625 98.1819031,0.4425 94.5503564,0.445 C94.373782,0.445 94.1893599,0.4425 94.0219412,0.53 C93.8610623,0.970625 93.8826436,24.0625 94.0474464,24.6875 C95.3782941,24.6875 97.115263,24.6875 98.4232215,24.6875 C98.4232215,24.6875 98.4232215,24.18875 98.4232215,24.018125 C98.4232215,21.45875 98.2708443,18.899375 98.2708443,16.339375 C98.2708443,15.723125 98.1989066,15.719375 98.8653114,15.71875 C100.80436,15.71875 102.704824,15.725 104.643872,15.715625 C105.429955,15.711875 106.195765,15.738125 106.98381,15.628125 C112.255536,14.894375 115.331855,9.11625 112.786567,4.6475 Z M106.519484,11.9275 C106.235003,11.995 105.945291,12.036875 105.646422,12.03625 C103.297329,12.030625 100.948235,12.03375 98.5997958,12.031875 C98.4716159,12.031875 98.3362422,12.06125 98.2204879,11.97625 C98.0798824,11.850625 98.1197751,11.685625 98.1197751,11.5325 C98.1178131,9.240625 98.1263149,6.94875 98.1112734,4.6575 C98.1080035,4.249375 98.2453391,4.106875 98.6776194,4.109375 C100.960661,4.124375 103.243702,4.10625 105.526744,4.119375 C107.875183,4.133125 109.653353,5.64375 109.818156,7.870625 C109.959415,9.780625 108.595215,11.43375 106.519484,11.9275 Z" id="Shape" fill="#CCCDE5"></path>
                <path d="M165.13826,21.70375 C164.080121,20.405 163.032446,19.0975 161.98281,17.7925 C161.355644,17.013125 160.730439,16.233125 160.128125,15.483125 C160.219682,15.204375 160.427647,15.175625 160.604221,15.100625 C164.065734,13.629375 165.921073,10.318125 165.324644,6.8375 C164.671318,3.020625 161.196727,0.304375 157.148595,0.36625 C153.649152,0.42 150.148401,0.3125 146.648304,0.3125 C146.470422,0.3125 146.818993,0.3125 146.165014,0.3125 C146.165014,8.4375 146.165014,16.5625 146.165014,24.6875 C147.472972,24.6875 148.796626,24.6875 150.103931,24.6875 C150.225571,24.6875 150.182408,24.2575 150.182408,24.088125 C150.185678,21.496875 150.19091,18.884375 150.177176,16.2925 C150.175215,15.895625 150.288353,15.714375 150.733059,15.721875 C152.047557,15.74125 153.362055,15.729375 154.676554,15.719375 C154.98327,15.716875 155.189273,15.815 155.378927,16.051875 C157.582183,18.803125 159.798519,21.54375 162.003083,24.294375 C162.212356,24.555625 162.446481,24.67125 162.795706,24.66 C163.467997,24.638125 164.142903,24.654375 164.816502,24.651875 C164.993076,24.650625 165.18273,24.693125 165.370422,24.504375 C165.370422,23.82875 165.359304,23.108125 165.376962,22.388125 C165.382848,22.121875 165.308294,21.91375 165.13826,21.70375 Z M150.512668,12.031875 C150.434844,12.031875 150.357021,12.005625 150.306664,11.996875 C150.134014,11.83 150.186332,11.648125 150.185678,11.48125 C150.183062,9.219375 150.196142,6.958125 150.173907,4.69625 C150.169329,4.233125 150.330208,4.103125 150.800419,4.1075 C152.986017,4.126875 155.17227,4.096875 157.357215,4.120625 C160.319087,4.153125 162.326803,6.849375 161.32883,9.421875 C160.772294,10.855625 159.199474,11.995625 157.610958,12.019375 C155.246824,12.055 152.880073,12.0325 150.512668,12.031875 Z" id="Shape" fill="#CCCDE5"></path>
            </g>
        </g>
    </g>
</svg>