<?xml version="1.0" encoding="UTF-8"?>
<svg width="104px" height="27px" viewBox="0 0 104 27" version="1.1" xmlns="http://www.w3.org/2000/svg" xmlns:xlink="http://www.w3.org/1999/xlink">
    <!-- Generator: Sketch 53.2 (72643) - https://sketchapp.com -->
    <title>Group 15</title>
    <desc>Created with Sketch.</desc>
    <defs>
        <polygon id="path-1" points="0 0.00263202784 21.3115416 0.00263202784 21.3115416 26.0673552 0 26.0673552"></polygon>
        <polygon id="path-3" points="0.000528025972 0.00871867795 16.7204086 0.00871867795 16.7204086 19.6039604 0.000528025972 19.6039604"></polygon>
    </defs>
    <g id="Page-1" stroke="none" stroke-width="1" fill="none" fill-rule="evenodd">
        <g id="Artboard" transform="translate(-965.000000, -5655.000000)">
            <g id="Group-15" transform="translate(965.000000, 5655.000000)">
                <g id="Group-3" transform="translate(0.000000, 0.454812)">
                    <mask id="mask-2" fill="white">
                        <use xlink:href="#path-1"></use>
                    </mask>
                    <g id="Clip-2"></g>
                    <path d="M21.2629573,4.04054554 C21.2362157,2.15994653 21.1925753,0.487817822 21.1659236,0.324793069 L21.1176539,0.0284168317 L10.8047101,0.00738712871 C5.13262022,-0.00410792079 0.381204494,0.00596138614 0.245923596,0.0297980198 L-8.98876404e-06,0.0732386139 L0.0216539326,0.68060495 L0.0431820225,1.2880604 L0.828035955,1.38122376 C1.84704719,1.50214455 2.45540674,1.78564455 2.81644045,2.30768911 C3.63005843,3.48437228 3.77805843,5.08592673 3.77639551,12.6992584 C3.77459775,20.8060752 3.60457528,22.7748921 2.81787865,23.7975505 C2.41203596,24.324897 2.08340674,24.4976792 1.16448539,24.6667188 C-0.0334921348,24.886996 0.00592359551,24.8595059 0.00592359551,25.4735554 C0.00592359551,25.8153772 0.0372494382,26.0000554 0.0993168539,26.0249168 C0.234013483,26.0787386 13.4248449,26.0827931 13.5662831,26.0288822 C13.7468674,25.9602683 13.7360809,24.994105 13.5536539,24.9007188 C13.4817438,24.8638277 13.036036,24.7762337 12.5632719,24.7060604 C12.0905528,24.6358426 11.5687551,24.5202238 11.4038562,24.4490257 C10.5403056,24.0759267 10.0594067,23.045204 9.87882247,21.1797089 C9.74929438,19.8415604 9.64817079,17.3759168 9.64817079,15.5533723 L9.64817079,13.8808426 L10.4516764,13.9051693 C12.1629124,13.9567188 13.0474517,14.0458723 13.4049798,14.2025703 C14.1790472,14.5420307 14.8054742,15.4888574 15.1309573,16.811501 L15.3041708,17.5154614 L15.9145079,17.5370257 L16.5248,17.5585901 L16.5248,8.65469406 L15.9147326,8.67621386 L15.3046652,8.69777822 L15.126373,9.40129307 C14.7809798,10.7639465 14.2172944,11.6008129 13.3887551,11.9810851 C13.0514966,12.1359119 12.8119461,12.1782832 12.0059685,12.2260901 C11.4697438,12.2578574 10.7198562,12.2855703 10.3395865,12.2877089 L9.64817079,12.2916297 L9.64731685,10.0872089 C9.64650787,7.87730792 9.76646292,3.18456535 9.84255281,2.45507525 L9.88313708,2.06602574 L12.2354067,2.06602574 C14.9383281,2.06602574 15.3808,2.12229802 16.3379236,2.58784752 C17.7256539,3.26289208 18.7398112,4.59961485 19.6242157,6.91952079 C19.9842607,7.86394158 19.9794966,7.86100099 20.7798562,7.62000594 L21.3115416,7.45992178 L21.2629573,4.04054554 Z" id="Fill-1" fill="#CCCEE5" mask="url(#mask-2)"></path>
                </g>
                <path d="M28.5437663,25.4520757 L28.5437663,25.4520757 C26.5010247,26.0533827 25.0383281,24.1245312 24.4719011,20.08215 C24.2888449,18.7760361 24.2898337,15.2169817 24.473609,13.7230262 C24.8734742,10.473046 25.8856989,8.82248168 27.4805753,8.81998663 C28.199182,8.81887277 28.5977438,8.99308069 29.1597663,9.55415495 C30.4981483,10.8901649 31.1323056,13.4418431 31.122373,17.4517441 C31.1143281,20.6513777 30.7933393,22.6664421 30.0745079,24.0290064 C29.7262382,24.6890807 29.0732494,25.2961797 28.5437663,25.4520757 M36.8635416,15.6005955 C36.4722157,12.312254 35.0661034,9.90537772 32.7447101,8.55087772 C30.1652494,7.04578366 26.2453843,6.95872426 23.4603506,8.34463515 C21.4492944,9.34541733 19.8060584,11.2730213 19.0762607,13.4874668 C18.3232719,15.7724866 18.3234966,18.7714916 19.0770247,21.1041401 C19.5595865,22.5980955 20.2142831,23.6884767 21.224036,24.679947 C22.4345079,25.868749 24.0197663,26.6292936 25.8321708,26.8907837 C26.4813393,26.9845262 28.5285303,26.9864421 29.199182,26.8938579 C29.5161258,26.8502391 30.0651596,26.7312342 30.419227,26.62965 C33.7047551,25.6863876 35.9473169,23.1835411 36.7173393,19.6006054 C36.9054742,18.7252886 36.9829573,16.6045411 36.8635416,15.6005955" id="Fill-4" fill="#CCCEE5"></path>
                <path d="M50.3433888,7.33720545 C49.4748944,7.33720545 49.0058157,7.43250743 48.3028045,7.75191832 C47.0222202,8.33366584 46.059164,9.2867302 45.2004225,10.8218985 L44.9321528,11.3014827 L44.9666697,10.4493342 C44.985636,9.98066584 45.0174112,9.10534901 45.0373663,8.5042203 L45.073591,7.4112995 L44.8890067,7.4112995 C44.6524225,7.4112995 37.2476584,8.87861139 37.023973,8.96972525 C36.8783101,9.02916089 36.8558382,9.09296287 36.8558382,9.44605693 C36.8558382,9.80917574 36.8742202,9.85756188 37.023973,9.88848267 C37.1164674,9.90759653 37.4565573,9.97353713 37.7797483,10.0350668 C38.4346697,10.1596856 38.6292315,10.2603787 38.899164,10.6146757 C39.3970966,11.2682005 39.4997483,12.4212252 39.4943551,17.3035025 C39.4900404,21.2955817 39.4059955,23.2835124 39.2153438,23.9048243 C38.9812315,24.6676856 38.5653213,25.057047 37.8415461,25.1911114 C37.6077483,25.2343738 37.2986697,25.294745 37.1548045,25.3251312 L36.8931865,25.3802896 L36.8707596,25.8922649 C36.8550742,26.2517302 36.8773663,26.4226856 36.9455011,26.4656807 C36.9989393,26.4995421 39.5317483,26.5191015 42.5740404,26.509255 L48.1052764,26.4916114 L48.1270742,25.917349 C48.1390742,25.601547 48.1223101,25.3430866 48.0897258,25.3430866 C47.6600629,25.3426411 46.3434787,25.163755 46.1354337,25.0776312 C45.5116584,24.8192599 45.209591,24.2645569 45.0792989,23.1377748 C44.9264,21.8150866 44.8357933,18.5264332 44.8779506,15.8303985 C44.9205573,13.1079431 44.9213663,13.0969381 45.092827,12.9146658 C45.493636,12.4884579 46.5089169,12.1565718 47.4178157,12.1546559 C48.1476584,12.1530965 48.8994787,12.3394233 49.7008719,12.7206757 C50.0851416,12.9035718 50.4395236,13.0378144 50.4883326,13.0192797 C50.5884225,12.9812748 52.403164,8.22771535 52.403164,8.00365099 C52.403164,7.67033911 51.3733663,7.33720545 50.3433888,7.33720545" id="Fill-6" fill="#CCCEE5"></path>
                <path d="M103.478503,18.2235921 C102.849649,16.9775822 101.69302,16.1249881 99.2687056,15.1207307 C97.2893798,14.3007505 96.2958067,13.7329485 95.6893348,13.0750574 C95.1972899,12.5413396 95.0533348,12.1097851 95.1011551,11.3114584 C95.1452,10.5746168 95.3271326,10.1358446 95.7933348,9.64173564 C96.3909978,9.0083495 97.2132449,8.78642376 98.1974247,8.99284455 C99.8125258,9.33154752 100.84902,10.4402851 101.7412,12.7835822 C102.059447,13.6195574 102.09711,13.6459337 102.669245,13.4353693 L103.031178,13.3021515 L103.018458,12.3389287 C103.011492,11.8090871 102.984121,10.6967406 102.957649,9.86691386 L102.909604,8.35812178 L102.640166,8.24504257 C101.163088,7.62506733 98.3440315,7.23895842 96.5075371,7.40505743 C94.421964,7.59370099 92.8909978,8.25007723 91.7117169,9.46106733 C90.5397618,10.6643495 90.0110427,12.0765475 90.1048404,13.7516168 C90.1825034,15.1379287 90.5960315,16.1331416 91.4578292,17.0075673 C92.2566157,17.8181465 92.9275371,18.2013594 94.850773,18.9461317 C97.9550876,20.1482554 98.7767506,20.8602802 98.7698292,22.3422059 C98.7640764,23.5935178 98.094818,24.509602 96.8745483,24.9365673 C96.4389079,25.0891218 95.3354921,25.0877851 94.7470427,24.9339832 C93.204391,24.5310327 92.0233573,23.2062059 91.0163011,20.7491168 L90.7581888,20.1192505 L90.4552225,20.133196 C90.2885258,20.140904 90.0593124,20.1913842 89.9456944,20.245295 L89.7391326,20.3434931 L89.7584135,21.4169436 C89.7690202,22.0073792 89.7987281,23.2523198 89.8246157,24.1832851 L89.871627,25.8761317 L90.2163011,26.0228495 C90.921964,26.3236366 93.0412899,26.7835723 94.3729753,26.9250772 C94.5373798,26.9425426 95.4455596,26.9483347 96.3909978,26.9382653 C98.0317618,26.9203099 98.1495596,26.9093495 98.9746831,26.6957109 C101.410818,26.0648644 102.987627,24.7193644 103.686234,22.6757406 C103.900526,22.0489485 103.930683,21.857097 103.961515,20.9234584 C104.002548,19.6792752 103.886908,19.0329238 103.478503,18.2235921" id="Fill-8" fill="#CCCEE5"></path>
                <g id="Group-12" transform="translate(72.000000, 7.360752)">
                    <mask id="mask-4" fill="white">
                        <use xlink:href="#path-3"></use>
                    </mask>
                    <g id="Clip-11"></g>
                    <path d="M5.4912764,7.62615891 L5.4912764,7.62615891 C5.4349618,7.53598069 5.57446742,6.2170797 5.71262472,5.53392624 C6.04529888,3.88723812 6.57801798,2.69816881 7.31118652,1.96596089 C7.7055236,1.57214406 7.88538876,1.44935198 8.2069618,1.35467376 C8.42831011,1.28953515 8.67891685,1.23642624 8.76404045,1.23664901 C9.1069618,1.23749554 9.51163596,1.4110797 9.81284944,1.68629257 C10.6213438,2.42505 11.0839506,4.01141139 11.175591,6.35965396 L11.2207596,7.51878267 L10.4434562,7.56177772 C8.88300674,7.64794604 5.53199551,7.69160941 5.4912764,7.62615891 M16.6570742,7.4975302 C16.3120404,4.16784208 14.9521303,1.87515891 12.6408045,0.726901485 C10.5879506,-0.292905446 7.41666966,-0.219479703 5.09707416,0.90155495 C2.89936629,1.96368861 1.38651236,3.73584208 0.542332584,6.23663911 C0.102692135,7.53914406 -0.0358696629,8.58742129 0.00835505618,10.2762134 C0.0363101124,11.3436936 0.0855685393,11.895545 0.19698427,12.3886292 C1.06350112,16.222451 3.71550112,18.8294213 7.42377079,19.4923916 C8.24026517,19.6383965 10.0937483,19.6417827 10.918827,19.4985401 C12.0968944,19.2943025 13.4555461,18.774753 14.3122202,18.2010698 C15.3582427,17.5005847 16.4306472,16.4477183 16.4306472,16.1211342 C16.4306472,15.921753 16.0711416,15.4630649 15.9150067,15.4630649 C15.8467371,15.4630649 15.5563551,15.6132579 15.2698382,15.7969559 C14.246827,16.4525748 13.2687146,16.7216391 11.9085348,16.7216391 C10.0325798,16.7216391 8.84332135,16.2584955 7.64799551,15.0619411 C7.11878202,14.5323668 6.90098427,14.2464163 6.62732135,13.7217876 C6.02529888,12.5677827 5.69986067,11.2402381 5.6509618,9.73946584 L5.62992809,9.0915995 L11.1611191,9.07257475 L16.6923551,9.05359455 L16.7169393,8.68312426 C16.7303775,8.47933218 16.703591,7.94588168 16.6570742,7.4975302" id="Fill-10" fill="#CCCEE5" mask="url(#mask-4)"></path>
                </g>
                <path d="M60.9299191,25.4162851 C60.5360764,25.4902455 60.4182787,25.4923396 59.7060539,25.4367802 C59.4033573,25.4132554 59.3362112,25.3794386 59.2753124,25.2204238 C59.1796719,24.9712307 59.0658292,16.286097 59.1127056,12.8169089 L59.1491551,10.1087109 L59.6442562,9.96413168 C59.9749528,9.86749307 60.3638517,9.81955248 60.8160315,9.81955248 C61.4483011,9.81955248 61.5304135,9.83795347 62.0634022,10.0991317 C63.3482112,10.7288198 64.2289753,12.2926812 64.638818,14.6720673 C64.7903685,15.5518396 64.8087506,17.9536366 64.6720315,19.0077059 C64.3363011,21.595696 63.4829079,23.684498 62.3477169,24.6961069 C61.894773,25.0998594 61.4729303,25.3141218 60.9299191,25.4162851 M70.3561213,14.0431812 C69.6115371,10.6600723 67.4807056,8.32368119 64.6012449,7.73302277 C64.1609303,7.64275545 63.7631775,7.62417624 62.9048404,7.6538495 C61.615582,7.69844851 60.7278966,7.8898099 59.7647506,8.33094356 C59.4452449,8.4772604 59.1662787,8.59702277 59.1448854,8.59702277 C59.1234472,8.59702277 59.1267281,6.66304752 59.1521213,4.2993 C59.1879416,0.968809901 59.1780539,0.00122079208 59.1082112,1.78217821e-05 C58.8650652,-0.00403663366 51.2314022,1.43939406 51.1475371,1.50533465 C51.0849753,1.55447822 51.0585034,1.71465149 51.0727955,1.95711683 C51.0975596,2.37797822 51.0470427,2.34478515 51.9776944,2.55205248 C52.2576944,2.61442871 52.5855596,2.73517129 52.7061888,2.8202703 C53.0167955,3.03956733 53.2750427,3.51407228 53.453964,4.19446337 C53.5952674,4.73143366 53.6142337,5.11522574 53.6794022,8.74516634 C53.745964,12.4506713 53.7330652,16.2609683 53.6301888,23.2406465 L53.5875371,26.1396267 L54.1350876,26.2630871 C54.9266831,26.4415277 57.1927056,26.8153396 57.9342787,26.8898792 C59.0218742,26.9991713 61.5573348,26.9839782 62.3647506,26.8634139 C65.8700539,26.3396317 68.5122562,24.3240772 69.7438067,21.2345376 C70.0701888,20.415805 70.3838067,19.1541564 70.4937843,18.2177554 C70.6226382,17.1191762 70.5504135,14.9256713 70.3561213,14.0431812" id="Fill-13" fill="#CCCEE5"></path>
            </g>
        </g>
    </g>
</svg>