<?xml version="1.0" encoding="UTF-8"?>
<svg width="155px" height="26px" viewBox="0 0 155 26" version="1.1" xmlns="http://www.w3.org/2000/svg" xmlns:xlink="http://www.w3.org/1999/xlink">
    <!-- Generator: Sketch 53.2 (72643) - https://sketchapp.com -->
    <title>Group 4</title>
    <desc>Created with Sketch.</desc>
    <g id="Page-1" stroke="none" stroke-width="1" fill="none" fill-rule="evenodd">
        <g id="Artboard" transform="translate(-400.000000, -5665.000000)" fill="#CCCEE6">
            <g id="Group-4" transform="translate(400.000000, 5665.000000)">
                <path d="M0.153238636,25.1428667 C-0.0510795455,25.1428667 -0.0510795455,24.9418 0.153238636,24.9418 C0.868352273,24.5396667 2.50377841,24.2380667 2.50377841,21.0201333 L2.50377841,4.02306667 C2.50377841,2.11206667 0.868352273,0.905666667 0.255397727,0.805133333 L0.255397727,0.604066667 L18.3446023,0.604066667 L18.4467614,0.7046 L18.4467614,5.53193333 C18.4467614,5.733 18.2424432,5.733 18.2424432,5.63246667 C17.7316477,4.1236 15.7897443,2.5142 13.6435227,2.5142 L6.48974432,2.5142 L6.48974432,10.9624667 L12.7232102,10.9624667 C14.2564773,10.9624667 16.0962216,9.555 16.4026989,8.04613333 L16.607017,8.04613333 L16.607017,15.7898 L16.4026989,15.7898 C15.7897443,14.4828667 14.2564773,12.8734667 12.7232102,12.8734667 L6.48974432,12.8734667 L6.48974432,20.9187333 C6.48974432,23.7354 7.71565341,24.1375333 9.24892045,24.9418 C9.35107955,24.9418 9.35107955,25.1428667 9.24892045,25.1428667 L0.153238636,25.1428667" id="Fill-2"></path>
                <path d="M58.8968025,13.456658 L63.9242898,21.9249333 C65.4575568,24.3386 66.0705114,24.5396667 67.0921023,24.7407333 L67.0921023,25.1428667 L61.0629545,25.1428667 L54.95156,13.8788 L50.8435227,13.8788 L50.8435227,20.9187333 C50.8435227,23.5343333 51.3543182,24.037 53.1940625,24.9418 L53.1940625,25.1428667 L44.404858,25.1428667 L44.404858,24.9418 C45.4264489,24.1375333 46.9597159,24.2380667 46.9597159,21.0201333 L46.9597159,3.92253333 C46.8575568,2.11206667 46.1424432,1.3078 44.3026989,0.7046 L44.3026989,0.604066667 L56.6683523,0.604066667 C59.9383239,0.7046 60.9607955,1.3078 62.5962216,2.6156 C64.8446023,4.4252 65.661875,9.8566 61.2672727,12.4713333 C60.3904837,12.9543548 59.6099498,13.2597701 58.8968025,13.456658 Z M55.7489205,2.31313333 L50.8435227,2.31313333 L50.8435227,12.0692 L55.238125,12.0692 C61.8802273,12.0692 61.3694318,2.31313333 55.7489205,2.31313333 Z" id="Combined-Shape"></path>
                <path d="M110.730767,0.604066667 L116.044801,0.604066667 L129.739403,17.3992 L129.739403,4.82733333 C129.739403,2.2126 129.126449,1.70993333 127.388864,0.805133333 L127.388864,0.604066667 L134.031847,0.604066667 L134.031847,0.805133333 C133.010256,1.50886667 131.681307,1.50886667 131.681307,4.72766667 L131.681307,25.1428667 L130.659716,25.1428667 L114.818892,5.93406667 L114.818892,20.5166 C114.818892,23.3324 115.636165,24.037 117.475909,24.9418 L117.475909,25.1428667 L110.42429,25.1428667 L110.42429,24.9418 C111.446761,24.1375333 112.67267,23.2318667 112.67267,20.0139333 L112.67267,4.82733333 L112.77483,4.82733333 C112.77483,2.2126 112.161875,1.70993333 110.42429,0.805133333 L110.42429,0.604066667 L116.044801,0.604066667 L110.730767,0.604066667" id="Fill-5"></path>
                <path d="M104.905938,18.5050667 L104.905938,4.82733333 C104.905938,2.2126 104.292102,1.70993333 102.555398,0.805133333 L102.555398,0.604066667 L109.504858,0.604066667 L109.504858,0.805133333 C108.482386,1.50886667 107.154318,1.50886667 107.154318,4.72766667 L107.256477,17.6002667 C107.256477,21.0201333 105.621051,25.3439333 98.9780682,25.3439333 C89.9845455,25.3439333 88.5543182,20.3155333 88.5543182,17.7008 L88.5543182,4.82733333 C88.5543182,2.2126 87.940483,1.70993333 86.2037784,0.805133333 L86.2037784,0.604066667 L94.8908239,0.604066667 L94.8908239,0.805133333 C93.8683523,1.50886667 92.6415625,1.50886667 92.6415625,4.72766667 L92.6415625,18.4045333 C92.6415625,20.6171333 94.2769886,23.5343333 98.9780682,23.5343333 C103.270511,23.5343333 104.905938,21.1206667 104.905938,18.5050667" id="Fill-6"></path>
                <path d="M154.778068,19.0086 L153.654318,25.1428667 L134.952159,25.1428667 L134.952159,24.9418 C136.586705,24.1375333 137.199659,23.4338 137.302699,21.5228 L137.302699,3.92253333 C137.199659,2.11206667 136.586705,1.6094 134.952159,0.805133333 L134.952159,0.604066667 L153.34696,0.604066667 L153.34696,5.63246667 L153.244801,5.63246667 C152.836165,4.02306667 149.770511,2.2126 148.032926,2.2126 L141.389943,2.2126 L141.389943,11.2640667 L147.317813,11.2640667 C149.770511,11.1635333 150.485625,10.5603333 151.405938,8.95093333 L151.610256,8.95093333 L151.610256,15.3876667 L151.405938,15.3876667 C150.587784,14.3823333 150.281307,13.0745333 147.011335,13.0745333 L141.389943,13.0745333 L141.389943,20.9187333 C141.492102,21.9249333 142.208097,23.3324 146.807017,23.3324 C150.894261,23.3324 153.654318,21.8244 154.57375,19.0086 L154.778068,19.0086" id="Fill-7"></path>
                <path d="M73.9402841,18.304 L73.9402841,2.2126 C68.4210511,2.2126 67.9102557,2.81666667 65.8661932,6.13513333 L65.7640341,6.0346 L66.9908239,0.100533333 C67.0921023,0.403 67.6037784,0.503533333 68.1145739,0.604066667 L83.9553977,0.604066667 C84.4661932,0.503533333 84.8748295,0.403 85.0791477,0.100533333 L86.3059375,6.0346 L86.2037784,6.13513333 C84.0575568,2.81666667 83.5467614,2.2126 78.0275284,2.2126 L78.0275284,18.6064667 L78.0275284,18.304 L78.0275284,20.8182 C78.0275284,24.037 79.6629545,24.1375333 80.6845455,24.9418 L80.6845455,25.1428667 L71.2823864,25.1428667 L71.2823864,24.9418 C72.304858,24.1375333 73.9402841,24.037 73.9402841,20.8182 L73.9402841,18.304" id="Fill-8"></path>
                <path d="M18.3446023,12.6724 C18.3446023,5.63246667 24.37375,2.00728323e-13 31.8348864,2.00728323e-13 C39.295142,2.00728323e-13 45.3242898,5.63246667 45.3242898,12.6724 C45.3242898,19.7123333 39.295142,25.3439333 31.8348864,25.3439333 C24.37375,25.3439333 18.3446023,19.7123333 18.3446023,12.6724 Z M31.8348864,23.7354 C36.7402841,23.7354 40.6232102,18.707 40.6232102,12.6724 C40.6232102,6.6378 36.7402841,1.70993333 31.8348864,1.70993333 C27.030767,1.70993333 23.0456818,6.6378 23.0456818,12.6724 C23.0456818,18.707 27.030767,23.7354 31.8348864,23.7354 L31.8348864,23.7354 Z" id="Fill-9"></path>
            </g>
        </g>
    </g>
</svg>