<?xml version="1.0" encoding="UTF-8"?>
<svg width="140px" height="36px" viewBox="0 0 140 36" version="1.1" xmlns="http://www.w3.org/2000/svg" xmlns:xlink="http://www.w3.org/1999/xlink">
    <!-- Generator: Sketch 53.2 (72643) - https://sketchapp.com -->
    <title>Group 24</title>
    <desc>Created with Sketch.</desc>
    <g id="Page-1" stroke="none" stroke-width="1" fill="none" fill-rule="evenodd">
        <g id="Artboard" transform="translate(-704.000000, -4136.000000)">
            <g id="Group-24" transform="translate(704.000000, 4136.000000)">
                <polygon id="Fill-1" fill="#FFFFFF" points="47.0897264 27.0937755 43.9685629 27.0937755 43.9685629 12.2679915 48.0408899 12.2679915 52.8286258 20.7879127 52.8286258 12.2679915 55.9379025 12.2679915 55.9379025 27.0937755 52.6360157 27.0937755 47.0897264 16.9974446"></polygon>
                <polygon id="Fill-2" fill="#FFFFFF" points="68.1917107 12.270839 58.6712704 12.270839 58.6712704 27.0937082 68.1917107 27.0937082 68.1917107 24.2444672 62.0464591 24.2444672 62.0464591 20.6382984 67.728566 20.6371774 67.728566 17.6675364 62.0649497 17.6675364 62.0649497 15.1826341 68.1917107 15.1826341"></polygon>
                <g id="Group-15" transform="translate(69.548387, 11.807938)">
                    <path d="M0.615210388,0.462900773 L12.1374745,0.462900773 L12.1374745,3.37469596 L8.07197139,3.37469596 L8.07197139,15.28577 L4.70470724,15.28577 L4.706028,3.3785075 C4.706028,3.3785075 1.13800913,3.37469596 0.615210388,3.37469596 L0.615210388,0.462900773 Z" id="Fill-3" fill="#FFFFFF"></path>
                    <path d="M4.70600598,3.37848508 C4.70600598,3.37848508 0.776760702,3.37467353 0.615188375,3.37467353" id="Fill-5" fill="#000000"></path>
                    <path d="M14.2376286,11.9100203 C15.0514337,12.4010368 16.362723,13.6613125 18.5877544,13.8980767 C21.2512764,14.1817003 22.3714966,12.7189644 22.5013708,11.4669844 C22.6935406,9.6130047 21.1075343,9.21570732 18.7587921,8.74419694 C16.1606475,8.22246387 14.4918739,7.72808423 14.2492953,4.54499682 C14.0670311,2.15695258 16.0492638,0.0128471444 19.9043267,0.176519315 C21.3804903,0.239073474 22.940962,0.685472504 23.72505,1.20765399 L23.7149242,3.52529677 C23.1419368,3.15669808 21.7298299,2.02018543 19.1842953,1.88767823 C17.2020626,1.78454234 16.1186035,3.09391971 16.1100186,4.19904318 C16.089767,6.71847356 18.1314337,6.43529829 20.1145469,6.95523769 C22.8652387,7.67651629 24.362094,8.38434237 24.3015594,11.2199067 C24.2449871,13.8599612 21.9741695,15.5769496 18.5675028,15.5769496 C16.9693896,15.5769496 15.2625343,15.0168768 14.2376286,14.4027699 L14.2376286,11.9100203 Z" id="Fill-7" fill="#FFFFFF"></path>
                    <path d="M29.5451978,0.462900773 L29.5451978,9.28864233 C29.5451978,12.5981833 30.922745,14.0104724 32.7731223,14.0104724 C34.8086255,14.0104724 36.144789,12.5542384 36.144789,9.28864233 L36.144789,0.462900773 L37.9540028,0.462900773 L37.9540028,9.15635934 C37.9540028,13.7237097 35.7133425,15.5770168 32.7114871,15.5770168 C29.8742859,15.5770168 27.735984,13.8559927 27.735984,9.22227662 L27.735984,0.462900773 L29.5451978,0.462900773 Z" id="Fill-9" fill="#FFFFFF"></path>
                    <polygon id="Fill-11" fill="#FFFFFF" points="43.2004808 15.2858597 44.9247261 15.2858597 44.9247261 0.462990456 43.2004808 0.462990456"></polygon>
                    <polygon id="Fill-13" fill="#FFFFFF" points="47.9358047 0.462900773 59.041811 0.462900773 59.041811 2.20522466 54.343006 2.20522466 54.343006 15.28577 52.6119368 15.28577 52.6119368 2.20522466 47.9358047 2.20522466"></polygon>
                    <polygon id="Fill-14" fill="#FFFFFF" points="70.2729808 0.462900773 61.7356223 0.462900773 61.7356223 15.28577 70.2729808 15.28577 70.2729808 13.5761806 63.392289 13.5761806 63.392289 8.05504742 70.2729808 8.05504742 70.2729808 6.3174319 63.392289 6.3174319 63.392289 2.20522466 70.2729808 2.20522466"></polygon>
                </g>
                <polygon id="Fill-16" fill="#FFFFFF" points="0 0.224275716 0 8.58299106 13.8221384 8.58299106 22.6386164 19.9680721 22.6386164 0.224275716"></polygon>
                <g id="Group-23" transform="translate(1.540881, 1.869899)" fill="#FFFFFF">
                    <path d="M12.2315975,14.2214749 C15.1709371,17.924726 17.9916289,21.7483769 20.8983899,25.4843624 L34.7953711,25.4843624 L34.7953711,33.8554092 L12.2315975,33.8554092 L12.2315975,14.2214749 Z" id="Fill-17"></path>
                    <polygon id="Fill-19" points="22.5171069 6.68136707 22.5171069 0.0499536434 33.2013522 0.0499536434 33.2013522 24.0216488 26.1036164 24.0216488 26.1036164 6.68136707"></polygon>
                    <path d="M7.23802201,8.13565036 L7.23802201,25.334905 C8.3604434,25.334905 9.58786478,25.334905 10.7496887,25.3342324 L10.7496887,32.1073456 L0.140066038,32.1073456 L0.140066038,8.13565036 L7.23802201,8.13565036 Z" id="Fill-21"></path>
                </g>
            </g>
        </g>
    </g>
</svg>