<?xml version="1.0" encoding="UTF-8"?>
<svg width="196px" height="26px" viewBox="0 0 196 26" version="1.1" xmlns="http://www.w3.org/2000/svg" xmlns:xlink="http://www.w3.org/1999/xlink">
    <!-- Generator: Sketch 53.2 (72643) - https://sketchapp.com -->
    <title>NewYorkTimes</title>
    <desc>Created with Sketch.</desc>
    <g id="Page-1" stroke="none" stroke-width="1" fill="none" fill-rule="evenodd">
        <g id="Artboard" transform="translate(-295.000000, -5834.000000)" fill="#CCCEE6" fill-rule="nonzero">
            <g id="NewYorkTimes" transform="translate(295.000000, 5834.000000)">
                <path d="M14.6205405,3.016 C14.6205405,0.936 12.6075676,0.416 11.0183784,0.416 L11.0183784,0.728 C11.9718919,0.728 12.7135135,1.04 12.7135135,1.768 C12.7135135,2.184 12.3956757,2.808 11.4421622,2.808 C10.7005405,2.808 9.11135135,2.392 7.94594595,1.976 C6.56864865,1.456 5.2972973,1.04 4.23783784,1.04 C2.11891892,1.04 0.635675676,2.6 0.635675676,4.368 C0.635675676,5.928 1.80108108,6.448 2.22486486,6.656 L2.33081081,6.448 C2.11891892,6.24 1.80108108,6.032 1.80108108,5.408 C1.80108108,4.992 2.22486486,4.264 3.28432432,4.264 C4.23783784,4.264 5.50918919,4.68 7.20432432,5.2 C8.68756757,5.616 10.2767568,5.928 11.1243243,6.032 L11.1243243,9.256 L9.53513514,10.608 L9.53513514,10.712 L11.1243243,12.064 L11.1243243,16.536 C10.2767568,17.056 9.32324324,17.16 8.47567568,17.16 C6.88648649,17.16 5.50918919,16.744 4.34378378,15.496 L8.68756757,13.416 L8.68756757,6.24 L3.39027027,8.528 C3.81405405,7.176 4.97945946,6.24 6.14486486,5.616 L6.03891892,5.304 C2.86054054,6.136 0,9.048 0,12.584 C0,16.744 3.49621622,19.864 7.41621622,19.864 C11.6540541,19.864 14.4086486,16.536 14.4086486,13.104 L14.1967568,13.104 C13.5610811,14.456 12.6075676,15.704 11.4421622,16.328 L11.4421622,12.064 L13.1372973,10.712 L13.1372973,10.608 L11.4421622,9.256 L11.4421622,6.032 C13.0313514,6.032 14.6205405,4.992 14.6205405,3.016 Z M5.40324324,14.456 L4.13189189,15.08 C3.39027027,14.144 2.96648649,12.896 2.96648649,11.128 C2.96648649,10.4 2.96648649,9.568 3.17837838,8.944 L5.40324324,8.008 L5.40324324,14.456 L5.40324324,14.456 Z M16.6335135,16.848 L15.2562162,17.888 L15.4681081,18.096 L16.1037838,17.576 L18.4345946,19.656 L21.612973,17.576 L21.507027,17.368 L20.6594595,17.888 L19.6,16.848 L19.6,9.776 L20.4475676,9.152 L22.2486486,10.608 L22.2486486,16.952 C22.2486486,20.904 21.4010811,21.528 19.6,22.152 L19.6,22.464 C22.5664865,22.568 25.3210811,21.632 25.3210811,16.536 L25.3210811,9.672 L26.2745946,8.944 L26.0627027,8.736 L25.2151351,9.36 L22.5664865,7.176 L19.6,9.36 L19.6,0.832 L19.3881081,0.832 L15.68,3.328 L15.68,3.536 C16.1037838,3.744 16.7394595,3.952 16.7394595,5.096 L16.6335135,16.848 L16.6335135,16.848 Z M36.0216216,15.704 L33.372973,17.68 L30.7243243,15.6 L30.7243243,14.352 L35.7037838,11.024 L35.7037838,10.92 L33.1610811,7.176 L27.6518919,10.088 L27.6518919,16.952 L26.5924324,17.784 L26.8043243,17.992 L27.7578378,17.264 L31.36,19.864 L36.1275676,16.12 L36.0216216,15.704 L36.0216216,15.704 Z M30.7243243,13.936 L30.7243243,8.84 L30.9362162,8.736 L33.267027,12.376 L30.7243243,13.936 Z M56.2572973,2.08 C56.2572973,1.768 56.1513514,1.456 56.0454054,1.144 L55.8335135,1.144 C55.5156757,1.976 55.0918919,2.392 54.0324324,2.392 C53.0789189,2.392 52.4432432,1.872 52.0194595,1.456 L48.947027,4.888 L49.1589189,5.096 L50.2183784,4.16 C50.8540541,4.68 51.3837838,5.096 52.867027,5.2 L52.867027,13.832 L46.6162162,3.328 C46.0864865,2.496 45.3448649,1.352 43.8616216,1.352 C42.1664865,1.352 40.6832432,2.808 40.8951351,5.096 L41.212973,5.096 C41.3189189,4.472 41.6367568,3.744 42.3783784,3.744 C42.9081081,3.744 43.4378378,4.264 43.7556757,4.784 L43.7556757,8.216 C41.8486486,8.216 40.5772973,9.048 40.5772973,10.608 C40.5772973,11.44 41.0010811,12.688 42.2724324,13 L42.2724324,12.792 C42.0605405,12.584 41.9545946,12.376 41.9545946,12.064 C41.9545946,11.544 42.3783784,11.128 43.12,11.128 L43.6497297,11.128 L43.6497297,15.496 C41.4248649,15.496 39.6237838,16.744 39.6237838,18.824 C39.6237838,20.8 41.3189189,21.736 43.2259459,21.632 L43.2259459,21.424 C42.0605405,21.32 41.5308108,20.8 41.5308108,20.072 C41.5308108,19.136 42.1664865,18.72 43.0140541,18.72 C43.8616216,18.72 44.6032432,19.24 45.132973,19.864 L48.2054054,16.536 L47.9935135,16.328 L47.2518919,17.16 C46.0864865,16.12 45.4508108,15.808 44.0735135,15.6 L44.0735135,5.2 L52.5491892,19.76 L53.1848649,19.76 L53.1848649,5.2 C54.7740541,5.096 56.2572973,3.848 56.2572973,2.08 L56.2572973,2.08 Z M63.9913514,15.704 L61.3427027,17.68 L58.6940541,15.6 L58.6940541,14.352 L63.6735135,11.024 L63.6735135,10.92 L61.1308108,7.176 L55.6216216,10.088 L55.6216216,16.952 L54.5621622,17.784 L54.7740541,17.992 L55.7275676,17.264 L59.3297297,19.864 L64.0972973,16.12 L63.9913514,15.704 L63.9913514,15.704 Z M58.6940541,13.936 L58.6940541,8.84 L58.9059459,8.736 L61.2367568,12.376 L58.6940541,13.936 L58.6940541,13.936 Z M81.2605405,8.32 L80.5189189,8.84 L78.5059459,7.176 L76.1751351,9.256 L77.1286486,10.192 L77.1286486,17.992 L74.5859459,16.432 L74.5859459,9.984 L75.4335135,9.464 L72.9967568,7.176 L70.6659459,9.256 L71.6194595,10.192 L71.6194595,17.68 L71.3016216,17.888 L69.0767568,16.328 L69.0767568,10.088 C69.0767568,8.632 68.3351351,8.216 67.4875676,7.696 C66.7459459,7.176 66.3221622,6.864 66.3221622,6.136 C66.3221622,5.512 66.9578378,5.2 67.2756757,4.992 L67.2756757,4.784 C66.4281081,4.784 64.2032432,5.616 64.2032432,7.592 C64.2032432,8.632 64.732973,9.048 65.2627027,9.568 C65.7924324,10.088 66.3221622,10.504 66.3221622,11.44 L66.3221622,17.472 L65.1567568,18.304 L65.3686486,18.512 L66.4281081,17.68 L68.8648649,19.76 L71.5135135,17.992 L74.48,19.76 L80.0951351,16.536 L80.0951351,9.568 L81.4724324,8.528 L81.2605405,8.32 L81.2605405,8.32 Z M100.966486,2.6 L99.907027,3.536 L97.5762162,1.456 L94.08,3.952 L94.08,1.664 L93.7621622,1.664 L93.8681081,18.512 C93.5502703,18.512 92.5967568,18.304 91.8551351,18.096 L91.6432432,4.056 C91.6432432,3.016 90.9016216,1.56 88.9945946,1.56 C87.0875676,1.56 85.8162162,3.016 85.8162162,4.472 L86.1340541,4.472 C86.24,3.848 86.5578378,3.328 87.1935135,3.328 C87.8291892,3.328 88.3589189,3.744 88.3589189,5.096 L88.3589189,9.152 C86.4518919,9.256 85.2864865,10.296 85.2864865,11.648 C85.2864865,12.48 85.7102703,13.728 86.9816216,13.728 L86.9816216,13.52 C86.5578378,13.312 86.4518919,13 86.4518919,12.792 C86.4518919,12.168 86.9816216,11.96 87.8291892,11.96 L88.252973,11.96 L88.252973,18.408 C86.6637838,18.928 86.0281081,20.072 86.0281081,21.32 C86.0281081,23.088 87.4054054,24.336 89.5243243,24.336 C91.0075676,24.336 92.2789189,24.128 93.5502703,23.816 C94.6097297,23.608 95.987027,23.296 96.6227027,23.296 C97.4702703,23.296 97.7881081,23.712 97.7881081,24.232 C97.7881081,24.96 97.4702703,25.272 97.0464865,25.376 L97.0464865,25.584 C98.7416216,25.272 99.8010811,24.232 99.8010811,22.672 C99.8010811,21.112 98.2118919,20.176 96.5167568,20.176 C95.6691892,20.176 93.8681081,20.488 92.5967568,20.696 C91.1135135,21.008 89.6302703,21.216 89.2064865,21.216 C88.4648649,21.216 87.6172973,20.904 87.6172973,19.864 C87.6172973,19.032 88.3589189,18.304 90.16,18.304 C91.1135135,18.304 92.2789189,18.408 93.4443243,18.72 C94.7156757,19.032 95.8810811,19.344 96.9405405,19.344 C98.5297297,19.344 99.907027,18.824 99.907027,16.64 L99.907027,3.848 L101.178378,2.808 L100.966486,2.6 L100.966486,2.6 Z M96.6227027,8.944 C96.3048649,9.256 95.8810811,9.568 95.3513514,9.568 C94.8216216,9.568 94.2918919,9.256 94.08,8.944 L94.08,4.368 L95.1394595,3.64 L96.6227027,4.992 L96.6227027,8.944 Z M96.6227027,12.064 C96.4108108,11.856 95.8810811,11.544 95.3513514,11.544 C94.8216216,11.544 94.2918919,11.856 94.08,12.064 L94.08,9.36 C94.2918919,9.568 94.8216216,9.88 95.3513514,9.88 C95.8810811,9.88 96.4108108,9.568 96.6227027,9.36 L96.6227027,12.064 Z M96.6227027,16.952 C96.6227027,17.784 96.092973,18.616 94.9275676,18.616 L94.08,18.616 L94.08,12.48 C94.2918919,12.272 94.8216216,11.96 95.3513514,11.96 C95.8810811,11.96 96.3048649,12.272 96.6227027,12.48 L96.6227027,16.952 L96.6227027,16.952 Z M111.137297,9.568 L107.747027,7.176 L102.555676,10.088 L102.555676,16.848 L101.496216,17.68 L101.602162,17.888 L102.44973,17.264 L105.84,19.76 L111.137297,16.64 L111.137297,9.568 L111.137297,9.568 Z M105.416216,16.12 L105.416216,8.632 L108.064865,10.504 L108.064865,17.888 L105.416216,16.12 L105.416216,16.12 Z M121.202162,7.384 L120.99027,7.384 C120.672432,7.592 120.354595,7.8 120.036757,7.8 C119.612973,7.8 119.083243,7.592 118.871351,7.28 L118.659459,7.28 L116.858378,9.256 L115.057297,7.28 L111.878919,9.36 L111.984865,9.568 L112.832432,9.048 L113.891892,10.192 L113.891892,16.744 L112.514595,17.784 L112.726486,17.992 L113.362162,17.472 L115.904865,19.552 L119.189189,17.368 L119.083243,17.16 L118.12973,17.68 L116.858378,16.64 L116.858378,9.36 C117.388108,9.88 118.023784,10.4 118.765405,10.4 C120.248649,10.504 121.096216,9.048 121.202162,7.384 L121.202162,7.384 Z M133.915676,17.368 L130.313514,19.76 L125.44,12.48 L128.936216,7.176 L129.148108,7.176 C129.571892,7.592 130.207568,8.008 130.949189,8.008 C131.690811,8.008 132.220541,7.592 132.538378,7.176 L132.75027,7.176 C132.644324,9.256 131.161081,10.504 130.101622,10.504 C129.042162,10.504 128.512432,9.984 127.876757,9.672 L127.558919,10.192 L132.856216,17.888 L133.915676,17.264 L133.915676,17.368 L133.915676,17.368 Z M122.261622,16.848 L120.884324,17.888 L121.096216,18.096 L121.731892,17.576 L124.062703,19.656 L127.241081,17.576 L127.029189,17.368 L126.181622,17.888 L125.122162,16.848 L125.122162,0.832 L125.016216,0.832 L121.202162,3.328 L121.202162,3.536 C121.625946,3.744 122.261622,3.848 122.261622,5.096 L122.261622,16.848 L122.261622,16.848 Z M151.502703,3.016 C151.502703,0.936 149.48973,0.416 147.900541,0.416 L147.900541,0.728 C148.854054,0.728 149.595676,1.04 149.595676,1.768 C149.595676,2.184 149.277838,2.808 148.324324,2.808 C147.582703,2.808 145.993514,2.392 144.828108,1.976 C143.450811,1.56 142.179459,1.144 141.12,1.144 C139.001081,1.144 137.517838,2.704 137.517838,4.472 C137.517838,6.032 138.683243,6.552 139.107027,6.76 L139.212973,6.552 C138.895135,6.344 138.577297,6.136 138.577297,5.512 C138.577297,5.096 139.001081,4.368 140.060541,4.368 C141.014054,4.368 142.285405,4.784 143.980541,5.304 C145.463784,5.72 147.052973,6.032 147.900541,6.136 L147.900541,9.36 L146.311351,10.712 L146.311351,10.816 L147.900541,12.168 L147.900541,16.64 C147.052973,17.16 146.099459,17.264 145.251892,17.264 C143.662703,17.264 142.285405,16.848 141.12,15.6 L145.463784,13.52 L145.463784,6.24 L140.166486,8.528 C140.696216,7.176 141.861622,6.24 142.921081,5.512 L142.815135,5.304 C139.636757,6.136 136.776216,8.944 136.776216,12.48 C136.776216,16.64 140.272432,19.76 144.192432,19.76 C148.43027,19.76 151.184865,16.432 151.184865,13 L150.972973,13 C150.337297,14.352 149.383784,15.6 148.218378,16.224 L148.218378,11.96 L149.913514,10.608 L149.913514,10.504 L148.324324,9.152 L148.324324,6.032 C149.913514,6.032 151.502703,4.992 151.502703,3.016 Z M142.285405,14.456 L141.014054,15.08 C140.272432,14.144 139.848649,12.896 139.848649,11.128 C139.848649,10.4 139.954595,9.568 140.166486,8.944 L142.391351,8.008 L142.285405,14.456 L142.285405,14.456 Z M155.210811,1.976 L155.104865,1.976 L152.985946,3.744 L152.985946,3.848 L154.787027,5.824 L154.998919,5.824 L157.117838,4.056 L157.117838,3.952 L155.210811,1.976 L155.210811,1.976 Z M158.389189,17.368 L157.541622,17.888 L156.482162,16.848 L156.482162,9.672 L157.541622,8.944 L157.32973,8.736 L156.588108,9.36 L154.681081,7.176 L151.608649,9.256 L151.820541,9.568 L152.562162,9.048 L153.515676,10.192 L153.515676,16.952 L152.138378,17.992 L152.244324,18.2 L152.985946,17.68 L155.316757,19.76 L158.495135,17.68 L158.389189,17.368 L158.389189,17.368 Z M176.082162,17.264 L175.340541,17.784 L174.175135,16.744 L174.175135,9.672 L175.234595,8.84 L175.022703,8.632 L174.175135,9.36 L171.738378,7.176 L168.56,9.36 L166.123243,7.176 L163.156757,9.36 L161.24973,7.176 L158.177297,9.256 L158.283243,9.568 L159.024865,9.048 L160.084324,10.192 L160.084324,16.952 L159.236757,17.784 L161.673514,19.76 L164.004324,17.68 L163.050811,16.744 L163.050811,9.672 L164.004324,9.048 L165.593514,10.504 L165.593514,16.744 L164.745946,17.576 L167.182703,19.552 L169.513514,17.472 L168.56,16.536 L168.56,9.672 L169.407568,9.152 L171.102703,10.608 L171.102703,16.848 L170.361081,17.576 L172.797838,19.76 L176.082162,17.576 L176.082162,17.264 L176.082162,17.264 Z M185.299459,15.704 L182.650811,17.68 L180.002162,15.6 L180.002162,14.352 L184.981622,11.024 L184.981622,10.92 L182.438919,7.176 L176.92973,10.088 L176.92973,17.16 L180.637838,19.76 L185.405405,16.016 L185.299459,15.704 L185.299459,15.704 Z M180.002162,13.936 L180.002162,8.84 L180.214054,8.736 L182.544865,12.376 L180.002162,13.936 L180.002162,13.936 Z M194.940541,13 L192.927568,11.44 C194.304865,10.296 194.834595,8.736 194.834595,7.696 L194.834595,7.072 L194.622703,7.072 C194.410811,7.592 193.987027,8.112 193.139459,8.112 C192.291892,8.112 191.762162,7.696 191.232432,7.072 L186.464865,9.672 L186.464865,13.416 L188.265946,14.768 C186.464865,16.328 186.147027,17.368 186.147027,18.2 C186.147027,19.24 186.676757,19.968 187.524324,20.28 L187.63027,20.072 C187.418378,19.864 187.206486,19.76 187.206486,19.24 C187.206486,18.928 187.63027,18.408 188.477838,18.408 C189.537297,18.408 190.172973,19.136 190.490811,19.448 L195.046486,16.744 L195.046486,13 L194.940541,13 L194.940541,13 Z M193.775135,9.88 C193.033514,11.128 191.444324,12.376 190.490811,13 L189.325405,12.064 L189.325405,8.424 C189.749189,9.464 190.914595,10.296 192.08,10.296 C192.821622,10.296 193.245405,10.192 193.775135,9.88 L193.775135,9.88 Z M191.974054,18.2 C191.444324,17.056 190.172973,16.224 188.901622,16.224 C188.583784,16.224 187.736216,16.224 186.888649,16.744 C187.418378,15.912 188.795676,14.456 190.596757,13.416 L191.868108,14.456 L191.974054,18.2 L191.974054,18.2 Z" id="Shape"></path>
            </g>
        </g>
    </g>
</svg>