<?xml version="1.0" encoding="UTF-8"?>
<svg width="30px" height="21px" viewBox="0 0 30 21" version="1.1" xmlns="http://www.w3.org/2000/svg" xmlns:xlink="http://www.w3.org/1999/xlink">
    <!-- Generator: Sketch 53.2 (72643) - https://sketchapp.com -->
    <title>Group 5</title>
    <desc>Created with Sketch.</desc>
    <g id="Page-1" stroke="none" stroke-width="1" fill="none" fill-rule="evenodd">
        <g id="Artboard" transform="translate(-418.000000, -4785.000000)" fill="#FFFFFF">
            <g id="Group-5" transform="translate(418.000000, 4785.000000)">
                <path d="M1.51960535,9.82296331 L1.51553345,9.82302856 L7.98348915,1.64313008e-13 L14.22,1.64313008e-13 L10.5083862,8.88272488 C12.0253626,10.0726455 13,11.9225033 13,14 C13,17.5898509 10.0898509,20.5 6.5,20.5 C2.91014913,20.5 -5.68434189e-14,17.5898509 -5.68434189e-14,14 C-5.68434189e-14,12.4095982 0.571184157,10.9526036 1.51960535,9.82296331 Z" id="Combined-Shape"></path>
                <path d="M16.5196053,9.82296331 L16.5155334,9.82302856 L22.9834891,1.64313008e-13 L29.22,1.64313008e-13 L25.5083862,8.88272488 C27.0253626,10.0726455 28,11.9225033 28,14 C28,17.5898509 25.0898509,20.5 21.5,20.5 C17.9101491,20.5 15,17.5898509 15,14 C15,12.4095982 15.5711842,10.9526036 16.5196053,9.82296331 Z" id="Combined-Shape-Copy"></path>
            </g>
        </g>
    </g>
</svg>