<?xml version="1.0" encoding="UTF-8"?>
<svg width="159px" height="32px" viewBox="0 0 159 32" version="1.1" xmlns="http://www.w3.org/2000/svg" xmlns:xlink="http://www.w3.org/1999/xlink">
    <!-- Generator: Sketch 53.2 (72643) - https://sketchapp.com -->
    <title>logo-intuit-quickbooks-preferred</title>
    <desc>Created with Sketch.</desc>
    <g id="Page-1" stroke="none" stroke-width="1" fill="none" fill-rule="evenodd">
        <g id="Artboard" transform="translate(-962.000000, -4002.000000)">
            <g id="logo-intuit-quickbooks-preferred" transform="translate(949.000000, 3989.000000)">
                <g id="QuickBooks_Lockup" transform="translate(13.485099, 13.593750)" fill-rule="nonzero">
                    <g id="Wordmark" transform="translate(30.566225, 6.645833)" fill="#FFFFFF">
                        <path d="M126.745722,16.7078688 C126.745722,16.3839735 126.471221,16.2661015 126.190556,16.2661015 L125.664635,16.2661015 L125.664635,17.7741583 L125.933613,17.7741583 L125.933613,17.1438931 L126.126485,17.1438931 L126.477056,17.7741583 L126.804215,17.7741583 L126.400986,17.1143467 C126.611361,17.0671643 126.745722,16.9258488 126.745722,16.7078688 Z M125.933613,16.9258488 L125.933613,16.4957431 L126.178868,16.4957431 C126.319301,16.4957431 126.477055,16.5370712 126.477055,16.7019504 C126.477055,16.8845851 126.301742,16.9258485 126.149859,16.9258485 L125.933613,16.9258488 L125.933613,16.9258488 Z M126.184684,15.6887617 C125.448407,15.6887617 124.852599,16.2838018 124.852599,17.0260205 C124.852599,17.7682393 125.448407,18.3514979 126.184684,18.3514979 C126.920962,18.3514979 127.517135,17.7682396 127.517135,17.0260205 C127.517135,16.2838015 126.920962,15.6887617 126.184684,15.6887617 Z M126.184684,18.1570816 C125.565447,18.1570816 125.062718,17.6445041 125.062718,17.0260205 C125.062718,16.4014895 125.565446,15.8949595 126.184684,15.8949595 C126.804215,15.8949595 127.306705,16.4014892 127.306705,17.0260205 C127.306705,17.6445041 126.804215,18.1570816 126.184684,18.1570816 Z" id="_xAE__1_"></path>
                        <path d="M40.4683024,15.9147158 C38.5193757,15.9147158 37.5367,14.1592527 37.5367,12.4619607 C37.5367,10.7647423 38.6028619,9.08395215 40.3748025,9.08395215 C41.2046443,9.08395215 42.2536682,9.50348367 42.6653563,10.0933887 L44.7286343,8.02110154 C43.7299545,6.96029755 42.1380002,6.32707289 40.3748025,6.32707289 C36.7864487,6.32707289 34.1820876,8.92293569 34.1820876,12.499306 C34.1820876,16.1336078 36.7573212,18.67165 40.4448087,18.67165 C42.1994922,18.67165 43.8209397,18.1539378 44.7822705,17.1120508 L42.7755097,14.9410389 C42.3119226,15.5100449 41.340157,15.9147158 40.4683024,15.9147158 Z M28.9292492,18.3426202 L32.1304332,18.3426202 L32.1304332,6.65604798 L28.9292492,6.65604798 L28.9292492,18.3426202 Z M23.1081211,13.063288 C23.1081211,14.4365652 22.2201435,15.9147158 20.5650783,15.9147158 C19.2891445,15.9147158 18.6078201,14.9974122 18.6078201,13.1104149 L18.6078201,6.65604798 L15.4066361,6.65604798 L15.4066361,13.909247 C15.4066361,16.3225857 16.6012969,18.6716506 19.795887,18.6716506 C21.3024345,18.6716506 22.5643398,17.4761869 23.200185,16.5938045 L23.2480691,16.5938045 L23.2480691,18.3426208 L26.3093044,18.3426208 L26.3093044,6.65604798 L23.1081205,6.65604858 L23.1081205,13.063288 L23.1081211,13.063288 Z M9.63136211,8.13981274 L9.56045057,8.13981274 C9.1081945,7.63564291 7.88297074,6.32707319 5.89358565,6.32707319 C2.62959287,6.32707319 0.114351545,8.90312446 0.114351545,12.4524194 C0.114351545,16.0560962 2.43534961,18.6716503 5.74009316,18.6716503 C7.24059574,18.6716503 8.65000349,17.8701634 9.46707854,16.9378146 L9.51460602,16.9378146 L9.51460602,24.0974331 L12.7157894,24.0974331 L12.7157894,6.65604768 L9.63136181,6.65604768 L9.63136181,8.13981274 L9.63136211,8.13981274 Z M6.52306559,15.9147158 C4.5436397,15.9147158 3.41820328,14.172906 3.41820328,12.4524194 C3.41820328,10.8074536 4.45157993,9.03694556 6.52306559,9.03694556 C8.42854369,9.03694556 9.60780394,10.8341608 9.60780394,12.4993066 C9.60780394,14.1780961 8.45407698,15.9147158 6.52306559,15.9147158 Z M79.441434,6.32707319 C75.7988402,6.32707319 73.1552192,8.90312446 73.1552192,12.4524194 C73.1552192,16.1252098 75.8576346,18.7030682 79.441434,18.7030682 C83.0248675,18.7030682 85.7273563,16.1005586 85.7273563,12.4524194 C85.727356,8.90312446 83.0836709,6.32707319 79.441434,6.32707319 Z M79.441434,15.9147158 C77.3538846,15.9147158 76.4028513,14.1199804 76.4028513,12.4524194 C76.4028513,10.8074536 77.3538849,9.03694556 79.441434,9.03694556 C81.5289924,9.03694556 82.479724,10.8074536 82.479724,12.4524194 C82.479724,14.1199804 81.5289924,15.9147158 79.441434,15.9147158 Z M119.463827,11.1497125 C117.816435,10.7533849 117.23579,10.5399869 117.23579,9.86743488 C117.23579,8.94003693 118.401378,8.73654906 118.929036,8.73654906 C119.922512,8.73654906 121.04446,9.33455746 121.466582,9.90217144 L123.354255,8.07656223 C122.481257,6.97117588 120.764635,6.32707319 118.952118,6.32707319 C116.635373,6.32707319 114.202849,7.50169311 114.202849,10.1258947 C114.202849,12.3792587 115.954643,13.0591858 117.669051,13.473223 C119.475825,13.8972809 120.120578,14.2073386 120.120578,14.9410392 C120.120578,16.0226226 118.903027,16.1992191 118.484086,16.1992191 C117.436983,16.1992191 116.223273,15.5948128 115.568607,14.81157 L113.625259,16.7974673 C114.686921,17.9842929 116.504121,18.6984774 118.36765,18.6984774 C121.4972,18.6984774 123.354254,17.1945232 123.354254,14.7128452 C123.354255,12.3384741 121.08126,11.5403062 119.463827,11.1497125 Z M113.411902,6.65604768 L109.283297,6.65604768 L105.150084,11.5053295 L105.078952,11.5053295 L105.078952,0.216108 L101.877759,0.216108 L101.877759,18.3426199 L105.078952,18.3426199 L105.078952,12.5785053 L105.150212,12.5785053 L109.438235,18.3426199 L113.650975,18.3426199 L108.667298,11.955975 L113.411902,6.65604768 Z M65.9411169,6.32707319 C64.4770576,6.32707319 63.3984858,6.9722084 62.3800249,7.93434321 L62.3200417,7.93434321 L62.3200417,0.216108604 L59.1191505,0.216108604 L59.1191505,18.3426205 L62.1803951,18.3426205 L62.1803951,16.6907129 L62.2282792,16.6907129 C62.9499975,17.8841209 64.3840971,18.6716506 65.8714124,18.6716506 C69.1759825,18.6716506 71.6809721,16.0560965 71.6809721,12.4524197 C71.6809721,8.90312446 69.2054024,6.32707319 65.9411169,6.32707319 Z M65.3118653,15.9147158 C63.3807442,15.9147158 62.2268435,14.1780961 62.2268435,12.4993063 C62.2268435,10.8341604 63.4062775,9.03694526 65.3118653,9.03694526 C67.3833558,9.03694526 68.4138058,10.8074533 68.4138058,12.4524191 C68.4138058,14.172906 67.2913646,15.9147158 65.3118653,15.9147158 Z M57.914787,6.65604768 L53.7861824,6.65604768 L49.6529685,11.5053295 L49.5818283,11.5053295 L49.5818283,0.216108 L46.3806537,0.216108 L46.3806537,18.3426199 L49.5818283,18.3426199 L49.5818283,12.5785053 L49.6530875,12.5785053 L53.9411106,18.3426199 L58.1538598,18.3426199 L53.1701821,11.955975 L57.914787,6.65604768 Z M93.5084861,6.32707319 C89.8658923,6.32707319 87.2222803,8.90312446 87.2222803,12.4524194 C87.2222803,16.1252098 89.9246957,18.7030682 93.5084861,18.7030682 C97.0919289,18.7030682 99.7943991,16.1005586 99.7943991,12.4524194 C99.7943991,8.90312446 97.1507323,6.32707319 93.5084861,6.32707319 Z M93.5084861,15.9147158 C91.4208819,15.9147158 90.4699123,14.1199804 90.4699123,12.4524194 C90.4699123,10.8074536 91.4208819,9.03694556 93.5084861,9.03694556 C95.5959804,9.03694556 96.5467671,10.8074536 96.5467671,12.4524194 C96.5467671,14.1199804 95.5959804,15.9147158 93.5084861,15.9147158 Z" id="quickbooks"></path>
                    </g>
                    <g id="Icon_2_">
                        <ellipse id="Circle_2_" fill="#FFFFFF" cx="13.5960943" cy="13.6618958" rx="13.4850993" ry="13.59375"></ellipse>
                        <path d="M3.8554795,13.6615363 C3.8554795,16.5811098 6.20338243,18.9479393 9.0996848,18.9479393 L9.84885699,18.9479393 L9.84885699,16.9843977 L9.0996848,16.9843977 C7.28207351,16.9843977 5.80332718,15.493737 5.80332718,13.6615363 C5.80332718,11.8292251 7.28207351,10.3386196 9.0996848,10.3386196 L10.8999752,10.3386196 C10.8999752,10.3386196 10.8999752,20.4150919 10.8999752,20.6093977 C10.8999752,21.6938113 11.7720722,22.5729393 12.8478229,22.5729393 L12.8478229,8.37507796 C12.8478229,8.37507796 10.8320679,8.37507796 9.0996848,8.37507796 C6.20338243,8.37507796 3.8554795,10.7419628 3.8554795,13.6615363 Z M18.0924489,8.37586156 L17.3432768,8.37586156 L17.3432768,10.3394032 L18.0924489,10.3394032 C19.9100602,10.3394032 21.3888066,11.8300639 21.3888066,13.6623199 C21.3888066,15.4945758 19.9100602,16.9851813 18.0924489,16.9851813 L16.292154,16.9851813 C16.292154,16.9851813 16.292154,6.90870897 16.292154,6.71440323 C16.292154,5.62992527 15.4200616,4.75086156 14.3443108,4.75086156 L14.3443108,18.9487229 C14.3443108,18.9487229 16.3600614,18.9487229 18.0924489,18.9487229 C20.9887465,18.9487229 23.3366542,16.5818381 23.3366542,13.6623199 C23.3366542,10.7426911 20.9887465,8.37586156 18.0924489,8.37586156 Z" id="qb" fill="#4D10C6"></path>
                    </g>
                    <path d="M43.8833919,3.16378098 C44.3755024,3.16378098 44.7744788,2.76146096 44.7744788,2.26550537 C44.7744788,1.76954043 44.3755027,1.36722977 43.8833919,1.36722977 C43.3913362,1.36722977 42.9924146,1.76954043 42.9924146,2.26550537 C42.9924146,2.76146096 43.3913359,3.16378098 43.8833919,3.16378098 Z M38.5662996,3.76891552 C37.6940885,3.76891552 36.9935777,4.30178357 36.7356839,4.89616908 L36.7109921,4.89616908 L36.7109921,3.942608 L35.3104644,3.942608 L35.3104644,9.88839855 L36.7846564,9.88839855 L36.7846564,6.61791872 C36.7846564,5.82549402 37.2273191,5.00757893 38.1608488,5.00757893 C39.1072091,5.00757893 39.2670483,5.88742624 39.2670483,6.59321223 L39.2670483,9.88839855 L40.7414231,9.88839855 L40.7414231,6.17210414 C40.7414228,4.95815658 40.1027061,3.76891552 38.5662996,3.76891552 Z M32.3247406,9.88839855 L33.7993532,9.88839855 L33.7993532,3.942608 L32.3247406,3.942608 L32.3247406,9.88839855 Z M59.1400656,3.16378098 C59.6320664,3.16378098 60.0309877,2.76146096 60.0309877,2.26550537 C60.0309877,1.76954043 59.6320664,1.36722977 59.1400656,1.36722977 C58.6478361,1.36722977 58.2489696,1.76954043 58.2489696,2.26550537 C58.2489696,2.76146096 58.6478361,3.16378098 59.1400656,3.16378098 Z M56.7493085,3.93892953 L56.7493085,5.25607298 L58.4027642,5.25607298 L58.4027642,9.88839855 L59.8773127,9.88839855 L59.8773127,5.25607298 L61.5305853,5.25607298 L61.5305853,3.93892953 L56.7493085,3.93892953 Z M54.241685,9.88839855 L55.7162884,9.88839855 L55.7162884,3.942608 L54.241685,3.942608 L54.241685,9.88839855 Z M41.4927535,5.25607298 L43.1460809,5.25607298 L43.1460809,9.88839855 L44.6206294,9.88839855 L44.6206294,5.25607298 L46.273902,5.25607298 L46.273902,3.93892953 L41.4927532,3.93892953 L41.4927532,5.25607298 L41.4927535,5.25607298 Z M51.257461,7.21271899 C51.257461,8.00556781 50.8148531,8.82306815 49.8813234,8.82306815 C48.9351459,8.82306815 48.7752426,7.94358061 48.7752426,7.23743484 L48.7752426,3.942608 L47.300694,3.942608 L47.300694,7.65853357 C47.300694,8.87284997 47.9394017,10.0616669 49.4758082,10.0616669 C50.3480835,10.0616669 51.048768,9.52922298 51.306488,8.93441334 L51.3311799,8.93441334 L51.3311799,9.88839855 L52.7320093,9.88839855 L52.7320093,3.942608 L51.2574607,3.942608 L51.2574607,7.21271899 L51.257461,7.21271899 Z" id="intuit_2_" fill="#FFFFFF"></path>
                </g>
                <rect id="Clearspace_1_" x="0.110997051" y="0.0681503021" width="180.777992" height="57.8636994"></rect>
            </g>
        </g>
    </g>
</svg>