<?xml version="1.0" encoding="UTF-8"?>
<svg width="110px" height="40px" viewBox="0 0 110 40" version="1.1" xmlns="http://www.w3.org/2000/svg" xmlns:xlink="http://www.w3.org/1999/xlink">
    <!-- Generator: Sketch 53.2 (72643) - https://sketchapp.com -->
    <title>sofi</title>
    <desc>Created with Sketch.</desc>
    <g id="Page-1" stroke="none" stroke-width="1" fill="none" fill-rule="evenodd" stroke-linecap="round" stroke-linejoin="round">
        <g id="Artboard" transform="translate(-378.000000, -854.000000)" fill="#CCCDE5">
            <g id="sofi" transform="translate(378.000000, 854.000000)">
                <g id="A-link" transform="translate(0.260943, 0.260943)">
                    <g id="A">
                        <g id="Group">
                            <path d="M89.3118687,26.8901515 C85.8560606,26.8737374 83.1085859,29.5883838 83.0580808,33.0113636 C83.0252525,36.385101 85.8396465,39.2310606 89.2285354,39.2651515 C92.6186869,39.2815657 95.4659091,36.4835859 95.4823232,33.1111111 C95.5151515,29.7045455 92.7335859,26.9078283 89.3118687,26.8914141 L89.3118687,26.8901515 Z M75.4671717,13.4305556 C71.9621212,13.3800505 69.1792929,16.0138889 69.1313131,19.4368687 C69.0808081,22.8762626 71.780303,25.7070707 75.1868687,25.7878788 C78.6262626,25.8699495 81.5555556,23.0063131 81.5555556,19.584596 C81.5247989,16.2240941 78.8271504,13.4973544 75.4671717,13.4305556 L75.4671717,13.4305556 Z M75.2588384,26.9078283 C71.8030303,26.9242424 69.0391414,29.7234848 69.1224747,33.1275253 C69.1881313,36.5833333 71.969697,39.3143939 75.3762626,39.2815657 C78.7664141,39.2487374 81.5959596,36.3686869 81.5467172,33.0277778 C81.4810606,29.5883838 78.7159091,26.8914141 75.2588384,26.9065657 L75.2588384,26.9078283 Z M103.348485,25.7891414 C106.757576,25.7563131 109.484848,22.9734848 109.453283,19.5189394 C109.420455,16.0795455 106.675505,13.4141414 103.199495,13.4305556 C99.7436869,13.4469697 97.0782828,16.1792929 97.094697,19.6502525 C97.1275253,23.0593434 99.9255051,25.8207071 103.348485,25.7866162 L103.348485,25.7891414 Z M89.2133838,12.3775253 C92.7020202,12.4103535 95.4330808,9.72853535 95.4507576,6.28914141 C95.4545455,2.81565657 92.8030303,0.0505050505 89.3623737,0.00126262626 C85.9848485,-0.0505050505 83.125,2.71464646 83.0934343,6.12373737 C83.0770202,9.57954545 85.7752525,12.3611111 89.2146465,12.3775253 L89.2133838,12.3775253 Z M103.282828,12.395202 C106.738636,12.395202 109.453283,9.66414141 109.453283,6.20833333 C109.453283,2.76893939 106.675505,0.00505050505 103.266414,0.00505050505 C99.8573232,0.00505050505 97.0959596,2.78282828 97.0959596,6.20833333 C97.1123737,9.66414141 99.8270202,12.395202 103.282828,12.395202 L103.282828,12.395202 Z M75.2424242,0.00378787879 C71.8511035,0.0217354033 69.1063314,2.76650755 69.0883838,6.15782828 C69.0719697,9.64646465 71.7866162,12.344697 75.2916667,12.344697 C78.780303,12.344697 81.5618687,9.61363636 81.5618687,6.17424242 C81.5618687,2.76515152 78.7146465,-0.0126262626 75.2424242,0.00378787879 L75.2424242,0.00378787879 Z M75.3080808,10.584596 C72.8080808,10.584596 70.8636364,8.64267677 70.8813131,6.15782828 C70.8977273,3.73863636 72.8383838,1.78030303 75.2752525,1.76388889 C77.7436869,1.74747475 79.7828283,3.7209596 79.7828283,6.17424242 C79.7828283,8.64267677 77.8080808,10.584596 75.3068182,10.584596 L75.3080808,10.584596 Z M103.212121,26.9255051 C99.8208005,26.9434526 97.0760283,29.6882247 97.0580808,33.0795455 C97.0416667,36.5681818 99.7563131,39.2664141 103.261364,39.2664141 C106.75,39.2664141 109.531566,36.5353535 109.531566,33.0959596 C109.515152,29.6868687 106.684343,26.9090909 103.212121,26.9255051 Z M103.277778,37.5063131 C100.777778,37.5063131 98.8333333,35.5643939 98.8510101,33.0795455 C98.8674242,30.6603535 100.808081,28.7020202 103.244949,28.6856061 C105.713384,28.6691919 107.752525,30.6426768 107.752525,33.0959596 C107.752525,35.5492424 105.761364,37.5063131 103.276515,37.5063131 L103.277778,37.5063131 Z" id="Shape"></path>
                            <path d="M95.219697,17.7588384 C94.7834772,16.4096492 93.9014442,15.2488921 92.7184343,14.4671717 C92.5479798,14.3409091 92.3724747,14.2487374 92.1919192,14.1540404 C92.1035354,14.0997475 92.010101,14.0555556 91.9116162,14.0227273 L91.3522727,13.7929293 C90.9734848,13.6590909 90.5593434,13.5606061 90.1527778,13.4962121 C89.8368818,13.4486701 89.5176627,13.4267132 89.1982323,13.4305556 C88.6717172,13.4305556 88.145202,13.4962121 87.6515152,13.6275253 C87.2563131,13.7260101 86.8775253,13.8737374 86.5151515,14.0391414 C85.5277778,14.5164141 84.6881313,15.2386364 84.0782828,16.145202 L83.9141414,16.3914141 C83.354798,17.3131313 83.0252525,18.415404 83.0088384,19.5833333 C82.9924242,23.0719697 85.7070707,25.770202 89.2121212,25.770202 C92.7007576,25.770202 95.4823232,23.0391414 95.4823232,19.5997475 C95.5107359,18.9750355 95.4251653,18.3503704 95.229798,17.7563131 L95.219697,17.7588384 Z M89.2626263,23.9292929 C86.8106061,23.9292929 84.9015152,22.0353535 84.9191919,19.6010101 C84.9226688,17.2210725 86.851123,15.2926183 89.2310606,15.2891414 C91.6679293,15.2727273 93.6414141,17.2146465 93.6578283,19.6174242 C93.6578283,22.020202 91.7007576,23.9292929 89.2638889,23.9292929 L89.2626263,23.9292929 Z M26.8282828,14.6237374 C21.9987374,14.6237374 18.3434343,18.2651515 18.3434343,23.1085859 C18.3434343,27.9381313 21.9848485,31.5934343 26.8282828,31.5934343 C29.2651515,31.5934343 31.4747475,30.6944444 33.0429293,29.0643939 C34.5505051,27.4949495 35.3737374,25.3926768 35.3737374,23.1085859 C35.3737374,20.8383838 34.5505051,18.7209596 33.0429293,17.1527778 C31.4734848,15.5113636 29.2651515,14.6237374 26.8282828,14.6237374 Z M26.8282828,27.969697 C24.2840909,27.969697 22.364899,25.8674242 22.364899,23.0959596 C22.364899,20.3244949 24.2840909,18.2222222 26.8282828,18.2222222 C29.4482323,18.2222222 31.3674242,20.280303 31.3674242,23.0959596 C31.3522727,25.9292929 29.4482323,27.969697 26.8282828,27.969697 Z M39.290404,8.1489899 C38.5138889,8.1489899 38.0113636,8.54545455 38.0113636,9.16919192 L38.0113636,31.1666667 L40.0252525,31.1666667 C41.0606061,31.1666667 41.7929293,30.4659091 41.7929293,29.4457071 L41.7929293,21.2045455 L48.8914141,21.2045455 C49.9267677,21.2045455 50.6590909,20.5037879 50.6590909,19.4835859 L50.6590909,17.5643939 L41.7954545,17.5643939 L41.7954545,11.8219697 L50.8863636,11.8219697 C51.6944444,11.8219697 52.2424242,11.2739899 52.2424242,10.4962121 L52.2424242,8.15277778 L52.0909091,8.15277778 L39.290404,8.1489899 Z M56.4583333,15.2020202 C55.5290404,15.2020202 55.1174242,15.8876263 55.1174242,16.5429293 L55.1174242,31.1666667 L57.6464646,31.1666667 C58.1035354,31.1666667 58.9873737,30.8926768 58.9873737,29.8257576 L58.9873737,15.2020202 L58.8358586,15.2020202 L56.4583333,15.2020202 Z M57.0833333,7.69191919 C55.7309493,7.7057859 54.6429257,8.80790301 54.6464646,10.1603535 C54.6464646,11.5012626 55.7449495,12.5972222 57.0833333,12.5972222 C58.4357839,12.6007611 59.537901,11.5127376 59.5517677,10.1603535 C59.5517677,8.78914141 58.4406566,7.69191919 57.0833333,7.69191919 L57.0833333,7.69191919 Z M8.16666667,17.3194444 L8.09090909,17.2891414 C6.49116162,16.7260101 4.86111111,15.9027778 4.86111111,14.1515152 C4.86111111,13.3939394 5.10479798,12.7954545 5.61868687,12.3232323 C6.21212121,11.7752525 7.11111111,11.4393939 8.16287879,11.469697 C11.6982323,11.530303 11.4532828,15.1565657 11.4532828,15.1565657 L14.0580808,15.1565657 C14.7436869,15.1565657 15.3686869,14.7146465 15.4292929,13.9987374 C15.4292929,13.6022727 15.2020202,12.8409091 15.1856061,12.8118687 C15.1401515,12.6856061 13.9229798,7.96717172 8.05681818,7.86237374 C5.87878788,7.83207071 3.83712121,8.63888889 2.49621212,10.0088384 C1.39653934,11.0992947 0.78605246,12.5890649 0.804292929,14.1376263 C0.804292929,18.7992424 4.53661616,20.0631313 8.46843434,21.4191919 C9.96085859,21.9242424 12.0037879,22.6376263 12.0037879,24.8282828 C12.0037879,25.6363636 11.729798,26.3510101 11.1957071,26.8989899 C10.5391414,27.584596 9.52020202,27.9810606 8.39267677,27.9810606 C5.78787879,27.9810606 4.09722222,26.260101 4.09722222,23.5782828 L4.09722222,23.4267677 L0,23.4267677 L0,23.5782828 C0,23.959596 0.0151515152,24.3358586 0.0757575758,24.7209596 L0.0757575758,24.7815657 L0.198232323,25.5138889 L0.213383838,25.5593434 L0.213383838,25.5896465 L0.396464646,26.2752525 L0.411616162,26.3055556 L0.411616162,26.3207071 C0.563131313,26.7929293 0.761363636,27.2348485 0.98989899,27.6464646 C1.0959596,27.844697 1.21717172,28.0277778 1.36868687,28.2247475 L1.38383838,28.239899 L1.3989899,28.270202 L1.79545455,28.7752525 L1.84090909,28.8207071 C1.96717172,28.9886364 2.13131313,29.1401515 2.28282828,29.2929293 L2.32828283,29.3383838 C2.48358586,29.489899 2.64646465,29.6313131 2.81565657,29.7651515 L2.8459596,29.7954545 L3.37878788,30.1919192 C3.76010101,30.4356061 4.15530303,30.6641414 4.58207071,30.8484848 L4.61237374,30.8636364 L5.22222222,31.0909091 L5.23737374,31.0909091 L5.26767677,31.1060606 L5.89267677,31.2891414 L5.95328283,31.3042929 L6.59343434,31.4267677 L6.6540404,31.4267677 L7.32323232,31.5025253 L7.33838384,31.5025253 L8.05429293,31.5328283 C10.5795455,31.5328283 12.7462121,30.709596 14.2083333,29.2323232 C15.4267677,27.969697 16.0669192,26.3080808 16.0669192,24.3712121 C16.0669192,20.0757576 11.6792929,18.5631313 8.17550505,17.3333333 L8.16666667,17.3194444 Z" id="Shape"></path>
                        </g>
                    </g>
                </g>
            </g>
        </g>
    </g>
</svg>