<?xml version="1.0" encoding="UTF-8"?>
<svg width="50px" height="30px" viewBox="0 0 50 30" version="1.1" xmlns="http://www.w3.org/2000/svg" xmlns:xlink="http://www.w3.org/1999/xlink">
    <!-- Generator: Sketch 53.2 (72643) - https://sketchapp.com -->
    <title>Group 8</title>
    <desc>Created with Sketch.</desc>
    <defs>
        <polygon id="path-1" points="0 0.0019375 24.7436915 0.0019375 24.7436915 29.7239322 0 29.7239322"></polygon>
    </defs>
    <g id="Page-1" stroke="none" stroke-width="1" fill="none" fill-rule="evenodd">
        <g id="Artboard" transform="translate(-218.000000, -5664.000000)">
            <g id="Group-8" transform="translate(218.000000, 5664.000000)">
                <g id="Group-3" transform="translate(0.000000, 0.218125)">
                    <mask id="mask-2" fill="white">
                        <use xlink:href="#path-1"></use>
                    </mask>
                    <g id="Clip-2"></g>
                    <path d="M-1.74216028e-05,0.5663125 L-1.74216028e-05,0.0131875 L7.39484321,0.0131875 L7.39484321,0.581223214 C7.22114983,0.620151786 7.04205575,0.661401786 6.86243902,0.700151786 C6.13891986,0.856223214 5.71078397,1.26024107 5.74771777,2.01497321 C5.79771777,3.03220536 5.9383101,4.05265179 6.1316899,5.05309821 C7.11766551,10.1541696 8.13308362,15.2491696 9.13909408,20.3461339 C9.17001742,20.5032768 9.21052265,20.6583661 9.30738676,20.8173839 C9.47994774,19.8863125 9.6545122,18.9556875 9.82480836,18.0242589 C10.4280314,14.7234554 11.0585192,11.4273839 11.6070383,8.1169375 C11.7108711,7.48979464 11.5203659,6.79961607 11.4072997,6.14916964 C11.1886585,4.8913125 10.9434495,3.63783036 10.6811672,2.38872321 C10.4054704,1.07541964 10.2562544,0.931401786 9.00006969,0.572383929 L9.00006969,0.0019375 L16.641446,0.0019375 L16.641446,0.578991071 C16.3533798,0.635598214 16.0830836,0.683455357 15.8151394,0.742473214 C15.0712369,0.906401786 14.7010279,1.24149107 14.7099129,2.00640179 C14.7198432,2.87524107 14.826899,3.75291964 14.9863937,4.60827679 C15.9826481,9.94979464 17.0052962,15.2861339 18.0195819,20.6240804 C18.0295122,20.6763125 18.0452787,20.7274732 18.1355226,20.7878304 C18.2572125,20.1852411 18.380993,19.5830089 18.5001568,18.9798839 C19.4269861,14.2910446 20.3653136,9.6044375 21.2676655,4.91059821 C21.4292509,4.07015179 21.497108,3.20024107 21.5074739,2.3425625 C21.519669,1.33202679 21.1428397,0.9363125 20.1725436,0.728901786 C19.9330836,0.677741071 19.6919686,0.634526786 19.4298606,0.583455357 L19.4298606,0.0119375 L24.6979791,0.0119375 C24.8012021,0.389258929 24.7506794,0.640419643 24.3262021,0.738901786 C23.6512892,0.895598214 23.3208014,1.42515179 23.1633972,2.05720536 C22.8552091,3.29425893 22.5586934,4.53559821 22.3013763,5.78461607 C20.6868293,13.6199732 19.0845645,21.4579196 17.4773345,29.2947946 C17.4508537,29.4239911 17.4129617,29.5506875 17.3755923,29.6973839 L16.282561,29.6973839 C14.9878746,23.3082768 13.6904878,16.9068482 12.3932753,10.5054196 L12.2941463,10.5093482 C11.1230662,16.8943482 9.95207317,23.2793482 8.77114983,29.7179196 C8.36827526,29.7179196 7.96505226,29.7389018 7.56696864,29.7024732 C7.47236934,29.6939018 7.34318815,29.5041696 7.31662021,29.3784554 C6.84022648,27.1280982 6.37942509,24.8742589 5.91095819,22.6220268 C4.52054007,15.9381875 3.1284669,9.25461607 1.73534843,2.5713125 C1.69606272,2.38283036 1.64231707,2.19711607 1.58743902,2.0125625 C1.30311847,1.05720536 1.25738676,1.01622321 -1.74216028e-05,0.5663125" id="Fill-1" fill="#CCCEE6" mask="url(#mask-2)"></path>
                </g>
                <path d="M35.0535627,9.92158036 C34.4604443,10.0480982 34.463493,10.0405089 34.3877091,9.4806875 C34.1087021,7.41827679 33.8438937,5.34533036 32.8911063,3.46649107 C32.5945906,2.8819375 32.2002526,2.32533036 31.7552178,1.8500625 C31.0714199,1.11979464 30.1768206,0.870508929 29.19973,1.01702679 C28.23527,1.16166964 27.6992073,1.82470536 27.4378833,2.72015179 C26.9492944,4.39372321 27.0972909,6.03890179 27.9358798,7.55175893 C28.4261237,8.43622321 29.0324826,9.27220536 29.6908449,10.0354196 C30.8341376,11.3608661 32.0859669,12.5873839 33.2413676,13.9023839 C34.7676742,15.6395268 35.9411063,17.5919375 36.3426742,19.9380089 C36.7623606,22.3905089 36.596507,24.7725625 35.3493815,26.9801518 C34.0504268,29.2792589 31.4621864,30.4438125 29.1155836,29.7473839 C28.5577439,29.5817589 28.0492944,29.2302411 27.5315244,28.9390804 C27.2662805,28.7898839 27.039277,28.5706875 26.7798693,28.4087232 C26.2630575,28.0859554 25.7103571,28.1882768 25.3656707,28.6994375 C25.1543467,29.0126518 25.0084408,29.3722946 24.8171516,29.7420268 L24.3961585,29.7420268 L24.3961585,20.0104196 L24.9154965,20.0104196 C25.1455488,21.2020268 25.3356185,22.3877411 25.6093118,23.5528304 C25.9340505,24.9352411 26.4580923,26.2430089 27.3422387,27.3611339 C28.1563502,28.3907768 29.1634059,29.0595268 30.5229878,28.9760446 C31.5221167,28.9148839 32.2486847,28.3871161 32.7361411,27.5272946 C33.4556533,26.2582768 33.606176,24.8617589 33.4832666,23.4289911 C33.2983362,21.2728304 32.1764721,19.5819375 30.8269077,18.0312232 C29.4649739,16.4664018 28.0249042,14.9724732 26.6802178,13.3927411 C25.4536498,11.9518482 24.5257753,10.3173839 24.2588763,8.38541964 C23.9572213,6.20175893 24.2213328,4.10613393 25.4525174,2.2331875 C26.6840505,0.359526786 29.1883188,-0.496098214 31.1391899,0.293633929 C31.6027787,0.481223214 32.0315244,0.7850625 32.4385801,1.08845536 C33.4964199,1.87675893 34.0897125,1.69684821 34.5020819,0.427651786 C34.5246429,0.358276786 34.5581794,0.292651786 34.5912805,0.213991071 L35.0535627,0.213991071 L35.0535627,9.92158036 Z" id="Fill-4" fill="#CCCEE6"></path>
                <path d="M41.731446,0.801008929 L41.731446,0.230651786 L49.9632404,0.230651786 L49.9632404,0.796455357 C49.6263937,0.894401786 49.2692509,0.997616071 48.9124564,1.10234821 C48.3493902,1.26752679 48.0230836,1.63886607 47.9778746,2.24663393 C47.9546167,2.55779464 47.9271777,2.86966964 47.9270906,3.18127679 C47.9241289,9.80190179 47.9264808,16.4225268 47.9235192,23.0431518 C47.9228223,24.5655625 47.6626307,26.0224375 46.9233449,27.3739554 C45.1971254,30.5294911 39.9459059,30.9896696 38.0391986,27.6144911 C37.1635889,26.0642232 36.8434669,24.4153839 37.6441638,22.7191339 C38.1594077,21.6277054 39.3587108,21.0422589 40.3945122,21.3109196 C41.1224739,21.4996696 41.6503484,21.9386875 41.8168118,22.7169911 C42.0155923,23.6456518 41.8678571,24.5024375 41.1487805,25.1667232 C40.8488676,25.4437768 40.4989547,25.6644911 40.1678571,25.9052054 C39.2020906,26.6073482 39.1577526,27.4229732 40.0081882,28.2701161 C41.0382404,29.2961875 43.197561,29.4466339 43.7215157,27.2594018 C43.9168118,26.4441339 44.0397213,25.5883304 44.04277,24.7503839 C44.0695993,17.4157411 44.0638502,10.0809196 44.0619338,2.7461875 C44.0615854,1.69029464 43.7584495,1.31824107 42.7531359,1.05877679 C42.4180314,0.972258929 42.0819686,0.8893125 41.731446,0.801008929" id="Fill-6" fill="#CCCEE6"></path>
            </g>
        </g>
    </g>
</svg>