<?xml version="1.0" encoding="UTF-8"?>
<svg width="78px" height="78px" viewBox="0 0 78 78" version="1.1" xmlns="http://www.w3.org/2000/svg" xmlns:xlink="http://www.w3.org/1999/xlink">
    <!-- Generator: Sketch 53.2 (72643) - https://sketchapp.com -->
    <title>xero-seeklogo.com</title>
    <desc>Created with Sketch.</desc>
    <defs>
        <polygon id="path-1" points="0.0688235294 -0.000540024989 77.9988529 -0.000540024989 77.9988529 77.999767 0.0688235294 77.999767"></polygon>
    </defs>
    <g id="Page-1" stroke="none" stroke-width="1" fill="none" fill-rule="evenodd">
        <g id="Artboard" transform="translate(-670.000000, -3986.000000)">
            <g id="xero-seeklogo.com" transform="translate(670.000000, 3986.000000)">
                <g id="Group-3">
                    <mask id="mask-2" fill="white">
                        <use xlink:href="#path-1"></use>
                    </mask>
                    <g id="Clip-2"></g>
                    <path d="M35.5760294,0.147970588 C40.9924412,-0.322323529 46.5132353,0.323470588 51.6555,2.09797059 C59.4635294,4.75111765 66.3562059,9.98170588 71.0453824,16.7608235 C73.5046765,20.2937647 75.3743824,24.2385 76.5397941,28.3839706 C78.702,36.0405882 78.4588235,44.3625 75.8274706,51.8734412 C73.7868529,57.7326176 70.3101176,63.0790588 65.7987353,67.3369412 C60.8904706,71.9962941 54.7468235,75.3457059 48.1604118,76.9183235 C39.5804118,78.9922059 30.2972647,78.0699706 22.3229118,74.2663235 C14.9840294,70.8056471 8.78876471,64.9889118 4.86697059,57.8863235 C2.60152941,53.8131176 1.09085294,49.3212353 0.414088235,44.7089118 C-0.375088235,39.3062647 -0.0378529412,33.7361471 1.43497059,28.4757353 C3.37120588,21.4786765 7.34347059,15.0712059 12.7105588,10.1870294 C18.9551471,4.45058824 27.1233529,0.852264706 35.5760294,0.147970588" id="Fill-1" fill="#FFFFFF" mask="url(#mask-2)"></path>
                </g>
                <path d="M25.1182941,45.3053824 C22.9755882,43.1718529 20.8409118,41.0291471 18.7016471,38.8910294 C20.9005588,36.6772059 23.1166765,34.4782941 25.3178824,32.2656176 C25.7182059,31.8721765 25.8099706,31.2068824 25.5048529,30.732 C25.1435294,30.0999706 24.1696765,29.9795294 23.6580882,30.4922647 C21.4362353,32.7118235 19.2143824,34.9325294 16.9959706,37.1555294 C14.7821471,34.9818529 12.5935588,32.7840882 10.4015294,30.5897647 C10.1078824,30.2823529 9.66970588,30.1034118 9.24414706,30.1894412 C8.63391176,30.2938235 8.16935294,30.9189706 8.26685294,31.5349412 C8.33108824,32.0373529 8.74747059,32.3688529 9.08011765,32.7072353 C11.1081176,34.7352353 13.143,36.7597941 15.1641176,38.7981176 C15.1755882,38.8279412 15.1985294,38.8875882 15.21,38.9185588 C13.0282941,41.1518824 10.7915294,43.3370294 8.59491176,45.5588824 C8.28520588,45.8720294 8.17738235,46.3618235 8.32305882,46.7782059 C8.48823529,47.3368235 9.11682353,47.6912647 9.68347059,47.5811471 C10.1526176,47.5180588 10.4382353,47.1039706 10.7582647,46.8034412 C12.8527941,44.7582353 14.9025882,42.6728824 16.9764706,40.6093235 C19.1834118,42.7967647 21.372,45.0014118 23.5709118,47.1957353 C23.8794706,47.5237941 24.3589412,47.6947059 24.7994118,47.5582059 C25.35,47.4308824 25.7434412,46.8562059 25.6815,46.2952941 C25.6769118,45.8892353 25.3947353,45.5692059 25.1182941,45.3053824" id="Fill-4" fill="#4D10C6"></path>
                <path d="M28.1362059,37.4193529 C28.5250588,35.8788529 29.4931765,34.4874706 30.8317941,33.6248824 C32.4273529,32.565 34.5207353,32.3057647 36.3262059,32.9504118 C38.3266765,33.6225882 39.897,35.3752941 40.3959706,37.4205 C36.3101471,37.4193529 32.2231765,37.4205 28.1362059,37.4193529 Z M40.4567647,32.6728235 C39.1491176,31.3399412 37.3780588,30.4807941 35.5301471,30.2353235 C33.2842059,29.9118529 30.9120882,30.4922647 29.0917059,31.8538235 C26.2171765,33.9334412 24.8682353,37.8655588 25.8592941,41.2723235 C26.4018529,43.2383824 27.6773824,44.9784706 29.3566765,46.1266765 C30.9797647,47.2530882 32.9951471,47.7956471 34.9646471,47.6327647 C36.3583235,47.5042941 37.7313529,47.0695588 38.9208529,46.3274118 C39.8534118,45.7435588 40.6253824,44.9394706 41.3032941,44.0814706 C41.5946471,43.7224412 41.6508529,43.2211765 41.5281176,42.7852941 C41.3182059,42.1039412 40.4143235,41.769 39.8040882,42.1303235 C39.4163824,42.3379412 39.2271176,42.7543235 38.9426471,43.0686176 C38.1534706,43.9587353 37.1222647,44.6458235 35.9706176,44.9647059 C34.0343824,45.5187353 31.8262941,45.0633529 30.2938235,43.7488235 C29.1238235,42.7646471 28.2612353,41.3698235 28.0467353,39.8442353 C32.0775,39.8522647 36.1105588,39.8419412 40.1424706,39.8488235 C40.7687647,39.8763529 41.4260294,39.7880294 41.964,39.4439118 C42.6740294,38.9988529 43.0376471,38.1018529 42.8770588,37.2851471 C42.5421176,35.5576765 41.7242647,33.9047647 40.4567647,32.6728235 L40.4567647,32.6728235 Z" id="Fill-5" fill="#4D10C6"></path>
                <path d="M65.5085294,42.4721471 C64.6126765,43.7625882 63.2109706,44.6917059 61.6739118,45.0071471 C60.2928529,45.3099706 58.812,45.1046471 57.5594118,44.4577059 C55.8732353,43.6100294 54.6137647,41.9594118 54.2581765,40.1057647 C53.898,38.3955 54.3235588,36.5384118 55.3822941,35.1493235 C56.3114118,33.8955882 57.72,33.0089118 59.2570588,32.7324706 C60.5268529,32.4950294 61.8723529,32.6613529 63.0377647,33.2199706 C64.7640882,34.0206176 66.0889412,35.6482941 66.495,37.5122647 C66.8953235,39.2053235 66.5179412,41.0589706 65.5085294,42.4721471 Z M68.5551176,35.7090882 C67.8336176,33.8279118 66.4296176,32.2197353 64.6700294,31.2412941 C63.0308824,30.3144706 61.0854706,29.9554412 59.2215,30.2032059 C56.3745,30.5668235 53.781,32.4330882 52.5364412,35.0174118 C51.5167059,37.0614706 51.363,39.5092941 52.0902353,41.6703529 C52.6396765,43.3404706 53.7247941,44.8190294 55.1230588,45.8754706 C56.6371765,47.0282647 58.539,47.6637353 60.4431176,47.6339118 C62.3403529,47.6430882 64.2261176,46.9846765 65.7276176,45.8307353 C67.2543529,44.6607353 68.3842059,42.9734118 68.8636765,41.1082941 C69.3339706,39.3360882 69.2284412,37.4147647 68.5551176,35.7090882 L68.5551176,35.7090882 Z" id="Fill-6" fill="#4D10C6"></path>
                <path d="M52.1888824,31.8400588 C52.4045294,31.2114706 51.9881471,30.4440882 51.3285882,30.3179118 C50.0347059,30.1538824 48.6846176,30.4853824 47.6407941,31.2734118 C47.4503824,30.6459706 46.7690294,30.2146765 46.1243824,30.4131176 C45.5829706,30.5461765 45.2159118,31.0933235 45.2480294,31.6427647 C45.2434412,36.4925294 45.2434412,41.3411471 45.2480294,46.1909118 C45.1987059,46.8676765 45.7768235,47.5146176 46.4650588,47.4939706 C47.1097059,47.5123235 47.6935588,46.9445294 47.6706176,46.2941471 C47.6786471,43.4792647 47.6717647,40.6620882 47.6740588,37.8460588 C47.6786471,36.7965 47.6316176,35.7297353 47.8610294,34.6973824 C47.9929412,34.0802647 48.3382059,33.4860882 48.8956765,33.1660588 C49.5632647,32.7944118 50.3421176,32.6888824 51.0957353,32.6521765 C51.5820882,32.6464412 52.0604118,32.3183824 52.1888824,31.8400588" id="Fill-7" fill="#4D10C6"></path>
                <path d="M59.8156765,36.7735588 C59.1320294,36.9708529 58.5424412,37.5053824 58.3210588,38.1878824 C58.0927941,38.8852941 58.227,39.6997059 58.7018824,40.2652059 C59.2421471,40.9603235 60.2343529,41.2333235 61.0648235,40.9660588 C61.9927941,40.6781471 62.6626765,39.7157647 62.5628824,38.7396176 C62.5445294,37.3998529 61.0877647,36.3950294 59.8156765,36.7735588" id="Fill-8" fill="#4D10C6"></path>
            </g>
        </g>
    </g>
</svg>