<?xml version="1.0" encoding="UTF-8"?>
<svg width="181px" height="42px" viewBox="0 0 181 42" version="1.1" xmlns="http://www.w3.org/2000/svg" xmlns:xlink="http://www.w3.org/1999/xlink">
    <!-- Generator: Sketch 53.2 (72643) - https://sketchapp.com -->
    <title>ycombinator</title>
    <desc>Created with Sketch.</desc>
    <g id="Page-1" stroke="none" stroke-width="1" fill="none" fill-rule="evenodd">
        <g id="Artboard" transform="translate(-948.000000, -853.000000)" fill-rule="nonzero">
            <g id="ycombinator" transform="translate(948.000000, 853.000000)">
                <polygon id="Path" fill="#CCCDE5" points="0 0 36.2956471 0 36.2956471 42 0 42"></polygon>
                <path d="M99.8726064,8.6840625 C100.455405,8.5228125 101.043068,8.3090625 101.647752,8.3175 C101.982517,8.3353125 102.032772,8.7909375 102.062763,9.09 C102.143805,10.495582 102.185976,11.9038012 102.189212,13.3125 C102.242709,14.653125 102.235414,15.995625 102.25811,17.338125 C102.91305,16.7559375 103.55502,16.126875 104.330734,15.7696875 C105.571715,15.13875 107.06073,15.13125 108.270909,15.8634375 C109.571872,16.61625 110.480519,18.069375 110.93768,19.63875 C111.365661,21.1275 111.468603,22.7221875 111.396462,24.28125 C111.280551,26.1028125 110.852571,27.9459375 109.918795,29.4421875 C109.365987,30.309375 108.639718,31.0696875 107.752145,31.438125 C106.330408,32.04 104.670363,31.824375 103.394528,30.8840625 C102.990054,30.5915625 102.649615,30.200625 102.279185,29.8575 C102.13004,30.3965625 102.017371,30.94875 101.872279,31.490625 C101.190591,31.4990625 100.502418,31.554375 99.8272145,31.4259375 C100.099566,30.165 100.10605,28.8590625 100.136041,27.5671875 C100.186296,23.034375 100.131988,18.500625 100.115777,13.9678125 C100.029046,12.2071875 100.156305,10.426875 99.8726064,8.6840625 L99.8726064,8.6840625 Z M115.701393,8.9484375 C116.137038,8.79073496 116.607075,8.81833266 117.026673,9.02625 C117.406874,9.30858123 117.698673,9.72461594 117.859127,10.213125 C118.139584,11.2621875 117.402777,12.4396875 116.479539,12.5596875 C115.766238,12.6515625 114.982418,12.16875 114.761133,11.35125 C114.467707,10.426875 114.919194,9.3140625 115.701393,8.9484375 L115.701393,8.9484375 Z M51.3681729,10.846875 C52.4048903,10.044375 53.6134483,9.440625 54.8771249,9.421875 C56.1634975,9.3946875 57.4968831,9.500625 58.6803135,10.134375 C59.1650336,10.39125 59.6538065,10.66125 60.0566592,11.07375 C59.7624227,11.6615625 59.3741603,12.174375 59.0069727,12.7003125 C58.5360322,12.376875 58.0707658,12.0290625 57.5479489,11.82375 C56.2737349,11.3034375 54.8252485,11.191875 53.5542768,11.784375 C52.4908106,12.2521875 51.6218809,13.2075 51.0763681,14.3521875 C50.6994536,15.1584375 50.3841424,16.014375 50.2268921,16.9171875 C50.0866637,17.7984375 50.0420824,18.695625 50.0299239,19.59 C49.9885849,20.77875 49.9407613,21.97125 50.0031751,23.1590625 C50.1839319,24.81 50.6791894,26.4721875 51.6526825,27.7275 C52.5054008,28.861875 53.7650246,29.5275 55.0473444,29.6765625 C55.7225481,29.7196875 56.4123421,29.73 57.0721451,29.5321875 C57.8746082,29.32875 58.5854769,28.84125 59.3271473,28.456875 C59.759991,28.95375 60.1360949,29.5125 60.4895029,30.08625 C59.9362501,30.446443 59.3645524,30.767349 58.7775817,31.0471875 C57.1953515,31.78875 55.4404702,31.8046875 53.7658352,31.618125 C52.56133,31.3284375 51.4435558,30.624375 50.514644,29.7 C49.4430721,28.621875 48.6584416,27.19125 48.18588,25.648125 C47.8673265,24.6084375 47.7116973,23.5115625 47.6273981,22.415625 C47.5941648,21.6009375 47.5155396,20.7834375 47.5949754,19.9678125 C47.6192924,18.42375 47.8357143,16.8665625 48.3682579,15.4415625 C49.0094178,13.65375 49.9715629,11.9578125 51.3681729,10.846875 L51.3681729,10.846875 Z" id="Shape" fill="#CCCDE5"></path>
                <path d="M10.7821854,10.46625 C10.9418674,10.425 11.1007389,10.378125 11.2652844,10.3725 C12.0450515,10.35375 12.8240081,10.41 13.6029646,10.438125 C13.7261711,10.415625 13.7691312,10.5478125 13.8145231,10.6509375 C15.0020063,13.4653125 16.1724675,16.2909375 17.3712987,19.0996875 C17.6290596,19.6828125 17.8600717,20.2828125 18.1518764,20.8453125 C18.3974787,20.3840625 18.5968786,19.891875 18.8133005,19.411875 C20.1596552,16.4128125 21.4330587,13.3696875 22.7583386,10.3584375 C23.6353739,10.389375 24.5213256,10.2890625 25.3910658,10.455 C25.2330049,11.0296875 24.9484953,11.540625 24.7231572,12.0815625 C22.9836767,15.9365625 21.1971832,19.7625 19.4414913,23.6071875 C19.3780356,23.756164 19.3481996,23.9212873 19.3547604,24.0871875 C19.3580027,26.835 19.3547604,29.58375 19.3563815,32.3315625 C18.5093372,32.3325 17.6622929,32.338125 16.8152485,32.3278125 C16.8241648,29.645625 16.8128168,26.9634375 16.8209225,24.28125 C16.8176803,23.9934375 16.8492924,23.685 16.7114957,23.4290625 C15.0936005,19.9190625 13.4700313,16.4128125 11.8610524,12.898125 C11.5052127,12.0853125 11.1031706,11.29875 10.7821854,10.46625 L10.7821854,10.46625 Z" id="Path" fill="#FFFEFE"></path>
                <path d="M151.132974,11.6709375 C151.828442,11.4121875 152.542553,11.2209375 153.261527,11.071875 C153.156153,12.6028125 153.058885,14.1346875 153.012682,15.6703125 C154.141805,15.70125 155.271738,15.70125 156.40086,15.7546875 C156.205344,16.341567 155.99778,16.9229816 155.778343,17.4984375 C154.827546,17.5021875 153.875938,17.49375 152.925141,17.5021875 C152.921899,18.91875 152.935678,20.334375 152.935678,21.7509375 C152.92433,22.8759375 152.993229,23.9990625 152.977828,25.125 C153.003766,26.4 152.946216,27.6815625 153.071043,28.951875 C153.102656,29.480625 153.513614,29.8528125 153.927004,29.9878125 C154.615987,30.170625 155.335773,30.1059375 156.018271,29.9128125 C156.202058,30.3728124 156.286083,30.8777107 156.263063,31.38375 C155.643789,31.756875 154.93373,31.8290625 154.250421,31.899375 C153.285844,31.944375 152.210219,31.7671875 151.517183,30.91125 C150.946543,30.298125 150.991124,29.323125 150.925468,28.4990625 C150.855759,26.68875 150.883318,24.8746875 150.875213,23.0625 C150.87197,21.2090625 150.880076,19.3565625 150.87116,17.503125 C150.268907,17.49375 149.667465,17.5003125 149.066834,17.499375 C149.044138,16.89375 149.04738,16.2871875 149.063592,15.6815625 C149.654496,15.6759375 150.245401,15.6909375 150.836305,15.67125 C150.926279,14.3371875 150.946543,12.99375 151.132974,11.6709375 L151.132974,11.6709375 Z M67.2326243,15.3459375 C67.7043753,15.2765625 68.1809897,15.3028125 68.6551724,15.3075 C69.2168966,15.3290625 69.7932109,15.2934375 70.3346708,15.4996875 C71.5772727,15.99375 72.67073,16.99125 73.3353963,18.3075 C73.9011733,19.4428125 74.2991626,20.716875 74.3445544,22.0359375 C74.4150739,23.8078125 74.4661397,25.63125 73.986283,27.3403125 C73.5396597,28.9434375 72.5621137,30.3721875 71.2546664,31.138125 C69.9545141,31.9153125 68.3982221,32.060625 66.9918854,31.6228125 C65.7273981,31.2384375 64.629888,30.2746875 63.904429,29.026875 C63.0979131,27.6890625 62.825562,26.0325 62.7761173,24.4303125 C62.7436946,22.880625 62.7177564,21.2859375 63.1635692,19.8009375 C63.5842544,18.3365625 64.3972548,16.9978125 65.5369145,16.171875 C66.0605419,15.800625 66.6263189,15.481875 67.2326243,15.3459375 L67.2326243,15.3459375 Z M78.0877609,15.838125 C78.716855,15.6043489 79.3582464,15.4174039 80.0079982,15.2784375 C80.2738025,15.9820615 80.4362547,16.7320431 80.4886655,17.4975 C80.9320466,17.23125 81.2781594,16.8046875 81.6915495,16.485 C82.6350515,15.7040625 83.7811957,15.2071875 84.9524675,15.2653125 C85.2167129,15.2859375 85.4728527,15.3834375 85.7095387,15.52125 C86.1123914,15.7546875 86.5233498,15.9946875 86.8516301,16.36125 C87.1977429,16.7390625 87.4149754,17.2378125 87.6532826,17.7065625 C88.1817734,17.43375 88.5911106,16.9471875 89.0652933,16.5759375 C89.8880206,15.91875 90.8258486,15.3975 91.832575,15.2840625 C92.7541917,15.1621875 93.7187685,15.519375 94.3931617,16.261875 C94.6979355,16.6003125 95.022163,16.944375 95.1907613,17.40375 C95.3544962,17.851875 95.4047515,18.34125 95.4428482,18.8221875 C95.6033408,21.35625 95.4931034,23.900625 95.5790237,26.4375 C95.5790237,28.1240625 95.5895611,29.8096875 95.5903717,31.49625 C94.8608598,31.5084375 94.1321585,31.5140625 93.4034572,31.490625 C93.4058889,28.9621875 93.4042678,26.4346875 93.4042678,23.90625 C93.3977833,22.280625 93.4310166,20.6521875 93.3159158,19.0303125 C93.2556662,18.5078807 93.0120297,18.0372155 92.6423332,17.7290625 C92.2167846,17.4046875 91.6809987,17.4403125 91.195468,17.4721875 C90.3338334,17.5659375 89.6132378,18.1903125 88.9631617,18.79875 C88.6551455,19.0996875 88.3349709,19.38375 88.0350605,19.695 C87.9418451,19.7803125 87.9710255,19.935 87.9604881,20.055 C87.9612987,23.8678125 87.9661621,27.6815625 87.9580564,31.4953125 C87.2325974,31.509375 86.5063278,31.513125 85.7816794,31.4915625 C85.7824899,28.5253125 85.7833005,25.56 85.7808688,22.59375 C85.7751948,21.87375 85.7938379,21.151875 85.7427721,20.43375 C85.7038648,19.7015625 85.7687103,18.9159375 85.4720421,18.2428125 C85.0294716,17.518125 84.1524362,17.36625 83.4488625,17.566875 C82.352163,17.8715625 81.4062293,18.6534375 80.5770175,19.5103125 C80.4424631,19.6096875 80.4554322,19.8028125 80.4546216,19.963125 C80.4611061,23.805 80.4521899,27.6478125 80.4586744,31.4896875 C79.822378,31.5121875 79.1852709,31.5140625 78.549785,31.4878125 C78.489803,27.555 78.5319525,23.6184375 78.4395477,19.6846875 C78.420094,18.7921875 78.4209046,17.896875 78.318773,17.01 C78.2571697,16.6153125 78.1453112,16.23375 78.0877609,15.838125 L78.0877609,15.838125 Z M115.193977,15.699375 C115.892687,15.58125 116.588155,15.4415625 117.281191,15.2859375 C117.369543,17.5003125 117.338742,19.7203125 117.355764,21.9365625 C117.359006,25.1221875 117.356574,28.3078125 117.356574,31.4925 C116.633547,31.51125 115.910519,31.51125 115.187492,31.4934375 C115.164796,26.9334375 115.18425,22.3725 115.177765,17.8125 C115.181818,17.1084375 115.164796,16.4034375 115.193977,15.699375 L115.193977,15.699375 Z M136.631088,17.023125 C138.082817,16.0978125 139.673963,15.29625 141.363189,15.3103125 C141.956525,15.315 142.557156,15.285 143.14725,15.39 C144.620864,15.7125 145.880488,17.2453125 145.919395,19.0134375 C145.998021,21.643125 145.903184,24.275625 145.926691,26.90625 C145.943712,27.688125 145.918585,28.4840625 146.084751,29.248125 C146.183641,29.76375 146.598652,30.04875 146.918016,30.3740625 C146.604326,30.87 146.347376,31.42875 145.93966,31.831875 C145.702163,32.0615625 145.408737,31.8121875 145.208527,31.6434375 C144.680036,31.190625 144.320954,30.5325 144.029149,29.8621875 C143.56064,30.1575 143.201558,30.628125 142.745208,30.9459375 C141.95004,31.5290625 141.012212,31.8759375 140.067089,31.86 C139.219234,31.8825 138.350305,31.719375 137.586749,31.2815625 C136.346579,30.5240625 135.657595,28.8721875 135.69326,27.283125 C135.682723,25.7559375 136.352253,24.2690625 137.412476,23.368125 C138.681827,22.2721875 140.294859,21.91125 141.843045,21.78 C142.550672,21.7078125 143.262351,21.7040625 143.972409,21.6684375 C144.000779,20.866875 143.948092,20.064375 143.849203,19.27125 C143.765714,18.5971875 143.487689,17.9071875 142.952714,17.56875 C142.311554,17.1778125 141.553672,17.1684375 140.85253,17.285625 C139.529682,17.4721875 138.287891,18.125625 137.211455,19.0171875 C136.924514,18.54375 136.61974,18.0815625 136.375759,17.5771875 C136.256605,17.325 136.449521,17.12625 136.631088,17.023125 L136.631088,17.023125 Z M163.362835,15.3440625 C164.206591,15.2084098 165.063977,15.2359732 165.899915,15.425625 C167.145595,15.7711174 168.241448,16.6254123 168.98575,17.83125 C169.583139,18.796875 169.972212,19.9275 170.157833,21.0928125 C170.301204,22.2096897 170.35574,23.3394178 170.320757,24.4678125 C170.283471,26.3015625 169.795508,28.145625 168.8285,29.611875 C168.046301,30.785625 166.834501,31.4896875 165.590278,31.7503125 C164.079378,32.0559375 162.439597,31.7465625 161.17592,30.7078125 C160.067062,29.7946875 159.360246,28.3659375 158.976847,26.88 C158.769342,26.1309375 158.732866,25.340625 158.684232,24.5625 C158.663157,23.251875 158.641272,21.9253125 158.870663,20.634375 C159.184353,19.1709375 159.808491,17.76375 160.77712,16.7353125 C161.491895,15.9700032 162.396281,15.4833957 163.362835,15.3440625 L163.362835,15.3440625 Z M174.026677,15.88125 C174.676753,15.669375 175.323587,15.43875 175.98339,15.26625 C176.331124,16.036875 176.400022,16.914375 176.436498,17.7675 C176.772073,17.4778125 177.05172,17.1159375 177.348388,16.7765625 C178.294322,15.6928125 179.66094,15.0375 181,15.315 L181,15.5090625 C180.706574,16.2534375 180.523386,17.0475 180.247792,17.799375 C180.208885,17.938125 180.044339,17.893125 179.951935,17.919375 C179.367515,17.9353125 178.74824,17.9184375 178.222991,18.25875 C177.706327,18.6086159 177.251236,19.0678655 176.8815,19.6125 C176.522418,20.1365625 176.592127,20.8434375 176.566189,21.4678125 C176.532145,22.374375 176.514313,23.2809375 176.523229,24.1875 C176.519987,26.623125 176.524039,29.0578125 176.520797,31.4925 C175.796149,31.51125 175.07069,31.51125 174.346041,31.4925 C174.334693,28.7765625 174.345231,26.0596875 174.341178,23.34375 C174.329019,21.49875 174.353336,19.6509375 174.270658,17.8078125 C174.254447,17.154375 174.07369,16.5290625 174.026677,15.88125 L174.026677,15.88125 Z M121.607197,15.9121875 C122.249978,15.6778125 122.900864,15.4040625 123.580931,15.3890625 C123.825376,16.1141007 123.985116,16.87361 124.055925,17.6475 C124.629807,17.236875 125.113717,16.6790625 125.703,16.2928125 C126.836176,15.5146875 128.250618,14.9821875 129.542665,15.54 C130.300546,15.849375 131.037353,16.3471875 131.496135,17.131875 C131.871429,17.7 131.958159,18.4340625 131.997067,19.126875 C132.111357,21.5925 132.074881,24.0628125 132.10163,26.5303125 C132.100009,28.1840625 132.129189,29.836875 132.133242,31.4896875 C131.407783,31.5140625 130.681514,31.51125 129.956055,31.4915625 C129.955244,28.775625 129.909042,26.0596875 129.904178,23.3428125 C129.872566,21.8315625 129.941464,20.311875 129.783403,18.808125 C129.587246,18.0871875 128.984183,17.484375 128.314653,17.4646875 C127.820206,17.44125 127.307927,17.4196875 126.836176,17.62125 C125.798648,18.0684375 124.864062,18.78375 124.018639,19.603125 C123.994322,23.5659375 124.017017,27.530625 124.007291,31.494375 C123.371805,31.509375 122.736319,31.513125 122.101644,31.4896875 C122.099212,29.2425 122.050578,26.99625 122.040851,24.7490625 C122.023018,22.43625 122.038419,20.1225 121.933856,17.8125 C121.91197,17.1609375 121.727161,16.543125 121.607197,15.9121875 L121.607197,15.9121875 Z" id="Shape" fill="#CCCDE5"></path>
                <path d="M67.5544201,17.3259375 C68.4363189,17.085 69.4130542,17.165625 70.2049798,17.7028125 C70.7696068,18.0735807 71.2128758,18.6491956 71.4662248,19.340625 C71.8836677,20.4525 71.9549978,21.6815625 72.0012002,22.876875 C72.0182221,24.0253125 72.040918,25.18125 71.9031214,26.3221875 C71.7945052,27.230625 71.4848679,28.1240625 70.9466502,28.8065625 C70.2811733,29.61 69.2647201,29.9015625 68.3293238,29.83125 C67.3485356,29.7525 66.3264084,29.2284375 65.8279086,28.2046875 C65.3715584,27.22875 65.1916122,26.1178125 65.077322,25.0275 C65.0084236,24.125625 64.9403359,23.218125 65.0140976,22.3134375 C65.0789431,21.0984375 65.1616211,19.809375 65.7346932,18.75 C66.1375459,18.0075 66.8257188,17.5246875 67.5544201,17.3259375 L67.5544201,17.3259375 Z M163.524948,17.3071875 C164.235817,17.1965625 164.983162,17.1759375 165.670524,17.4459375 C166.323032,17.78625 166.886377,18.3646875 167.268155,19.065 C167.710725,19.99875 167.809615,21.0834375 167.883377,22.1278125 C167.932011,23.12625 167.923905,24.1275 167.881755,25.1259375 C167.825016,25.9659375 167.792593,26.8303125 167.515378,27.620625 C167.279503,28.2871875 166.907452,28.9209375 166.358697,29.285625 C165.545696,29.83125 164.547076,29.949375 163.637618,29.7140625 C162.996458,29.551875 162.379615,29.180625 161.955687,28.591875 C161.511496,28.00125 161.299127,27.234375 161.174299,26.47875 C160.995163,25.351875 160.996785,24.2034375 160.969225,23.0625 C160.992732,21.855 160.940045,20.6025 161.349382,19.4625 C161.680094,18.3721875 162.503632,17.4365625 163.524948,17.3071875 Z M104.920018,17.589375 C105.516597,17.5321875 106.129386,17.514375 106.717859,17.6653125 C107.442508,17.8453125 108.052056,18.440625 108.422485,19.1690625 C108.877215,20.0578125 109.043381,21.1021875 109.08391,22.1221875 C109.168209,22.9996875 109.074183,23.88 109.02798,24.7565625 C108.918554,25.8965625 108.740228,27.0646875 108.232002,28.066875 C107.874541,28.7746875 107.283636,29.325 106.592221,29.5275 C105.163999,29.949375 103.588253,29.390625 102.533704,28.2215625 C102.398339,28.063125 102.199749,27.915 102.237035,27.6590625 C102.237035,25.2515625 102.238657,22.845 102.237035,20.4375 C102.239467,20.1375 102.219203,19.8365625 102.252436,19.5384375 C102.964116,18.631875 103.832235,17.765625 104.920018,17.589375 L104.920018,17.589375 Z M140.251899,23.6475 C140.903596,23.4365625 141.583663,23.3915625 142.254814,23.3184375 C142.792221,23.2640625 143.323954,23.405625 143.862172,23.3859375 C143.848392,24.6740625 143.868657,25.9659375 143.777873,27.2503125 C143.746261,27.9759375 143.300448,28.550625 142.841666,28.99125 C142.293721,29.4984375 141.659046,29.9409375 140.949798,30.0403125 C140.357273,30.10125 139.738809,30.075 139.183569,29.8059375 C138.702902,29.57625 138.388401,29.049375 138.195486,28.5121875 C138.000139,27.973125 138.064174,27.375 138.075522,26.806875 C138.100649,26.2940625 138.098218,25.7446875 138.335714,25.2909375 C138.750725,24.4725 139.470511,23.904375 140.251899,23.6475 L140.251899,23.6475 Z" id="Shape" fill="#FFFEFE"></path>
            </g>
        </g>
    </g>
</svg>