<?xml version="1.0" encoding="UTF-8"?>
<svg width="24px" height="11px" viewBox="0 0 24 11" version="1.1" xmlns="http://www.w3.org/2000/svg" xmlns:xlink="http://www.w3.org/1999/xlink">
    <!-- Generator: Sketch 53.2 (72643) - https://sketchapp.com -->
    <title>Combined Shape</title>
    <desc>Created with Sketch.</desc>
    <g id="Page-1" stroke="none" stroke-width="1" fill="none" fill-rule="evenodd">
        <g id="Artboard" transform="translate(-943.000000, -2552.000000)" fill="#F75F81" fill-rule="nonzero">
            <path d="M956.420956,2558.1875 L943.6875,2558.1875 C943.307804,2558.1875 943,2557.8797 943,2557.5 C943,2557.1203 943.307804,2556.8125 943.6875,2556.8125 L956.411765,2556.8125 L964.589967,2556.8125 L960.853807,2553.17364 C960.578143,2552.90515 960.578143,2552.46985 960.853807,2552.20136 C961.129471,2551.93288 961.576411,2551.93288 961.852075,2552.20136 L966.793252,2557.01386 C967.068916,2557.28235 967.068916,2557.71765 966.793252,2557.98614 L961.852075,2562.79864 C961.576411,2563.06712 961.129471,2563.06712 960.853807,2562.79864 C960.578143,2562.53015 960.578143,2562.09485 960.853807,2561.82636 L964.589967,2558.1875 L956.420956,2558.1875 Z" id="Combined-Shape"></path>
        </g>
    </g>
</svg>