<?xml version="1.0" encoding="UTF-8"?>
<svg width="910px" height="92px" viewBox="0 0 910 92" version="1.1" xmlns="http://www.w3.org/2000/svg" xmlns:xlink="http://www.w3.org/1999/xlink">
    <!-- Generator: Sketch 53.2 (72643) - https://sketchapp.com -->
    <title>background-four copy</title>
    <desc>Created with Sketch.</desc>
    <g id="Page-1" stroke="none" stroke-width="1" fill="none" fill-rule="evenodd">
        <g id="background-four-copy" transform="translate(-138.000000, -21.000000)">
            <rect id="Rectangle-Copy-7" fill="#F3A8F5" transform="translate(1036.881051, 37.028877) rotate(39.000000) translate(-1036.881051, -37.028877) " x="1028.88105" y="28.0288768" width="16" height="18" rx="4"></rect>
            <path d="M590.029137,29.8941536 C590.029137,29.8941536 588.370897,19.6937288 594.845929,19.3699058 C601.320961,19.0460828 603.610912,21.3937996 604.242622,24.6320297 C604.874333,27.8702598 604.953296,36.613481 615.929266,36.7753925 C626.905235,36.937304 623.193936,47.9472863 615.929266,48.2711093 C608.664595,48.5949323 600.452359,48.1901536 593.42458,37.6659058 C593.42458,37.6659058 590.818775,33.8609854 590.029137,29.8941536" id="Fill-1-Copy-3" fill="#5EA7F6" transform="translate(606.338896, 33.840058) rotate(-13.000000) translate(-606.338896, -33.840058) "></path>
            <rect id="Rectangle-Copy-5" x="0" y="0" width="1145" height="120"></rect>
            <path d="M168.640901,108.840764 C168.640901,108.840764 166.16108,114.544568 159.372676,112.593294 C152.584392,110.642021 147.699469,109.741334 146.783464,108.840764 C145.867578,107.940195 141.287911,101.035435 139.608708,97.2830233 C137.929504,93.5304931 136.630877,90.0781133 140.714941,87.2261525 C144.799005,84.37431 149.414649,78.9705387 152.755007,80.1713768 C156.095366,81.3722148 157.612376,82.1568412 159.372676,85.2919159 C161.132976,88.4269905 163.117434,93.3802405 166.170586,94.1307938 C169.223617,94.8813472 173.345342,95.7069086 173.955852,99.7972115 C174.566482,103.887396 168.640901,108.840764 168.640901,108.840764" id="Fill-1-Copy-2" fill="#FBE1EC"></path>
        </g>
    </g>
</svg>