<?xml version="1.0" encoding="UTF-8"?>
<svg width="1286px" height="285px" viewBox="0 0 1286 285" version="1.1" xmlns="http://www.w3.org/2000/svg" xmlns:xlink="http://www.w3.org/1999/xlink">
    <!-- Generator: Sketch 53.2 (72643) - https://sketchapp.com -->
    <title>background-two</title>
    <desc>Created with Sketch.</desc>
    <g id="Page-1" stroke="none" stroke-width="1" fill="none" fill-rule="evenodd">
        <g id="background-two" transform="translate(0.000000, -28.000000)">
            <path d="M118.737452,120.260253 C114.508452,110.392253 104.358452,116.594253 93.7854525,119.132253 C83.2134525,121.670253 64.1824525,119.132253 64.1824525,119.132253 C49.8034525,122.938253 36.0584525,119.132253 24.0064525,114.866253 C11.9534525,110.601253 5.60945249,122.304253 0.535452493,145.141253 C-4.53954751,167.978253 27.8124525,171.784253 40.4994525,172.418253 C53.1864525,173.052253 64.1824525,166.826253 64.1824525,166.826253 C70.1024525,162.927253 75.6004525,164.383253 87.4424525,166.075253 C99.2834525,167.766253 95.9004525,166.075253 95.9004525,166.075253 C122.966452,158.073253 122.966452,130.128253 118.737452,120.260253" id="Fill-5-Copy" fill="#F0E5F1"></path>
            <rect id="Rectangle-Copy-7" x="74" y="0" width="1145" height="300"></rect>
            <path d="M1285.32886,162.013536 C1282.47486,149.345536 1274.46786,121.464536 1256.10986,132.550536 C1237.75186,143.636536 1226.57786,147.125536 1226.57786,147.125536 C1226.57786,147.125536 1208.78286,148.393536 1202.43886,147.125536 C1196.09586,145.856536 1174.52786,142.896536 1169.02986,153.469536 C1163.53186,164.041536 1169.02986,175.883536 1187.63786,177.151536 C1206.24486,178.420536 1215.19286,178.843536 1226.57786,177.151536 C1226.57786,177.151536 1231.09086,171.654536 1251.07386,177.151536 C1271.05586,182.649536 1288.18286,174.681536 1285.32886,162.013536" id="Fill-1-Copy-4" fill="#F0E5F1"></path>
            <path d="M1076.32475,304.113954 C1076.32475,304.113954 1070.60017,307.754594 1066.43758,309.279403 C1062.275,310.804211 1059.15101,311.819682 1053.94655,295.562534 C1048.74209,279.306987 1041.71803,269.908273 1050.0432,269.398935 C1058.37165,268.8912 1060.19125,265.843185 1065.91747,271.178413 C1071.64205,276.512039 1085.95267,287.663001 1086.21355,289.072488 C1086.47279,290.481975 1088.29402,293.275321 1086.21355,296.071871 C1084.13144,298.865218 1076.32475,304.113954 1076.32475,304.113954" id="Fill-4-Copy" fill="#45E6F3" transform="translate(1066.698558, 289.073268) rotate(-13.000000) translate(-1066.698558, -289.073268) "></path>
            <rect id="Rectangle-Copy-6" fill="#B5D2F4" transform="translate(1012.269624, 175.343537) rotate(39.000000) translate(-1012.269624, -175.343537) " x="1003.76962" y="166.343537" width="17" height="18" rx="4"></rect>
            <rect id="Rectangle-Copy-5" fill="#B5D2F4" transform="translate(305.269624, 174.343537) rotate(39.000000) translate(-305.269624, -174.343537) " x="296.769624" y="165.343537" width="17" height="18" rx="4"></rect>
            <path d="M221.201011,274.997221 L229.6335,276.767503 C232.885273,277.450166 235.209099,280.324735 235.195239,283.647364 L235.100952,306.251234 C235.08713,309.564914 232.389657,312.239977 229.075977,312.226155 C228.764841,312.224857 228.454277,312.199359 228.147096,312.149893 L214.064659,309.882158 C211.930779,309.538533 210.455813,307.561936 210.733826,305.418521 L214.018111,280.097449 C214.444347,276.811268 217.453856,274.492824 220.740037,274.91906 C220.894652,274.939115 221.048427,274.965188 221.201011,274.997221 Z" id="Rectangle-Copy-4" fill="#B7F5FB" transform="translate(223.191217, 293.204474) rotate(39.000000) translate(-223.191217, -293.204474) "></path>
            <path d="M1070.33836,37.3974137 C1070.33836,37.3974137 1068.47912,26.1417726 1075.73901,25.7844507 C1082.99889,25.4271287 1085.56641,28.0177128 1086.27469,31.5909322 C1086.98298,35.1641516 1087.07151,44.811844 1099.3779,44.990505 C1111.68429,45.169166 1107.52314,57.3181119 1099.3779,57.6754339 C1091.23266,58.0327558 1082.02501,57.5861034 1074.14538,45.9731403 C1074.14538,45.9731403 1071.22371,41.7746075 1070.33836,37.3974137" id="Fill-1-Copy-3" fill="#FF9EC9" transform="translate(1088.625063, 41.751516) scale(-1, 1) rotate(-13.000000) translate(-1088.625063, -41.751516) "></path>
            <path d="M189.172946,38.4622923 C189.172946,38.4622923 187.665455,29.3170839 193.551848,29.0267598 C199.438241,28.7364357 201.520014,30.8412853 202.094296,33.744526 C202.668578,36.6477668 202.740364,44.4865169 212.718518,44.6316789 C222.696671,44.776841 219.322763,54.6478596 212.718518,54.9381837 C206.114272,55.2285077 198.648603,54.8656026 192.259713,45.4300701 C192.259713,45.4300701 189.890799,42.0187622 189.172946,38.4622923" id="Fill-1-Copy-2" fill="#FF9EC9" transform="translate(204.000000, 42.000000) rotate(-13.000000) translate(-204.000000, -42.000000) "></path>
        </g>
    </g>
</svg>