<?xml version="1.0" encoding="UTF-8"?>
<svg width="981px" height="516px" viewBox="0 0 981 516" version="1.1" xmlns="http://www.w3.org/2000/svg" xmlns:xlink="http://www.w3.org/1999/xlink">
    <!-- Generator: Sketch 53.2 (72643) - https://sketchapp.com -->
    <title>background-three</title>
    <desc>Created with Sketch.</desc>
    <g id="Page-1" stroke="none" stroke-width="1" fill="none" fill-rule="evenodd">
        <g id="background-three" transform="translate(-1.000000, -19.000000)">
            <rect id="Rectangle-Copy-6" fill="#F3A8F5" transform="translate(970.881051, 418.028877) rotate(39.000000) translate(-970.881051, -418.028877) " x="962.881051" y="409.028877" width="16" height="18" rx="4"></rect>
            <path d="M481.6868,490.558444 L493.142996,492.854521 C496.424929,493.512294 498.781954,496.401445 498.767329,499.748613 L498.648875,526.859242 C498.62957,531.277478 495.032233,534.843516 490.613997,534.824212 C490.218695,534.822484 489.824064,534.79146 489.433349,534.731393 L475.332155,532.563539 C471.01914,531.900476 468.033122,527.903391 468.620585,523.57943 L472.187514,497.325447 C472.782327,492.947391 476.813634,489.880466 481.191691,490.47528 C481.357557,490.497814 481.522674,490.52555 481.6868,490.558444 Z" id="Rectangle-Copy-5" fill="#BEEDEF" transform="translate(483.757718, 512.202611) rotate(-41.000000) translate(-483.757718, -512.202611) "></path>
            <rect id="Rectangle-Copy-4" x="0" y="0" width="1145" height="538"></rect>
            <path d="M1,25.157015 C1,25.157015 32.2635386,28.8203654 49.6325362,25.157015 C67.0015338,21.4936646 83.6739973,12.541695 90.6212678,26.7851707 C97.5685383,41.0286465 97.5685383,81.3644724 53.10535,92.9145629 C53.10535,92.9145629 58.6644806,95.355353 39.2108091,92.9145629 C19.7571375,90.4723293 10.7268358,88.3692948 1,94 L1,25.157015 Z" id="Fill-7-Copy" fill="#F2E8FB"></path>
        </g>
    </g>
</svg>