<?xml version="1.0" encoding="UTF-8"?>
<svg width="957px" height="282px" viewBox="0 0 957 282" version="1.1" xmlns="http://www.w3.org/2000/svg" xmlns:xlink="http://www.w3.org/1999/xlink">
    <!-- Generator: Sketch 53.2 (72643) - https://sketchapp.com -->
    <title>background-four</title>
    <desc>Created with Sketch.</desc>
    <g id="Page-1" stroke="none" stroke-width="1" fill="none" fill-rule="evenodd">
        <g id="background-four" transform="translate(-138.000000, -88.000000)">
            <rect id="Rectangle-Copy-7" fill="#F3A8F5" transform="translate(1036.881051, 294.028877) rotate(39.000000) translate(-1036.881051, -294.028877) " x="1028.88105" y="285.028877" width="16" height="18" rx="4"></rect>
            <path d="M1060.02914,96.8941536 C1060.02914,96.8941536 1058.3709,86.6937288 1064.84593,86.3699058 C1071.32096,86.0460828 1073.61091,88.3937996 1074.24262,91.6320297 C1074.87433,94.8702598 1074.9533,103.613481 1085.92927,103.775393 C1096.90523,103.937304 1093.19394,114.947286 1085.92927,115.271109 C1078.6646,115.594932 1070.45236,115.190154 1063.42458,104.665906 C1063.42458,104.665906 1060.81877,100.860985 1060.02914,96.8941536" id="Fill-1-Copy-3" fill="#5EA7F6" transform="translate(1076.338896, 100.840058) rotate(-13.000000) translate(-1076.338896, -100.840058) "></path>
            <rect id="Rectangle-Copy-5" x="0" y="0" width="1145" height="538"></rect>
            <path d="M168.640901,365.840764 C168.640901,365.840764 166.16108,371.544568 159.372676,369.593294 C152.584392,367.642021 147.699469,366.741334 146.783464,365.840764 C145.867578,364.940195 141.287911,358.035435 139.608708,354.283023 C137.929504,350.530493 136.630877,347.078113 140.714941,344.226152 C144.799005,341.37431 149.414649,335.970539 152.755007,337.171377 C156.095366,338.372215 157.612376,339.156841 159.372676,342.291916 C161.132976,345.426991 163.117434,350.38024 166.170586,351.130794 C169.223617,351.881347 173.345342,352.706909 173.955852,356.797211 C174.566482,360.887396 168.640901,365.840764 168.640901,365.840764" id="Fill-1-Copy-2" fill="#FBE1EC"></path>
        </g>
    </g>
</svg>