<?xml version="1.0" encoding="UTF-8"?>
<svg width="1280px" height="464px" viewBox="0 0 1280 464" version="1.1" xmlns="http://www.w3.org/2000/svg" xmlns:xlink="http://www.w3.org/1999/xlink">
    <!-- Generator: Sketch 53.2 (72643) - https://sketchapp.com -->
    <title>Group</title>
    <desc>Created with Sketch.</desc>
    <defs>
        <linearGradient x1="50%" y1="0%" x2="50%" y2="100%" id="linearGradient-1">
            <stop stop-color="#763DD1" offset="0%"></stop>
            <stop stop-color="#5C21CC" offset="100%"></stop>
        </linearGradient>
        <linearGradient x1="50%" y1="110.988451%" x2="50%" y2="-18.2404891%" id="linearGradient-2">
            <stop stop-color="#4A189A" offset="0%"></stop>
            <stop stop-color="#6C33CD" offset="100%"></stop>
        </linearGradient>
    </defs>
    <g id="Page-1" stroke="none" stroke-width="1" fill="none" fill-rule="evenodd">
        <g id="Artboard" transform="translate(0.000000, -6704.000000)">
            <g id="Group" transform="translate(0.000000, 6704.000000)">
                <rect id="Rectangle" fill="url(#linearGradient-1)" x="0" y="0" width="1280" height="464"></rect>
                <path d="M283.5625,462.555556 C251.845052,450.974248 233.216797,436.740234 227.677734,419.853516 C219.369141,394.523437 207.673828,370.539062 176.511719,370.539062 C145.349609,370.539062 143.378906,392.277344 123.466797,387.105469 C103.554688,381.933594 84.140625,357.271484 96.2753906,314.34375 C108.410156,271.416016 72.4316406,240.134766 47.1855469,230.037109 C30.3548177,223.305339 14.9596354,219.429036 1,218.408203 L1,462.555556 L283.5625,462.555556 Z" id="Path" fill="#511EB9"></path>
                <path d="M363,0 C371.047207,104.256218 400.685394,171.129207 451.914561,200.618965 C528.758311,244.853602 584.383311,197.567487 616.414561,165.85728 C648.445811,134.147073 766.164561,97.5332664 840.738779,191.499921 C915.312998,285.466576 1000.52003,372.925245 1279.82081,286.772105 C1279.82081,249.677245 1279.82081,154.086543 1279.82081,0 L363,0 Z" id="Path-2" fill="url(#linearGradient-2)" opacity="0.41156064"></path>
                <path d="M1280,232.292969 C1227.54297,247.747396 1205.81445,273.755859 1214.81445,310.318359 C1228.31445,365.162109 1196.64844,393.820313 1167.2832,374.708984 C1137.91797,355.597656 1112.10938,376.078125 1107.79687,380.341797 C1103.48437,384.605469 1095.2207,392.683594 1092.61328,407.753906 C1090.00586,422.824219 1060.71094,464.055556 1011.35937,463.555556 C978.458333,463.222222 1068.00521,463.055556 1280,463.055556 L1280,232.292969 Z" id="Path-4" fill="#9067E1" opacity="0.313834635"></path>
            </g>
        </g>
    </g>
</svg>